<svg version="1.1"
	 xmlns="http://www.w3.org/2000/svg" xmlns:xlink="http://www.w3.org/1999/xlink" viewBox="0 0 238.2 221.2">


  
  <!-- Text using the #pattern in defs as the fill -->
  <!-- <text x="50%" text-anchor="middle" y="50%" dy="0.4em" fill="url(#pattern)" font-family="Arial, sans-serif" font-weight="800" font-size="50vh">LOADING</text> -->
  <!-- Generator: Adobe Illustrator 21.1.0, SVG Export Plug-In  -->
<style type="text/css">
	.st0{fill:url(#pattern);}
</style>
<path class="st0" d="M176,201.7c5.9-2.7,11.5-5.8,16.9-9.6c30.3-21,47.1-55.5,45.2-92.2c-1.4-28.1-13.8-54-34.7-72.9c-21-18.9-48-28.5-76.2-27
  c-24.7,1.3-48.4,11.3-66.5,28.2c-22.8,21.4-34.9,51.6-33.3,82.7c0,0,0,0,0,0c0,0.5,0.1,1,0.1,1.5c-1.4,0.8-2.8,2.4-4.5,2.8
  c-0.9-1.6-3.8-3.9-2.1-5.7c1.8-0.3,2.7-0.9,3.1-1.5c0.7-1.3-0.8-2.9-0.9-4.3c0.5-0.6,0.6-0.4,1.2-0.9c-0.4-0.7-0.5-1.4-1-2.7
  l-0.4-0.4c-1.2-2.6,1.4-3.2,0-4.9c-3-0.3-4.9-0.1-7.1-2.6c-2.9-0.7-4.5,1.1-6.3,2.6c-4,2.3-0.2,6.6-1.7,10.1c2-1.4,3.4-2.8,4.8-4.8
  c-0.2,2.3-1.8,4.2-4.1,5.2c0.3,0.8,1.2,0.2,1.8,0.4c1.7,0.5,1.3,2.5,2.3,3.7c-2.1,1.6-4,4.3-4.6,7.1c-2.4,6.1-0.2,14.2-3.2,20.1
  c0.3,2.7-1.4,5.4-1,8c-0.1,1.3-1.9,1.3-1.9,2.1l1.9-0.5c1,0.8,3.1,0.8,3.1,2.5c-1,0.7-2,1.3-3.4,1c-0.7-0.1-0.8-1.4-1.7-1
  c-0.5,0.3-1.8,0.1-1.5,1c-0.4,1.4,1.2,0.8,1.8,1.2c5,0.6,1.6,6.1,5.9,7.7c1.3,8.5-1.2,18-1.8,27.1c-1.4,3.5,1.2,7.2-0.6,10.6
  l0.9,0.5c-0.8,3.6-0.5,7.3,0.5,10.7c1.3,1.2,2.4-0.6,4,0c1.6,0.6,0.6,2.4,1.2,3.5c1.9,0.8,2.5-0.7,4.1,0.3l10.3-0.3
  c1.3,0.7,0.6,2.3,1,3.4c0.7,1.2-0.4,2.4,0.6,3.5c2.7,0.5,4.7-0.7,6.2-2.7c2.4-2-1.1-4.5,0.6-7c0.4-10.4,4.5-19.7,6.2-29.7
  c2.3-4,1.3-9.3,3.9-13.2c3,1,2.1,4.5,3.1,6.7c1.8,8.3,2.8,16.8,2.1,25.3c0.7,7.8,2,14.4,2.1,22.5c0.7,1.8,3.1,1.3,4.6,1.2
  c1.3-3.3,5.4-1,8-1.7c0.7-0.6,1.2-0.8,2.1-1c2.5-5.3-5.5-1.2-6.2-5.4c2.4-2.4-1.1-4.4-0.3-7.2c1.7-4.2-0.5-9,0.3-13.2
  c-0.1-1,0.5-3-1-3.5c1-1.9-1-5,0.8-6.6C71,192.3,83.6,200,97.4,205c-8.2,1.4-13.1,3-13.1,4.8c0,4.6,32,8.4,71.5,8.4
  c39.4,0,71.4-3.8,71.5-8.4C227.2,206,205.6,202.8,176,201.7z M17.1,99.8c0.8-1.4,2.3-3.1,4.4-2.3l0.3,1c-0.3,0.1-0.7,0.3-0.8,1
  c0,0.7-3.4,1.1-4,1.1C17,100.5,16.8,100.2,17.1,99.8z M14,136.7c0.2,1.4-1.6,2.1-1.8,3.1c-0.2,1.8-0.2,3.9-1.7,4.9H9.7
  c0.2-2.9,2.1-5.7,3.1-8.5c-1-1,0.1-2.2,0.6-2.8C15.2,134.3,12.6,135.7,14,136.7z M15,130l-0.5,1.2c-2-0.7,0.1-2.1-0.3-3.2l0.6-0.8
  C15.6,127.7,15.3,129.2,15,130z M16.1,125.4v-1.8c0.8-0.6,0.1-2.6,1.5-2.6C17,122.7,17.2,124.6,16.1,125.4z M18.1,118.8
  c-0.2,0.2-0.4,0.5-0.8,0.4c-0.4-0.2-0.6-0.7-0.3-1C17.6,118.1,18.3,118.3,18.1,118.8z M19.7,111.6L19,112c-2.2-1-4.6-1.9-6.5-3.5
  c0.6-1.2,0.6-2.8,1.9-3.7c0.9-0.1,2.2,0.3,2.8-0.3c-2.4-0.1-1.1-2.1-0.8-3.4c0,0,0.1,0,0.1,0l4.5-0.6c0,0,0.2,1,0.6,1
  c0.3,0,0.1-1.9,0-2.7l1.1,3.6c-0.4,0.6-1.1,0.9-0.9,1.5c0.2,1,1.3,2.4,0.9,3.7c-0.4,0.3-1.2,0.6-1.7,0.9C20,109,19.4,110,19.7,111.6
  z M190.4,188.7c-1.1,0.8-2.2,1.5-3.3,2.2c1.5-1.1,3-2.2,4.4-3.4c7.1-5.7,14.7-13.4,21.1-23.4c7.5-9.4,12-18.9,14.6-25.6c0,0,0,0,0,0
  c0.3,0.1,0.6,0.4,1,0.1c0,0,0,0,0.1-0.1C221.7,158.5,208.5,176.1,190.4,188.7z M146.5,133c0.4,1.3-0.3,1.2-0.9,1.4c0,0-0.1,0-0.1,0
  c-1.6,0-3.2,0.1-4.9,0.1c0-0.1,0-0.2,0-0.4c0-0.8-0.3-0.8-0.9-1.3c-0.4-0.5-0.5-0.4-1,0.3c-0.2,0.3-0.3,0.4-0.5,0.6
  c0-2-0.1-4-0.1-5.9c0.1,0.1,0.1,0.2,0.2,0.2c0.4,0.2,0.8,0.5,1,0.4c0.1-0.1,0.4-0.3,0.5-0.1c0.2,0.2,0.3,0.4,0.6,0.3
  c0.3-0.2,0.7-0.3,1.2-0.3c0.5,0.1,0.3,0.5,0.3,1c-0.1,0.6,0.1,0.4,0.1,0.4l0.3,0.1c0,0,0-0.3,0.3-0.8c0.1-0.5,0-0.6-0.1-0.9
  c-0.2-0.2-0.3-0.3-0.3-0.5c0.1-0.4,0.3-0.8,0.8-0.8c0.4,0.1,0.2,0.3,0.2,0.4l0.4-0.4c0,0-0.6-0.4-0.8-0.4c-0.5,0.1-1.9,0-2.6-0.1
  c-0.6,0-0.6-0.5-0.6-0.5c-1-0.5-1-0.5-1.2-0.8c-0.2-0.2-0.2-0.3,0.4-0.8c0.6-0.5,0.7-0.6,0.8-0.3c0,0.3-0.1,0.4,0.9,0.8
  c0.8,0.4,0.7,0.3,1.5,0.1c1-0.2,0.9-0.2,1.2,0.4c0.3,0.6,0.1,0.7,0.9,1c0.9,0.3,1,0.6,1.3,0.9c0.3,0.4,0.2,0.7,0.6,0.9
  c0.4,0.2,0.6-0.1,0.6-0.1s0-0.2-0.3-0.4c-0.3-0.2-0.3-0.4-0.3-0.4s0.1,0.2,0.5-0.1c0.4-0.2,0.6-0.6,0.6-0.6s-0.2,0.1-0.6,0.1
  c-0.7,0.1-0.4,0.3-0.4-0.3c0-0.1-0.4-0.7,0.1-2.3c0.5-1.6,1.3-1,1.8,0.5c0,0.3-0.2,0.6,0.1,0.8c0.3,0.1,0.4-0.6,0.8,0
  c0.5,0.7,1.1,0.3,1.4-0.1c0.2-0.4,0.1-0.3,0.9-0.6c0.9-0.2,1.4-1,2.2-1.7c0.9-0.8,0.8-0.5,0.8-0.5s-0.3,0,0,0.6
  c0.7,1.6,0.1-0.4,0.1,2.5c0.1,1.4,0.6,0.3,0.6,1.2c0,0,0.1,0.3-0.3,1c-0.4,0.7-1.2,0.2-2.1,1.2c-0.3,0.3-0.1,0.6-0.5,0.8
  c0,0-0.7,0.7-2.8,1.3C147.2,131.3,146.1,131.8,146.5,133z M103.4,193.6c-2.4-1.6-4.8-3.4-7.2-5.4c-4.4-3.7-9.1-8.3-13.5-14
  c1.1,0.2,1.1-0.3,1.8-0.8c0.2-0.1,0.3-0.2,0.4-0.2c4.5,1.4,9.2,2.7,14.1,3.7c3,4.8,6.1,8.8,9,12c2.1,2.3,4.2,4.4,6.3,6.2
  C110.7,194.8,107,194.3,103.4,193.6z M78,182c-0.7-0.8-0.7-1.5,0.1-1.8c0.8-0.4,1-0.6,1.7-1.5c0.6-1,0.1-1-0.3-1.9
  c-0.3-1,0.3-0.7,1-0.5c0.8,0.3,0.7,0,0.9-1c0-0.3,0.1-0.6,0.1-0.7c4.6,6,9.4,10.8,14,14.6c1.7,1.4,3.5,2.8,5.2,4
  c-7.5-1.5-14.4-3.6-20.7-6.3c-0.8-0.7-1.7-1.4-2.5-2.2c0.3-0.3,0.5-0.6,0.8-0.8C79.2,183.1,78.7,182.9,78,182z M75.8,123.3
  c-0.6-0.7-0.6-1-0.6-1s-0.6,0.8-1.4,0.8c-0.8,0.1-0.3-0.6-0.1-0.8c0.2-0.3,0.5-1-1,0.1c-1.7,1-1.4-0.8-2.5,0.4l-1.4,1.5
  c0,0-0.2-0.4-0.5-0.8c-0.4-0.7-1.2-1.3-1.5-1c-0.4,0.2-0.5,0.4-1,0.3c-0.4-0.2,2-1.6,1.9-2.7c-0.1-1.1,0.4-1.2,0.6-2.6
  c0.2-1.3,0.6-1.4-0.8-1.8c-2.7-0.8-1.6-1.4-1.4-2.1c0.1-0.3-0.2-1.9-0.6-3.9c2.2-0.1,4.4-0.2,6.7-0.3c0.9,1.8,1.5,3.4,1.6,3.8
  c0.2,1,0.2,0.4,1.7,0.6c0.7,0.2-0.4-2.1-1.8-4.6c3-0.1,6.1-0.3,9.1-0.4c0,0.1,0,0.1,0,0.2c0,6.5,0.3,12.5,0.8,18.2
  c-1.3-0.2-2.2-0.4-2.4-0.5c-0.5-0.3-0.7-1.4-0.9-1.7c-0.2-0.3-0.7-0.5-1.2-0.4c-0.5,0.1-0.8,0.4-1.4,0c-0.5-0.3-0.7-0.3-1.3-0.5
  C75.9,124.1,76.5,124,75.8,123.3z M75.2,158.6c-0.2,1.6-0.4,2.1-0.5,2.8c0,0.1,0,0.1,0,0.2c-1.9-3.5-3.6-7.3-5.1-11.4
  c1.9,0.7,3.8,1.3,5.7,1.9c0.3,0.9,0.4,1.7,0.4,1.7l-0.1-0.4c-0.1,1.2,0.5,0.9,0.4,2.3C75.9,157,75.4,157,75.2,158.6z M64.4,93.3
  c1.1,0.7,1.2,0.8,1.5,0.6c0.3-0.3,0.4-0.4,1.5,0.1c1.2,0.4,0.9-0.5,1,0.3c0.2,0.9,0.6,0.7,1.3,1.2c1,0.8-0.2,2.2,0,4
  c0,0.2-0.9,3,1,0.6c0.6-0.7,0.6-0.7,0.5-2.6c0-1.8,0.4-2.2,0.9-2.7c0.6-0.4,0-0.3,0.9-0.8c0.8-0.5,1.4-0.4,2.5-0.8
  c1-0.3,0.3-0.2,0.9-0.9c0.6-0.8,0.5-0.4,0.6-1c0.1-0.5-0.3-1.2,0.4-1c0.7,0.3,0.7,0.2,1.3-0.9c0.1-0.4,0.5,0.5,1.2-0.6
  c0.6-1,1.5-0.7,2.3-0.3c0.9,0.3,0.3-0.4,0.8-1.2c0.2-0.4,0.3-0.6,0.4-0.8c-0.6,7.4-0.9,14.6-1,21.3c-3.3,0.1-6.5,0.3-9.8,0.4
  c-1.3-2.2-2.8-4.5-3.3-5.1c-1.1-1.6-1.8-1.4-2.5-1.2c0,0-1.7,0.6,0.8,0.8c1,0.1-0.1,0.7,0.8,0.9c0.4,0.2,1.7,2.4,2.8,4.7
  c-2.2,0.1-4.3,0.2-6.4,0.3c-0.5-2.7-1.1-5.6-0.8-5.9c0.5-0.4,0.3-0.6-0.4-0.8c-0.4-0.1-0.7-0.3-1-0.5c0.1-2.9,0.3-5.8,0.5-8.8
  C63.8,92.8,64,93,64.4,93.3z M108.6,7.2c-4.8,2.3-10.7,6-16.7,11.7c-1.9,1.8-3.8,3.8-5.5,5.8c-2.8,1.2-5.4,2.5-7.8,3.9
  c-0.2-0.1-0.3-0.2-0.1-0.6c0.5-0.6,0.5-1.7,0.8-2.3c0.2-0.7,0.8-1.5-0.3-1.8c-1.1-0.2-0.6-1-1.4-0.8c-0.1,0-0.3,0.1-0.5,0.1
  c1.3-1.2,2.6-2.3,3.9-3.2c4.1-3.2,8.1-5.6,11.8-7.5C97.9,10.3,103.2,8.5,108.6,7.2z M120.1,5.1c-4.1,2.1-9.7,6.1-15.4,13.6
  c-5.8,1.4-11.2,3.1-16.1,5.1c1.2-1.4,2.5-2.7,3.9-4c8-7.6,16-11.6,21.6-13.7C116.2,5.6,118.1,5.3,120.1,5.1z M129.8,4.3
  c0.8,0,1.6,0,2.4,0c0.1,1.7,0.3,5.7,0.5,11c-3.9,0.1-7.6,0.3-11.2,0.6C125,8.3,128.3,5.4,129.8,4.3z M132.8,16.4
  c0.2,4.5,0.5,9.9,0.7,15.8c0,0,0,0-0.1,0c-5.6,0.3-11.7,0.9-17.9,1.7c1.7-7.2,3.6-12.7,5.5-16.9C124.8,16.7,128.7,16.5,132.8,16.4z
   M162.9,8.8c4.2,2.1,8.8,5,13.5,8.9c3.5,3,6.7,6.2,9.5,9.7c-6.1-3.3-13-6.2-20.6-8.3c-0.4-0.5-0.8-1-1.3-1.6
  c-5.1-6.1-10-9.7-13.9-11.9C154.4,6.5,158.7,7.5,162.9,8.8z M189.4,22.3c8.1,6.2,16.9,15.1,24,27.5c-6.1-7.2-14.3-14.7-25-21
  c-3.3-4.3-7.1-8.3-11.3-11.9c-2.9-2.4-5.7-4.5-8.4-6.1c3.8,1.5,7.6,3.1,11.2,5.1C182.9,17.7,186.2,19.9,189.4,22.3z M231.2,119.9
  c-0.3-0.2-0.6-0.5-1-0.8c-0.2-0.1-0.4-0.2-0.5-0.2c2.1-3.5,3.4-6.3,4-7.9c0,0.7-0.1,1.3-0.1,2c-0.2,0.1-0.3,0.2-0.3,0.4
  C233.3,113.3,232.7,115.9,231.2,119.9z M178.1,157.9c-0.3-0.7-0.3-0.8-0.8-1c-0.3-0.1-0.7-0.8-0.9-1.4c3-0.8,5.9-1.7,8.6-2.6
  c-0.6,2.2-1.2,4.3-1.9,6.3c0,0,0,0,0-0.1c-0.1-0.5-0.3-0.6-0.1-0.9c0.2-0.2-0.1-0.6-0.3-0.9c-0.1-0.3-0.2-0.4,0-0.8
  c0.1-0.4-0.1-0.5-0.3-0.9c-0.2-0.5-0.5-0.7-0.9-0.9c-0.3-0.4-0.6-0.3-0.6-0.3s0.2,0.5,0.3,0.8c-0.1,0.4-0.2,1.3-0.3,1.5
  c0,0.2-0.7,2-1,2.5c-0.4,0.4-0.6,1.1-0.6,1.7c0,0.5,0.3,0.5,0.9,1.9c0.3,0.7,0.5,1.7,0.7,2.5c-0.7,1.8-1.5,3.5-2.3,5.1
  c0-0.1-0.1-0.1-0.1-0.2c-0.4-1.2-0.8-1-1.2-1.2c-0.3-0.1-0.2-0.3,0-0.6c0.3-0.4,0.7-1.4,0.8-2.1c0.2-0.6,0-2.1,0.4-2.6
  c0.3-0.4,0.4-0.8,0.5-1.5c0.2-0.8,0.3-1.4,0.3-1.4C179.3,160.2,178.4,158.7,178.1,157.9z M170,137.8c-0.2-0.3-0.2-0.4-0.6-0.6
  c0,0-0.8,0.1-1.4,0c-0.3,0-1.1-0.2-2.2-0.6c0-0.5,0-0.9,0.1-1.4c1.3,0.3,3.2,0.3,3.8,1c0.6,1,0.8,2,1.8,0c0.3-0.7,0.2-1.1-0.1-1.4
  c0.1,0,0.3,0.1,0.5,0.1c0.5,1.1,1,1.8,1.4,2.2c0,0-0.1,0.1-0.1,0.1c-0.6,0.9-0.9,1.2-1.4,1.4c-0.6,0.2-0.5-0.1-1.3-0.1
  C169.5,138.4,170.1,138.1,170,137.8z M163.8,124.2c-1.4,0.1,0.4-2.1-0.5-1.8c0.6-0.2,1.1-0.2,1.7,0.1c0,0.5,0,1,0,1.6
  C164.5,124.1,164,124.2,163.8,124.2z M164.8,134.6c0,0.5,0,1.1-0.1,1.6c-1.1-0.4-2.3-0.9-3.2-1.5c1.1-0.1,2.1-0.2,3.2-0.3
  C164.7,134.5,164.7,134.6,164.8,134.6z M159.8,73.4c-1.1-0.3-1.4-0.8-2.7,1c-1.2,1.8-1.3,2.7-0.3,3.8c-3.4-0.1-6.7-0.2-9.9-0.2
  c-3.6,0-7,0.1-10.2,0.2c-0.3-7.1-0.7-15.2-1-23.3c8.4-0.4,16.1-0.2,23.2,0.4c0.1,0.8,0.3,1.5,0.4,2.3c-0.6,0.2-1.1-0.1-1.1-0.1
  s-0.2,0.7,1.2,1.7c0.1,0.1,0.1,0.1,0.2,0.2c0.2,1.3,0.4,2.6,0.6,4c-0.5,1.2-0.6,2.2,0.2,2.7c0.1,0.1,0.2,0.1,0.2,0.1
  c0.1,0.6,0.2,1.2,0.3,1.8c-0.1,0.3-0.2,0.6-0.2,1C160.1,71.3,160.8,73.6,159.8,73.4z M155.4,82.9c0.9,0.2,0.9,0.6-0.1,1
  c-1.1,0.5-3.4,1.8-4.3,3.4c-0.8,1.6-1.3,4.1-1.9,2.7c-0.6-1.3-2.4-0.3-1.5,0.1c0.9,0.5,1.2,2.3,1.2,2.3s-0.3-0.5-0.8,0.1
  c-1,1.6,0.1,2.5-0.9,2.8c-1,0.4-1.6,0.7-1,1c0.7,0.4,0.8,0.6,0.8,0.6s-0.8,1.1-1.7,0.1c-0.9-0.9-1.5-1.3-1.5-1.3s-0.5,0,1-0.9
  c1.6-0.9,3.9-3,1.2-3c-2.8-0.1-5.2,1.4-5.2,1.4l-0.1-0.5c-0.2-0.5-1.8-0.4-1.8-0.4c-0.4,0.3-0.7,0.3-0.9,0.1
  c-0.3-0.2-0.3,0.2-0.3,0.6c0,0.5,0,0.6-0.1,0.5c0-0.1,0-0.3-0.1-0.4c-0.1-3.9-0.3-8.7-0.6-14.2c7.7-0.3,14.8-0.2,21.3,0
  c0.4,0.3,0.6,0.4,0.7,0.5c-0.2-0.1-1.3-0.6-2.4,0.8c-1.3,1.5-2.6,1.8-2.6,1.8S154.5,82.8,155.4,82.9z M139.4,109.8
  c-0.5,1,0.2,2.1,0.1,3.1c-0.1,1-0.6,0.7-1.2,0.9c-0.4,0.1-0.6,0.4-0.7,0.8c-0.1-3-0.1-5.5-0.1-7.6c0.8,0,1.7-0.1,2.7-0.1
  c-0.1,0.4-0.2,0.8,0,1.1c0.3,0.8,0.2,0.6-0.4,0.3C139.3,108,139.8,108.9,139.4,109.8z M138.2,179.6c-0.4,0-0.8,0-1.2,0
  c-6.2,0-12.2-0.3-17.9-0.8c-2.2-5.5-4.3-12.1-6-19.8c5.4,0.5,11,0.8,16.8,0.9c0.1,0.2,0.2,0.4,0.3,0.6c0.5,1.3,0.8,2.4,0.8,3.2
  c0.1,0.8,0.5,2,1.2,2.3c0.6,0.4,1.7,0.5,2.6,0.8c0.8,0.1,0.6,0.1,0.9,0.6c0.2,0.4,1.4,0.7,2.4,0.8C138,172.2,138.1,176,138.2,179.6z
   M86,172.5c-0.1-0.3-0.4-0.8-0.9-1.3c-0.8-1.1,0.6-0.5,2.3-0.3c1.6,0.2,1.1,0,1.5-1c0.5-1.1,1-1.2,1.7-1.8c0.6-0.6-0.2-0.6,0.9-1.5
  c0,0,0.7-0.6,1.1-2c1.8,4.1,3.7,7.9,5.7,11.2C94,174.8,89.9,173.8,86,172.5z M83.7,109.1c0-0.1,0-0.2,0-0.3c8.3-0.4,16.6-0.7,23.7-1
  c0,0.4,0,0.9,0,1.3c0,7.4,0.2,15.8,0.9,24.6c-4.5-0.3-8.8-0.6-12.9-0.9c-0.1-0.2-0.2-0.3-0.4-0.5c-0.6-0.4-0.6,0-0.9-0.3
  c-0.2-0.4-1.2-0.4-1.7-0.3c-0.5,0.1-0.7,0-0.5-0.4c0.1-0.3,0-0.2-0.4-0.5c-0.3-0.3-0.4-0.9-0.5-1.5c-0.2-0.6-0.5-0.5-1-0.8
  c-0.3-0.2-3-0.6-5.4-1C83.9,121,83.7,114.8,83.7,109.1z M78.8,69.5c-0.3-1.2-0.3-2.3-1.2-3.1c-0.6-0.7-0.5-0.5-0.6-1.6
  c3.3-1.1,6.6-2.1,10-2.9c-0.4,1.8-0.7,3.7-1,5.5c-0.4,0.6-0.7,1.2-0.9,2c-0.1,0.5,0.2,0.9,0.4,1.2c-0.1,0.4-0.1,0.7-0.2,1.1
  c-1.1,0.4-1.1,0.3-1.7,2.7c-1.3,4.5-2.9-1.3-1.5-2.5C83.4,70.6,79,70.7,78.8,69.5z M85.6,57.8c-1-2.3,0.8,1.5,1.9-0.8
  c0.2-0.5,0.3-0.3,0.6,0.1c-0.3,1.2-0.5,2.4-0.8,3.6c-3.6,0.9-7,1.9-10.3,3c0-2.3,4.8-4,6.3-4.9C84.9,58.1,86.2,59.1,85.6,57.8z
   M92,46.9c0.3,0.1,0.7,0.3,1.4,0c1.1-0.5,1.3-1.8,0.5-1.7c-0.5,0.1-1,0.1-1.4,0.2c0.7-2.1,1.4-4.2,2.2-6.2c1.6-0.4,3.2-0.8,4.7-1.2
  c0.1,0.1,0.3,0.2,0.4,0.3c0.8,0.6-0.7,0.5-1,1.5c-0.2,1.1,0.8,1.2,2.5,0.5c0,0,2.5,0.9,1.5-3.1c0.4-0.1,0.7-0.2,1.1-0.2
  c0.3,0.6,0.8,1.4,1.3,1.8c1,1,0.6,1.8-0.3,1.2c-0.8-0.7-0.9-1-1.2,0.1c-0.2,1.2,0.8,2.5-0.3,1.4c-1-1-2.4-0.4-2.1,0.9
  c0.2,1.2-0.4,1.7-1.2-0.3c0,0,0,0,0,0c-0.1,0.3-0.4,0.5-1.1,0.4c-2.3-0.2-0.2,1.3,1.9,2.7c0,0,1.9,1.4,1.8,0.4
  c-0.1-0.9,2.6-1.4,3.5-1.5c0.8-0.2-0.2-1.8,1.2-1.3c1.2,0.5,3,0.2,5.1-0.2c-0.1,0.5-0.2,0.9-0.2,1.4c-0.7,0-1.4,0-2.1,0.1
  c-1.2,0.1-0.7,0.8,0.1,0.6c0.9-0.1,1.1,0.2,0.1,0.6c-0.9,0.4-0.7,0.2-2.1-0.1c-1.4-0.3-1.8,1.2-0.3,2.1c1.5,0.7,0.8,0.8-0.8,0.4
  c-1.5-0.5-1.4-0.2-0.8,0.6c0.7,0.7,0.2,1.2,0.9,1.4c0.6,0.2,1.8,0.2,2.5,2.3c0.4,1.3,0,2.8-0.7,4.1c-3.3,0.5-6.6,1-9.7,1.6
  c0.2-0.3,0.3-0.8,0.4-1.5c0.6-3.2-1.1-1.6-0.9-2.7c0.3-1.1,0.5-2.2-0.9-1.9c-1.4,0.4-1.5-0.6-0.5-1.9c1-1.3-1.8-1.7-3-0.1
  c-1.2,1.6-2.2,1.9-0.8,0.1c1.4-1.8,1.3-2.1,0.5-2.1c-0.8,0-2.5,1.5-2.3,2.6c0.3,1-0.9,0.1-0.8,1c0.1,1,1.7,2.1,3.4,3
  c1.6,0.8,1,1.2,0.9,3.1c0,0.5-0.1,0.9-0.1,1.3c-2.4,0.5-4.7,1-7,1.6c0.2-0.9,0.4-1.8,0.6-2.7c0.4,0.1,0.8,0,1.5-0.3
  c1.3-0.6,0.2-0.8,1.2-1.5c0.9-0.7,1.7-1.2,0.9-2.1c-0.9-0.8-1.1,0.1-2.7,1c-0.1,0-0.1,0.1-0.1,0.1C90.4,52.2,91.1,49.5,92,46.9z
   M92.1,38.9c0-0.1,0.1-0.2,0.2-0.4c0.9-1.2,0.3-1.2-0.8-0.3c-1.2,0.9-1,0.1-0.8-1.2c0,0,0.3-0.9-1.5-0.4c1.1-0.3,0.5,2-0.4,1.5
  c0.5,0.3-0.1,0.7,0.1,1.5c0,0,0,0,0,0c-1.3,0.4-2.5,0.8-3.7,1.3c0,0,0,0,0-0.1c0-0.3,1.2-0.5,1-0.9c0,0,0-0.1-0.1-0.1
  c0-0.1-0.1-0.1-0.2-0.1c-0.4,0-1.3,0.2-2.1,0.6C82.8,41,82,41.5,82,41.8c0,0,0,0.1,0,0.1c0.1,0.1,0.2,0.2,0.2,0.3
  c-1.6,0.6-3.1,1.2-4.7,1.9c0.9-1.8,0.7-1.6,0.3-1.9c-0.6-0.3,0.6-1.2,0.6-1.2s-0.8-0.2,0-1.2c0.6-0.8,0.8-1,0.9-1
  c0,0-0.2,0.1-0.9,0.5c-0.4,0.2-0.6,0.1-0.7,0c2.6-4.8,5.7-9.5,9.2-13.7c5.1-2.2,10.6-4.1,16.7-5.6c-4,5.5-7.2,11.7-9.9,18.4
  C93.3,38.6,92.7,38.8,92.1,38.9z M89.4,39.7c-0.1,0-0.2,0.1-0.3,0.1C89.1,39.7,89.2,39.6,89.4,39.7z M81.1,44.4
  c-0.2,0.1-0.7,0.2-1.4,0.1c-0.1,0-0.2,0-0.3,0c0.5-0.2,1.1-0.5,1.6-0.7c0.1,0.1,0.2,0.2,0.2,0.3C81.2,44.3,81.2,44.4,81.1,44.4z
   M122,70.2c-1-0.5-1.3-0.6-1.4-0.6c0.2,0,2.1,0,2.9,0.4c0.8,0.4,1.2,0.2,0.1-1.4c-1.2-1.6-0.1-1.1,0.5-0.9c0.7,0.2-0.4-1.2,0.6-1
  c1.1,0.3-0.1-0.7,0.6-0.8c0.7-0.2,1.1-0.3,0.4-1.3c-0.8-0.9,0.8-0.5,0.8-1.3c0-0.8-0.8-0.8,0.1-1.5c0.9-0.6,0.3-1-0.3-1.5
  c-0.6-0.5,0.9-1.4,2.1-1.9c1.3-0.6,1.5-1.4,2.6-1.8c1.2-0.3,1.5,0,1.4-1c0-0.1,0-0.2-0.1-0.2c0.7,0,1.4-0.1,2-0.1c0,0,0,0,0,0
  c0.4,8.1,0.7,16.2,1,23.3c-4.4,0.2-8.7,0.4-12.9,0.7c0.2-0.1,0.3-0.2,0.4-0.4c0.6-0.5-0.3-1.5-0.6-2.5c-0.4-1-0.9-0.1-1.3,0.4
  c-0.5,0.6-0.8,0.8-0.9,0.3c-0.1-0.5-0.5-1.4-0.8-0.9c-0.3,0.5-0.9,1.3-0.8,0.5c0-0.9-0.6-0.9-1.7-0.6c-1.2,0.3-0.7,1.5,0.4,1.3
  c1-0.3-0.5,0.4-0.4,1.8c0,0.2,0.1,0.4,0.1,0.5c-2.7,0.2-5.3,0.4-7.8,0.7c0.1-2,0.2-3.9,0.4-5.8c0.1-0.2,0.3-0.3,0.6-0.6
  c0,0,1,0.1,1.2-1.2c0.3-1.3,0.1-1.4,1.8-1c1.6,0.4,0.9,0.8,2.3,0c1.4-0.7,2.3-1.4,3.7-0.8c1.5,0.6,1.5,0.9,3.4,0.6
  C124.6,71,123.7,71.1,122,70.2z M133,140.6C133,140.6,133,140.6,133,140.6c-0.6,0.1-0.4,0.2-0.8,0.5c-0.4,0.3-0.4,0-0.8,0.1
  c-0.3,0.2-0.5,0-0.6,0.5c-0.1,0.5-0.3,0.4-0.1,0.9c0.2,0.4,0.6-0.3,0.1,0.9c-0.5,1.1-0.8,1-0.8,2.2c0,1.3-0.1,1.3,0.3,2.3
  c0.4,1,0.5,0.4,0,1.5c0,0-0.5,1-0.9,1.7c-0.4,0.7-0.4,0.9-0.3,1.3c0.2,0.5,0,0.7-0.1,1.3c0,0.5,0,1,0.1,1.4c0.1,0.4,0.1,0.3-0.1,1
  c-0.3,0.8-0.6,1.1-0.3,1.7c0.1,0.3,0.3,0.5,0.5,0.7c-5.6-0.2-11.1-0.5-16.3-0.9c-1.4-6.7-2.6-14.4-3.4-23c5.4,0.3,11,0.5,16.8,0.6
  c-0.1,0.1-0.1,0.3-0.1,0.5c0.2,0.6,0.8,0.5,1,2.1c0,0-0.2,0.7,0.5,1.4c0.6,0.7,0.3,2.5,1,2.3c0.7-0.3,0.1-0.1,0.8-0.6
  c0.8-0.5,0.4-0.4,0.9,0c0.4,0.4,0.4-0.3,0.6-0.5c0.3-0.6,0.8-1.9,1.3-2.3c0,0-0.1,0.3,0.3-1c0.2-0.9,0.3-1.3,0.1-1.7
  c1.1,0,2.2,0,3.3,0c-0.3,0.2-0.7,0.4-1.2,0.9c-0.7,0.8-0.9,0.9-1.2,1.4C134.5,136.3,133.2,142.6,133,140.6z M101.2,154.7
  c0.3-0.4,0.4-0.6,0.1-0.9c-0.3-0.4-0.1-1.1,0.5-1c0.7,0,0.9-0.9,1.3-1.8c0.4-0.9,0.9-1,1.5-1.7l0.3-0.6c0.2-1.4,0.8,0.2,0.1-2.2
  c-0.4-1.8-0.8-0.5-1.4-1.3c-2-2.3-2.8-2.6-3.6-2.7c-0.9-0.2-1.2-0.5-1.8-0.8c-0.7-0.4-0.1-0.9-0.9-1c-0.7-0.2-1.3-1.1-2.1-1
  c-1.6,0,2.5-1.7,0.5-1.9l0.6-0.5c0.7-0.1,0-1.7-0.3-2.5c-0.1-0.5,0-0.6-0.1-0.8c3.9,0.3,8,0.6,12.3,0.9c0.7,7.6,1.7,15.3,3.3,23
  c-3.6-0.3-7.1-0.7-10.5-1.2c0.1-0.2,0.2-0.4,0.3-0.6C101.6,155.3,101,155,101.2,154.7z M84.7,86.4c0.6-0.1,1.4-0.2,1.8-0.1
  c0.6,0.2,0.9,0,1.7,0.1c0.8,0.2,0.9-0.3,0.9-0.3l0.1,0.4c0,0-1.1,0.1-1.5,0.6c-0.5,0.4,0.3,0.8,0.9,0.4c0.6-0.5,0.5,0,1,0
  c1.9-0.1,1-0.7,2.3-0.4c0.3,0.1,0.4,0.1,0.4,0.1c-0.1-0.1-0.5-0.4-0.2-1.2c0.3-1-0.1,0.3-1.2,0.4c-1.1,0.1-1.1-0.3-1.4-1
  c-0.3-0.7,0.1-1.3,0-1.8c0-0.1,0-0.1,0-0.2c5.9-0.9,12.1-1.7,18.6-2.4c-0.4,7.7-0.7,16.2-0.8,25.6c-7.2,0.3-15.4,0.7-23.7,1
  C83.8,101.1,84.1,93.8,84.7,86.4z M90.6,82.3c-0.3-0.4-1.3-0.7-2.9-0.3c-0.5,0.1-1.5,0.4-2.6,0.6c0,0,0-0.1,0-0.1
  c1.3-0.4,2.6-0.9,3.4-1.5c0.4-0.3,0.8,0.1,1.3-0.3c0.5-0.3,2,0.5,3.3,1.1C92.2,82.1,91.4,82.2,90.6,82.3z M97.4,81.3
  c0-0.1,0.1-0.2,0.1-0.3c0.2-0.4,0.5-0.6,0-0.9c-0.4-0.4-0.2-0.7-0.5-1.7c-0.4-1.1-0.9-1.6-1.2-2.2c-0.3-0.5,0.1-1.4,0.1-3.6
  C95.9,70.3,94,70,94,70s0.5,1.2-0.8,1.8c-1.2,0.6-0.2-0.3-0.6-0.8c-0.4-0.5-2.4-0.7-1.7-1.9c0.7-1.1,0.5-1,0.1-1.8
  c-0.5-0.7,0-1.2-1.5-2.3l-1.4-0.9c-0.1,0.5-0.4,0.9-0.6,1.3c0.2-1.3,0.5-2.5,0.7-3.8c1.9-0.5,3.8-0.9,5.7-1.3c0,0-0.1,0-0.1,0.1
  c-1.5,0.6-1.2,0.8-3.1,0.9c-1.9,0,1.3,0.4,1.4,2.8c0,1.5,0.6,2.4,1.8,3.5c0,0,0.4,0.3,0.1-1.3c-0.2-1.5,0.4-1.2,0.5-0.4
  c0.1,0.9,2,2.1,1.7-0.5c-0.4-2.5,0.2-3.9,0.9-2.2c0.6,1.6-0.6,3.1,1.3,1.3c1.8-1.8,0.8-0.9,0-3.7c-0.2-0.7-0.2-1.1-0.1-1.3
  c3.4-0.7,6.8-1.3,10.2-1.8c-0.2,0.2-0.3,0.5-0.5,0.7c-1.2,1.5-1.2,1.5-0.1,1.3c0.9-0.3,0.2,0.8,0.3,2.6c0.1,1.7-0.6,1.4-1.7,1.8
  c-1.2,0.5-1.1,0.1-1.7,1.2c-0.6,1.1-1.3,1.2-0.9,2.6c0.3,1.4,1.5,1.8,1.5,3.7c0,2.1,0.7,3,1.2,3.5c0.5,0.5,0.7,0.2,0.8,1.2
  c0.1,0.7,0.7,0.2,1.3-0.3c-0.1,1.4-0.2,2.8-0.3,4.3C104.5,80.5,100.9,80.9,97.4,81.3z M88.7,54.7c-0.1,0.3-0.1,0.5-0.2,0.8
  C88.2,55.6,88.2,55.4,88.7,54.7z M129.3,112.4c0.2,0.1,0.3-0.1,0.4,0.1c0.1,0.3,0.3,0.6,0.5,0.8c0.3,0.1,0.3-0.3,0.5,0.4
  c0.1,0.6,0.1,0.7,0.6,0.9c0.4,0.1,0.5,0.1,0.6,0c0.2-0.1,0.4-0.2,0.5-0.8c0-0.5,0-0.4,0.1-0.8c0.2-0.3,0.3-0.4,0.4-1
  c0-0.6,0.1-0.6,0.1-0.6s0.2,0.2,0.3,0.8c0.2,0.6,0.1,0.8,0.6,1c0.7,0.3,0.6-0.1,0.8,0.3c0.2,0.4,0.2,0.6,0.5,1
  c0.4,0.4,0.5,0.3,0.5,0.3s0.2-0.3,0.4-0.6c0.1-0.2,0.2-0.6,0.3-1c0,1,0,2,0.1,3.1c-0.1,0.1-0.2,0.1-0.4,0.1c-0.4-0.1-0.7,0-1,0.5
  c-0.3,0.4-0.4,0.4-0.8,0.3c-0.5-0.1-0.5-0.4-0.5-1c-0.1-0.6,0.1-0.9-0.3-1.2c-0.3-0.2-0.4-0.2-0.8,0c-0.3,0.8-0.5,0.6-0.3,1.2
  c0.2,0.7,0,0.5,0.5,1.2c0.5,0.7,1.1,1,0.4,1.5c-0.8,0.5-1.2,0.7-1.4,1.4c-0.2,0.9-0.3,0.9-0.3,0.9v-0.8l-0.3,0.6c0,0,0.1,0.1,0,0.8
  c-0.2,0.6-0.3,1.9-0.9,2.5c-0.6,0.5-0.1,2-1.2,2.2c-0.4,0.1-0.8,0.7,0,0.9c0,0-0.1,0.6-0.8,0.6c-2.6,0.2-1.7,1.6-1.2,1.7
  c-0.2,0.3-0.4,0.5,0.4,0.4c1.2-0.2,2-0.1,2.1,1.8c0.1,1.8-0.2,1.3-2.5,2.7c-6.4-0.1-12.5-0.3-18.3-0.7c-0.6-7.5-1-15.6-0.9-24.6
  c0-0.4,0-0.9,0-1.3c10.5-0.4,18.5-0.7,21-0.7c0.5,0,1.2,0,2.1,0c-0.1,0.3-0.2,0.7-0.3,1c-0.1,0.6-0.5,1.1-0.8,1.3
  c-0.2,0.3-0.9,1.5-0.9,1.9C129.5,111.8,129.2,112.3,129.3,112.4z M136.3,108.2c-0.4-0.2-0.4-0.6-0.5-1.3c0.2,0,0.4,0,0.6,0
  c0,0.4,0,0.9,0,1.3C136.4,108.3,136.4,108.2,136.3,108.2z M136.5,110.1c0,0.3,0,0.7,0,1.1c-0.1-0.2-0.1-0.3-0.1-0.6
  C136.4,110.4,136.5,110.2,136.5,110.1z M135.8,105.9c0-0.6,0.2-0.8,0.4-1.3c0.1-0.2,0.2-0.3,0.3-0.5c0,0.5,0,1.1,0,1.7
  C136.2,105.9,136,105.9,135.8,105.9z M132.3,134.5c0.1-0.4,0.4-0.8,0.7-1.4c0.3-1,0.7-1.5,0.3-2.2c-0.3-0.7-0.1-0.6,0.5-0.9
  c0.7-0.4,0.8-0.3,1.2-0.9c0.4-0.6,1.1-1.3,1.3-1.3l0.3-0.5c0.1-0.3,0.3-0.5,0.5-0.6c0.1,2.5,0.1,5.1,0.2,7.8c0,0-0.1,0-0.1,0
  C135.4,134.5,133.8,134.5,132.3,134.5z M136.2,94.3c0-0.1,0-0.2,0-0.2c0,0.1,0,0.2,0,0.3C136.2,94.4,136.2,94.3,136.2,94.3z
   M136.1,93.9c-0.2,0.3-0.5,1.2-1,1.7c-0.4,0.6-0.4,1.3-0.5,1.5c-0.2,0.3-0.8,0.5-0.8,1c-0.1,0.5-0.6,1.1-0.9,2.3
  c-0.4,1.2,0.1,0.9-0.3,1.5c0,0-0.4,0.9-0.5,2.6c0,0.5-0.1,1-0.2,1.4c-1,0-1.8,0-2.4,0c-2.5,0-10.5,0.3-21,0.7
  c0.1-9.4,0.4-17.9,0.8-25.6c3.3-0.3,6.7-0.6,10.2-0.8c0.4,0.3,1.6,0.9,1.9,0.1c0-0.1,0.1-0.2,0.1-0.3c4.6-0.3,9.3-0.6,14.1-0.7
  c0.2,5.6,0.4,10.5,0.6,14.4C136.2,93.8,136.1,93.8,136.1,93.9z M135.6,53.8c-0.3-7-0.6-14.1-0.9-20.6c6.9-0.3,13.3-0.1,19.2,0.5
  c1.6,5.6,3.2,12.4,4.7,20.5c-4.9-0.4-9.7-0.6-14.3-0.6C141.3,53.6,138.4,53.7,135.6,53.8z M106.7,36.5c2.5-0.5,4.9-0.9,7.3-1.3
  c-0.4,1.6-0.7,3.2-1.1,5c-0.4-0.3-0.8-0.7-1.2-1c-1.7-1.6-0.5-1.2-1.5-2.2C109.4,36.2,108.5,36.7,106.7,36.5z M89.1,53
  c-0.5,0.2-1,0.7-1,0.7s0.7-2,1.4-3.4c0.3-0.6,0.5-0.9,0.7-1.2C89.8,50.4,89.4,51.7,89.1,53z M83.9,82.9C83.9,82.9,83.9,83,83.9,82.9
  c-0.2,0.1-0.4,0.1-0.6,0.2C83.6,83,83.7,83,83.9,82.9z M93.1,162.8c0.8-1.4,3.5-1.8,5.3-1.7c1,0.1,0.8-0.4,0.9-1.2l0.3-0.5
  c0.6-0.5,0.7-0.4,1-1.4c0-0.2,0.1-0.3,0.2-0.5c3.6,0.5,7.4,0.9,11.2,1.3c1.5,6.8,3.4,13.5,5.9,19.8c-6.3-0.6-12.3-1.5-18.1-2.6
  C97.1,171.8,94.9,167.4,93.1,162.8z M138,102.4c0,0.3-0.2,0.9-0.4,1.5c0,0.1-0.1,0.1-0.1,0.2c0-1,0-1.9,0-2.4c0-0.4,0-1,0-1.6
  c0.2-0.1,0.4-0.2,0.6-0.2c0.7,0,0.6,0.8,0.4,1.3C138.2,101.8,137.9,102.2,138,102.4z M137.6,105.8
  C137.6,105.8,137.6,105.8,137.6,105.8c-0.1-0.2-0.1-0.4-0.1-0.6c0,0.1,0.1,0.2,0.1,0.3C137.6,105.7,137.6,105.8,137.6,105.8z
   M139.6,105.8c0.1,0,0.2-0.1,0.3-0.2c0.6-0.5,1-0.6,1.3-0.8l-0.1,0.9c0,0-0.1,0.1-0.1,0.1C140.5,105.7,140.1,105.8,139.6,105.8z
   M160,55.4c0.1,0,0.2,0,0.4,0c0,0,0,0.1,0,0.1c0,0.3-0.1,0.6-0.2,0.9C160.1,56.1,160,55.8,160,55.4z M160.7,60
  c0.4,0.3,0.6,0.6,0.2,1.4C160.9,61,160.8,60.5,160.7,60z M160.6,54.4c-0.3,0-0.6-0.1-0.8-0.1c-1.4-8-3-14.8-4.7-20.5
  c4.8,0.6,9.3,1.4,13.6,2.5c0.5,0.6,1.1,1.3,0.7,1.6c-0.9,0.6-1.5,1.5-0.8,2.7c0.8,1.4,0,1.2,1.7,1.8c1.7,0.5,1.8,2.6,1.2,3.2
  c-0.7,0.5-0.4,3.1-3.1,2.7c-2.7-0.4-3.9-0.6-3,1.4c0.9,2.1,1.7,2.4,0.4,2.8c-0.5,0.2-0.6,1.2-0.5,2.4c-0.9-0.1-1.8-0.2-2.7-0.3
  C161.6,53.8,161,53.6,160.6,54.4z M168.4,23.5c-0.1,0-0.1,0-0.2-0.1c-0.6-0.9-1.3-1.9-2-2.8c8,2.3,15.1,5.5,21.3,9.1
  c1.6,2.1,3.1,4.2,4.4,6.4c-1.3,0.1-4-0.3-5.4-1c-3-1.7-2.1-2.6-2.1-2.6s-3-1.4-4.5-2.3c-1.6-1-1.9-1.9-1.9-1.9s-1.1-0.1-2.5,0
  c-1.3,0-5.8-1.2-4.3-2.1c1.5-0.8,1.5-1.6-0.6-1.7c-0.5,0-0.7,0-0.7,0C170.2,24.5,170.9,24.3,168.4,23.5z M233.5,96.2
  c0.1,0.6,0.1,1.1,0.1,1.7c-1-2.1-3-6-6.6-10.7c-0.4-2.8-0.9-5.5-1.5-8.1c5.4,9.4,7.4,16.6,7.5,16.7
  C233.1,96.1,233.3,96.2,233.5,96.2z M221.6,117.5c-0.4,0.2-0.6,0.5-1.2,0.8c-0.2,0.1-0.3,0.1-0.4,0.1c2-1.2,3.7-2.4,5.2-3.6
  c0,0.2,0,0.3,0,0.5c-0.1,0.7-0.1,0.3-0.3,0.9c0,0.5,0.1,0.6,0.3,1c0.1,0.4,0.2,0.5,0.5,1c0.2,0.6-0.1,0.7-0.1,1.2
  c-0.1,0.6-0.2,0.7-0.6,1c-0.3,0.2-0.5,0.1-1.5-0.3c-1-0.3-1.9,0.7-1.5-1.4C221.8,118.3,222.4,117.1,221.6,117.5z M218.2,121.1
  c0.1,0.4,0.1,0.4-0.1,0.8c-0.3,0.3,0.1,0.5,0,0.9c0,0.5-0.4,0.3-0.8,0.4c-0.3,0-0.2-0.1-0.5-0.3c-0.3-0.1-0.3,0-0.8,0.3
  c-0.3,0.3-0.2,0.5-0.4,0.9c-0.2,0.4,0.1,0.2-0.1,0.6c-0.3,0.5-0.2,0.5-0.1,0.8c0.1,0.4,0.2,0.1,0,0.4c-0.1,0.4-0.2,0.4-0.4,0.9
  c-0.1,0.5,0,0.4-0.3,0.5c-0.4,0-0.2-0.1-0.4-0.3c0,0,0,0.9-0.1,2.1c0,1.3-1.2,2-2.1,3.5c-0.2,0.5-0.5,0.2-0.9,0.6
  c-0.4,0.5-0.2,0.6-0.4,1c-0.1,0.1-0.1,0.3-0.2,0.4c0.7-3.8,1.2-7.8,1.5-12c1.4-0.7,2.8-1.4,4.1-2.1c1.1-0.6,2.1-1.2,3.1-1.8
  c0,0.1,0,0.1,0.1,0.2c0.1,0.2-0.2,0.3-0.5,0.8c-0.4,0.5-0.3,0.4-0.5,0.8C218,120.9,218.1,120.8,218.2,121.1z M202.2,119.3
  c-0.9-0.9-1.3-1.7-2.3-1.8c-2.1,0-0.8-1.4-1.7-2.3c-0.9-0.8-0.9-2.7-0.9-2.7s0.4,0.5,1.5,0.5c1.2-0.1,2.6,1.3,2.6,1.3s0.5-1.5,1-2.7
  c0.6-1.2,0.4-3.7-1.3-4.1c-1.7-0.6-2.7-1-2.2-2.6c0,0,0,0,0,0c4.3-0.2,8.4-0.3,12.2-0.4c0,0.4,0.1,0.8,0.1,1.3
  c0.3,5.7,0.3,11.1-0.1,16.2c-2.2,1-4.6,2-7.3,3c-0.1-0.2-0.4-0.7-0.5-1.1c-0.2-0.6-0.1-0.2-0.8-0.5c-0.5-0.2-0.4-0.1-0.5-0.4
  c-0.1-0.3,0-0.4-0.4-0.3c-0.4,0.1-0.3,0.2-0.4,0c-0.1-0.2,0.1-0.5-0.3-0.8c-0.4-0.1-0.5-0.1-0.5-0.1v-0.4c0,0-0.5,0-1.4,0
  c-0.8,0.1-0.4,0.2-0.8-0.1c-0.3-0.2-0.3-0.2-0.3-0.2c-0.1,0-0.6,0.1-1,0c-0.6-0.2-0.4-0.4-0.4-0.4s-0.2,0.1-0.9,0.5
  c-0.7,0.3-0.6,0-0.6,0s-0.1,0.2-0.1,0.5c0,0.3,0.4,0.1,1.2,0.4c0.7,0.4,0.5,0.2,0.6,0.4c0.1,0.2,0.1,0.3,0.6,0.5
  c0.4,0.1,1,0.5,1.3,1c0.3,0.5,1.6,1.2,2.2,1.7c0.1,0.1,0.3,0.2,0.4,0.2c-3.4,1.2-7.1,2.3-11.3,3.3c0.5-6.7,0.6-13.1,0.3-19
  c0.9,0.2,1.9,0.6,2.1,1.6c0.4,1.4,0.7,2.3,1.7,0.6c0.9-1.6,0.5-0.6,1.4,0.3c0.9,1,1,2.3,1.5,3.9c0.5,1.4,1.3,1.3,2.1,1.5
  c0.8,0.2,0.3,2.4,1.9,2.3c1.4,0,1.8-0.3,1.9-0.4C203.1,120,202.9,119.9,202.2,119.3z M206.6,83.7c-0.9-2.4-3.2-1.9-2.8-2.8
  c0.4-0.8,0.5-1.2,0.3-2.1c-0.3-1-1.8-8.6-0.9-9.5c0.2-0.2,0.4-0.4,0.6-0.7c0.8,0.4,1.5,0.9,2.2,1.3c1,4,1.9,8,2.6,12
  c-0.5,0.3-0.7,0.6-1,1.5c-0.1,0.4-0.2,0.6-0.2,0.7c0,0,0.1,0.1,0.4,0c0.2-0.3,0.4-0.5,0.4-0.5s-0.5-0.2,0-0.5
  c0.4-0.1,0.5-0.2,0.6-0.5c0.3,1.6,0.5,3.2,0.8,4.8c-3.2-1.2-6.5-2.2-9.8-3.2c0.2-1.4,0.5-2,0.9-0.5c0.6,1.8,1.5-2.8,2.1-1.5
  c0.6,1.2,0.2,1.7,1.3,0.9c1-0.7,0.9,0.8,1.4,1.9C205.8,86.1,206.9,84.5,206.6,83.7z M204.5,67.8c0.2-0.3,0.5-0.5,0.7-0.8
  c0.1,0.5,0.3,1,0.4,1.5C205.3,68.2,204.9,68,204.5,67.8z M233.8,100.4c0,0.6,0,1.1,0.1,1.7c-0.8-0.9-2.6-2.8-5.7-5
  c-0.2-2.6-0.4-5.1-0.7-7.6c4.3,6,6,10.5,6,10.5C233.4,100.2,233.6,100.3,233.8,100.4z M228.2,98.5c2.3,1.8,3.8,3.2,4.6,4
  c-0.9,0-2.5,0.1-4.4,0.2C228.4,101.3,228.3,99.9,228.2,98.5z M227.4,105.7c0,0.7,0,1.4,0,2.1c0-0.1,0-0.2-0.1-0.3
  c-0.2-0.3-0.3-0.1-0.6,0c-0.4,0-0.7,0-1.3,0.3c-0.5,0.2-0.5-0.1-0.9,0c-0.5,0.1-0.5,0.4-0.5,0.4s0,0.1-0.5,0.1
  c-0.6,0-0.4-0.1-0.8,0.1c-0.5,0.3-0.4,0.2-0.5,0.6c-0.2,0.5-0.1,0.3-0.5,0.5c-0.4,0.2-0.2,0.2-0.3,0.5c-0.1,0.4,0,0.4-0.3,0.8
  c-0.3,0.5-0.2,0.2-0.4,0.1c-0.2-0.2,0-0.4-0.4-0.1c-0.4,0.2-0.2,0.1-0.3-0.3c-0.2-0.2-0.2-0.3-0.5-0.6c0,0-0.1-0.2-0.4-0.3
  c-0.4,0-0.3,0.1-0.8,0.4c-0.4,0.3-0.1,0.3-0.4,0.8c-0.3,0.3-0.2,0.3,0,0.6c0,0.3,0.2,0.1,0.6,0c0.3-0.2,0.4-0.4,0.6-0.1
  c0.2,0.2,0,0.3-0.4,0.6c-0.5,0.4,0,0.2,0.1,0.3c0.2,0.1,0.3,0,0.4,0.5c0.2,0.5,0.3,0,0.5-0.4c0.2-0.4,0.3-0.5,0.3-0.5s1-0.2,1.7-0.1
  c0.7,0,0.6,0.1,1,0.1c0.3,0.1,0.7,0.6,0.8,0.9c-0.1,0.3,0,0.5,0,0.5l-0.3,0.5c0,0,0.4-0.1,0.6-0.5c0.3-0.3,0.5-0.2,0.9-0.4
  c0.5-0.2,0.4,0,0.5,0.1c0,0.1,0.1,0.1,0.1,0.1c-3.2,2.6-7.5,5.5-13.3,8.3c0.3-5,0.3-10.2,0-15.8c0-0.4,0-0.8-0.1-1.2
  c6.1-0.2,11.3-0.4,15.1-0.5C227.4,104.4,227.4,105,227.4,105.7z M212.2,103.3c-0.3-4.5-0.8-9.3-1.4-14.2c7.4,2.9,12.7,6,16.3,8.6
  c0.1,1.7,0.2,3.3,0.2,5.1C223.5,102.9,218.3,103.1,212.2,103.3z M214.3,89.3c-1.2-0.5-2.4-1-3.7-1.5c-0.2-1.6-0.5-3.3-0.8-4.9
  c0,0,0,0,0,0c0.2,0.3,0-0.1,0.1-0.6c0.1-0.5,0.1-0.3,0.3-0.6c0.1-0.3-0.2-0.2-0.3-0.4c0-0.2,0.3-0.2,0.5-0.3c0.3,0,0.6-0.3,0.5-0.6
  c0-0.3,0.1-0.2,0.3-0.1c0.1,0.2,0.1,0.2,0.4-0.1c0.4-0.2,0.1-0.3-0.1-1.2c-0.2-0.7,0-0.5-0.1-0.9c-0.2-0.4-0.2-0.4-0.5-0.9
  c-0.2-0.2-0.6-2.5-1-4.7c1.6,1.1,3.1,2.3,4.5,3.4c5,4.1,8.8,8.2,11.6,11.9c0.4,2.8,0.7,5.6,0.9,8.5
  C223.9,94.1,219.7,91.7,214.3,89.3z M210,78.6c0,1.1-0.1,1-0.4,1.3c-0.3,0.3-0.1,0.4-0.3,0c0-0.1,0-0.1,0-0.2c0-0.3,0-0.5,0-0.5
  s0,0-0.1,0c-0.5-2.8-1.1-5.6-1.8-8.5c0.4,0.3,0.8,0.5,1.2,0.8C209.2,74.4,210,78,210,78.6z M200.9,85.8c-1,0.7-1.8,1.6-1.5-0.2
  c0-0.1,0-0.2,0-0.3C200,85.5,200.4,85.7,200.9,85.8z M200.8,103.2c1,1,0.5-0.9,1.3-2.2c0.9-1.4,1.9-2.1,2.6-4.5
  c0.6-2.3-0.5-0.5,0.1-2.3c0.7-1.7,0.2-4.1-0.5-3c-0.7,1.1,0,0.2-0.1-1.2c-0.2-1.3-1.5-0.7-2.2-1.5c-0.6-0.8-0.4-1.7-0.2-2.4
  c2.8,0.8,5.4,1.7,7.8,2.6c0.7,5.1,1.2,10,1.5,14.6c-3.7,0.1-7.6,0.3-11.7,0.4C199.8,102.8,200.2,102.5,200.8,103.2z M190,130.3
  c4.7-1.1,9.4-2.5,13.9-4.1l-0.1,0.1c0,0,0.9,0.5,1.4,0.4c0.4-0.2,0.9-0.8,1.3-1c0.4-0.2,0.6,0.1,0.9,0c0.3-0.1,1-0.6,2.1-1.2
  c1-0.7,0.4-0.3,0.5-0.6c0-0.1,0-0.1,0-0.1c0.4-0.2,0.7-0.3,1.1-0.5c-0.5,5.9-1.4,11.5-2.6,16.6c-6.8,4.9-14.3,8.6-21.9,11.3
  C188.4,144.1,189.4,137.1,190,130.3z M210.2,137c0.1,0,0.1,0.1,0.2,0.4c0.1,0.3,0.3,0.4,0.5,0.7c-0.3,0.3-0.7,0.5-1,0.8
  C210,138.3,210.1,137.6,210.2,137z M227.2,113.2c0,0.9-0.1,1.8-0.2,2.7c-0.1,0-0.2-0.1-0.3-0.1c-0.4-0.1-0.6-1.1-0.8-1.5
  c0,0,0,0,0,0C226.4,113.9,226.8,113.6,227.2,113.2z M226.8,112.1c0-0.1-0.1-0.1-0.1-0.1l-0.3-0.1c0,0,0.4,0,0.4-0.4
  c0-0.4,0.1-0.5,0.4-0.8c0,0.3,0,0.7,0,1C227.2,111.8,227,112,226.8,112.1z M228.4,110.4C228.4,110.4,228.4,110.4,228.4,110.4
  c0.1,0,0.1,0,0.2,0c-0.1,0.1-0.1,0.1-0.2,0.2C228.4,110.6,228.4,110.5,228.4,110.4z M229.6,109.3c-0.3-0.1-0.2,0-0.4-0.5
  c-0.1-0.5-0.1-0.4-0.4-0.8c-0.1-0.1-0.2-0.1-0.4,0c0-0.8,0-1.5,0-2.3c0-0.6,0-1.2,0-1.8c3.1-0.1,5-0.2,5.5-0.2c0,0.2,0,0.5,0,0.7
  c-0.2,0-0.4,0.1-0.5,0.3c0,0.1-1,1.9-3.6,4.7C229.7,109.3,229.7,109.3,229.6,109.3z M225.7,85.6c-2.7-3.3-6.2-7-10.6-10.5
  c-1.8-1.4-3.6-2.8-5.5-4.1c-0.3-1.5-0.4-2.8-0.5-3c-0.1-0.5-0.3-0.5-0.8-0.9c-0.5-0.4-0.4-0.3-0.4-0.3l-0.3,0.1l-0.3,0.5
  c0,0,0.3,1,0.6,2.5c-0.4-0.3-0.8-0.5-1.2-0.8c-0.3-1.2-0.6-2.4-1-3.6c0.1-0.3,0.1-0.6-0.1-0.8c-0.4-0.7-0.1-0.8-0.2-1.2
  c0.7,0.4,1.9,1.1,3,1.9c-0.7,0.4-2,1-2.1,1.3c0,0.5,0.3,0.2,0.5,0.1c0.3-0.2,0.3-0.3,0.1-0.5c-0.1-0.1,0.9-0.4,1.7-0.7
  c0.6,0.5,0.8,1,0.8,1.5c0.1-0.2,0.2-0.1,0.2-0.1s1.2-0.4-0.4-1.3c-0.1-0.1-0.2-0.1-0.3-0.2c0.3-0.1,0.5-0.2,0.5-0.3
  c0-0.4,0.1-0.5,0.4-0.6c0.3-0.1,0.6,0.1,0.6,0.1s-0.1-0.1-0.4-0.5c-0.4-0.5-0.2-0.6-0.1-1.2c0.1-0.6,0-0.6,0-0.6l-0.6-0.4
  c0,0,0,0.4-0.3,0.8c-0.3,0.3-0.7,0.1-1.3,0.3c-0.6,0.1-0.5-0.1-0.5-0.1l-0.1,0.1c0,0,0.7,0.8,1.1,1.2c-0.9-0.4-2.3-1.1-3.5-1.7
  c-0.1-0.1-0.1-0.2-0.2-0.3c-0.1-0.2-0.1-0.5-0.2-0.7c-0.1-0.7,0.4-1-0.6-1.8c-0.9-2.7-1.9-5.4-3-8.1c5,3.7,9.2,7.6,12.6,11.4
  c4.1,4.5,7.4,9.1,10.1,13.3C224.6,79.2,225.2,82.3,225.7,85.6z M208.8,64.8c0,0,0-0.1,0.1-0.1C208.8,64.7,208.8,64.7,208.8,64.8
  C208.8,64.8,208.8,64.8,208.8,64.8z M208.9,65.2c0,0,0.1-0.1,0.1-0.1C209.1,65.1,209.1,65.2,208.9,65.2
  C209,65.2,209,65.2,208.9,65.2z M202.6,58.6c-1.6-0.9-3.3-1.4-3.2-1c0.3,1.4,0.3,1.7-0.8,1.2c-1.2-0.6-0.2,2.1-1.5-0.8
  c-1.3-3-9.9-10.5-9.7-12.6c0-0.5,0.4-1.1,0.8-1.7c4.1,2.1,7.8,4.3,11.2,6.7C200.6,53,201.7,55.8,202.6,58.6z M189,42.7
  c1.4-1.5,2.8-2.8,1.1-3.4c-2.8-0.9-7.1-2.5-5.2-2.6c2-0.2-2.7-2.2-2.7-2.2s-1.8-1,2.2,0.5c3.2,1.3,6.5,3,9.4,3.9
  c1.8,3.1,3.4,6.2,4.8,9.4C195.7,46.4,192.5,44.5,189,42.7z M193.5,36.4c-1.1-1.8-2.3-3.6-3.5-5.3c4.2,2.6,7.9,5.4,11.3,8.2
  c-0.5-0.2-1.1-0.4-1.9-0.8c-4.8-2-2.5-0.8-4.4-1.4C194.2,36.8,193.8,36.6,193.5,36.4z M163.9,56.1c-0.1-0.1-0.2-0.2-0.2-0.3
  c0.5,0.1,1.1,0.1,1.6,0.2c0.2,1.6,0.6,3.2,0.7,3.6C165.9,59.3,165.5,57.9,163.9,56.1z M169.8,133.8c0.4,0,0.8-0.1,1.2-0.1
  c-0.1,0.2-0.2,0.4-0.4,0.6C170.4,134.2,170.1,134,169.8,133.8z M171.8,132.5c-0.9,0.1-1.7,0.2-2.6,0.3c0.1-1.1,1.5-1.3,1.7-3.1
  c0.2-1.9,1.6-2.4,1.5-3.9c-0.1-1.4,0.3-1.4,0-2.7c-0.4-1.2-2.2,0.6-3,0.1c-0.7-0.4-0.7-2.1-1.3-0.1c-0.7,1.9-0.6,1.8-1.2,1
  c-0.2-0.3-0.5-0.3-0.9-0.3c0-0.3,0-0.7,0-1c1.5,0.3,1.9-1.5,2.7-1.4c1.1,0.2,2-0.1,2.5-0.8c0.4-0.6,1.6-0.3,2.2-1.7
  c0.6-1.3,0.7-0.7,1.8-0.5c0.9,0.2,1.7,0.4,1.8,1.2c0,0.6,1.5,0.5,1.7-0.4c0.1-0.8,0.1-0.9,0.8,0.9c0.7,1.7,0.9,2.1,1.7,2.5
  c0.9,0.2,0.5-0.4,1,0.9c0.5,1.2,1,1.3,1.7,1.8c0.6,0.6,1.5,2.7,2.2,0.3c0.2-0.8,0-0.3,0.1-3.2c0-1-1.7-0.3-0.4-3.9
  c1.2-3.6-0.4-0.5,0.6-2.6c1.1-2.1,0.4-2.9,0.9-3.7c0.5-0.8,1.1-1.9,1.9-2.2c0.3,6.9,0.1,13.4-0.3,19.3c-4.3,1-8.9,1.9-14,2.7
  C174.5,130.8,173.5,130.3,171.8,132.5z M174.9,150.7c-0.2-0.6,0-0.6,0.3-1.3c0.4-0.6,0.3-0.9,0.3-0.9l0.1-0.3c0.1-2-0.1-4,0.3-5
  c0.3-1,0.7-2.6,0.3-4.1c-0.5-1.6-0.2-2.3-0.1-2.8c0-0.1-0.3-0.3-0.8-0.5c0.2-0.8,0.2-1.7,0.1-2.6c4.6-0.7,9.2-1.5,13.7-2.6
  c-0.7,7.8-1.9,14.8-3.5,21c-3.2,1.1-6.4,2.1-9.6,2.9c-0.2-0.1-0.5-0.2-0.6-0.4c-0.4-0.4-0.4-0.8-0.3-1.3
  C175,152.3,175,151.4,174.9,150.7z M181.3,167.1c0.2,0.3,0.4,0.6,0.7,0.8c0.5,0.3,0.9,0.3,0.9,0.3s0.7-1,0.9-1.3
  c0.1-0.3,0.2-0.8,0.1-1.7c0-0.8-0.5-3-0.5-3.6c1.1-3.1,2.1-6.2,2.9-9.3c8.8-3.2,16-7,21.8-11c-1.8,7.1-4.3,13.4-7.1,19
  c-6.1,4.6-13.5,8.8-22.3,12.2C179.6,170.8,180.5,169,181.3,167.1z M209.5,140.5c0.4-0.3,0.8-0.6,1.2-0.9c0,0,0,0,0,0
  c0.3,0.4,0.2,0.2,0.3,0.5c0,0,1.7,3.5,1.5,5.4c0,0.3,0.5,0.1,0.8,0.3c0.3,0.1,0.5-0.3,0.8-0.4c0.4-0.2,0.4-0.7,1.2-1.7
  c0.7-1,0.5-0.6,1.3-1.2c0.8-0.6,0.8-0.4,1.2-1.4c0,0,0.1-2.1,4-4.1c0.7-0.4,1.1-0.6,1.4-0.6c-2.1,3.3-4.5,6.7-7.4,10.2
  c-3.4,4-7.6,8.3-12.7,12.3C205.6,153.4,207.8,147.3,209.5,140.5z M224.6,137.2c0,0,0.1,0.1,0.1,0.2c0.3,0.3,0.3-0.4,0.5-1.2
  c0.2-0.8,0.1-0.7,0.4-0.8c0.3-0.1-0.1,0.7,0,1.4c0,0.7,0,0.4,0.3,0c0.3-0.4,0.4-0.4,0.4-0.4l0.1,0.6c0,0,0.2-0.2,0.4-0.1
  c-1.8,4.7-4.6,11.1-8.8,17.8C220.5,149.6,222.8,143.7,224.6,137.2z M228.4,112.2c0.5-0.5,1-0.9,1.4-1.3c0.2,0,0.4-0.1,0.6-0.2
  c0.4-0.3,0.4-0.2,0.6,0c0.2,0.2,0.4-0.2,0.1-0.5c-0.1-0.2-0.1-0.1-0.5-0.1c1.8-1.9,2.8-3.3,3.3-4.2c0,0.9,0,1.8,0,2.7
  c-0.2,0-0.5,0.1-0.5,0.4c0,0.1-1.2,3.9-4.5,9.3c0-0.1-0.1-0.1-0.1-0.2c-0.3-0.4-0.5-0.7-0.6-0.9
  C228.2,115.6,228.3,113.9,228.4,112.2z M233.3,117.4c-0.2,1.3-0.3,2.7-0.5,4c0,0,0,0,0,0c-0.5,0.3-0.1,0.3-0.4-0.3
  c-0.1-0.2-0.1-0.4-0.2-0.6C232.6,119.4,232.9,118.3,233.3,117.4z M233.1,92.5c-1.3-3.5-3.9-9.6-8.3-16.7c-1.5-5.9-3.3-11.4-5.5-16.4
  c5.8,8.5,9.5,16.5,11.7,22C231.9,85.1,232.6,88.7,233.1,92.5z M223,72.9c-2.3-3.5-5.1-7.1-8.4-10.7c-3.8-4.2-8.5-8.5-14.2-12.6
  c-1.5-3.5-3.2-6.9-5.1-10.2c0.1,0,0.3,0.1,0.4,0.1c2.3,0.4,4.9,0.4,6.3,0.4c4.8,4.1,8.8,8.3,12.1,12.4c0.7,0.9,1.4,1.8,2.1,2.6
  C218.8,60.3,221.1,66.3,223,72.9z M164.6,20.2c0.9,1.2,1.9,2.5,2.7,3.8c-0.1,0.3,0.1,0.6,0.6,0.8c0.1,0.2,0.2,0.3,0.3,0.5
  c-0.1,0-0.3,0-0.4,0c-1.7,0-0.7,1.1-1.2,1.5c-0.5,0.4-1.9,0.6-1.2,1.8c0.8,1.2,0.9,1.9,1.7,2.2c0.9,0.3,1.6,1.2,0.9,1.2
  c-0.7-0.1,1.6,1.1,0.8,1.4c-0.7,0.2,3.1,1.6,0.4,1.7c-0.4,0-0.6,0-0.7,0.1c-4.3-1.1-8.8-1.9-13.7-2.4c-1.9-6.5-3.9-11.6-5.8-15.6
  C154.6,17.8,159.7,18.8,164.6,20.2z M153.6,32.6c-4-0.4-8.1-0.6-12.5-0.6c-2.1,0-4.3,0.1-6.5,0.2c-0.3-5.9-0.5-11.3-0.7-15.8
  c4.8,0,9.4,0.2,13.8,0.6c0.3,0.7,0.7,1.5,1.1,2.3C150.3,22.7,151.9,27.1,153.6,32.6z M134.5,53.9C134.5,53.9,134.5,53.9,134.5,53.9
  c-2.4,0.1-4.7,0.3-7,0.5c0.1-0.1,0.2-0.1,0.3-0.2c1-0.6,0.7-1-0.5-1c-1.2,0-1.3-0.3-1.3-0.3s0.8-0.2-0.6-0.9
  c-0.9-0.5-1.4-0.4-1.7-0.3c0.4-0.2,1.9-0.7,4.6,0.9c1.8,1,0.3-1.1-1.8-2.3c-0.5-0.3-0.9-0.5-1.3-0.6c2.1,0.3,1.4-0.1,0.7-0.7
  c-0.6-0.6-2.4-1.1-3.6-1c-1.2,0.2,1-1.7,0.3-2.1c-0.8-0.5-0.6,0.2-0.6,1.4c0,1.1-0.6,0.4-0.9-0.6c-0.2-1.2-1.5-1.9-1.5-1.3
  c-0.1,0.6-0.9,1.3-0.8,0.9c0.1-0.5,0.2-1.4-0.4-0.9c-0.4,0.5-1.2,1.1-0.8,0.3c0.5-0.9,0.1-1-1.2-1.5c-1.2-0.5-1.4-0.8-2.5-0.3
  c-0.1,0.1-0.3,0.1-0.4,0.2c0.1-0.5,0.2-0.9,0.3-1.4c1.2-0.2,1-0.8,0.3-1.4c0.4-2.1,0.8-4.1,1.3-6c6.4-0.9,12.5-1.5,18.2-1.8
  c0,0,0,0,0.1,0C133.9,39.8,134.2,46.9,134.5,53.9z M114.3,34.1c-3.9,0.6-7.8,1.3-11.8,2.2c-0.5-1.7-1.6-0.4-2.8,0.3
  c-0.3,0.2-0.4,0.3-0.6,0.5c-1.3,0.3-2.7,0.6-4,1c2.7-6.7,6.1-12.9,10.2-18.4c0,0,0.1-0.1,0.1-0.1c4.5-1,9.2-1.9,14.3-2.4
  C117.8,21.5,116,27,114.3,34.1z M77.7,33c0.5-1.4,0.1-0.8,0.1-1.4c0-0.4,0.3-1.1,0.6-1.7c2.1-1.1,4.2-2.3,6.5-3.3
  c-2.8,3.5-5.2,7.2-7.4,11.1c0.1-0.3,0.1-0.6,0-0.7c-0.4-0.1-1.2,0.1-0.9-0.8C76.7,35.3,77.3,34.5,77.7,33z M77.6,46
  c0.7-0.6-1,0.8-0.7-0.5c0.8-0.4,1.6-0.7,2.4-1c-0.5,0.2-0.7,0.8-0.8,1.5c-0.1,0.9,0.2,1.8,0.8,2c0,0,0,0,0,0c0,0,0,0,0,0
  c0.8,0.2,1.5-0.2,1.7,0c0,0,0,0,0,0c0,0,0,0.1,0,0.1c0,0,0,0.1,0,0.1c0,0,0,0.1,0,0.1l0,0c-0.5,1,0.8,1.6,1.4,0.8
  c0.6-0.8,0.4-1.9,0.9-0.6c0.5,1.3-0.2-0.9,3.7-4.1c0,0,1.3-0.9,2.1-1.3c0.6-0.3-0.2-0.7-1.4-0.3c-1.3,0.4-3,1.9-2.5,1.3
  c0.6-0.6,1.5-1.2,0.9-1.2c-0.3-0.1-0.7-0.1-0.8-0.2l0.4-0.6c0.1-0.1,0.2-0.1,0.2-0.2c2.4-0.8,4.9-1.6,7.4-2.3
  c-0.6,1.6-1.2,3.2-1.7,4.9c-0.1,0-0.2,0-0.3,0c-0.8,0.2,0.5-1.5-0.6-0.5c-2.1,1.9-1.5,0.1-2.3,0.8c-0.9,0.6-0.4,1.2-0.4,1.2
  c-1.1,1.5,0.6,1.2,1.3,1.3c0.7,0.2,0.4,0,1.4-1.3c0.3-0.4,0.6-0.7,0.8-0.9c-0.2,0.5-0.3,1.1-0.5,1.6c0,0.1-0.1,0.1-0.1,0.2
  c-0.9,1.4-2.2,1.2-3.5,1.9c-1.3,0.8-0.1,0.8-0.1,1.5c0.1,0.8,0.7,0.5,0.3,0.8c-0.6,0.3-0.8,1.5-1.4,1.7c-0.7,0.2-0.7,0-1,0.3
  c-0.4,0.2-1.6,1-0.4-0.3c1.1-1.4-0.3-1.1-1-0.9c-0.7,0.1-2-1.4-2.3-1.9c-0.3-0.6-0.8-1.3-1.5-1.2c-0.7,0.1-0.1,0.6-0.8,1.3
  c-0.6,0.8-0.5,0.5-0.5,0.5s0,0.2,0.1-0.8c0.1-1-2.1-1.2-2.5-1.5c-0.3-0.4-0.2-1.1,0.3-1.3C76.8,46.8,76.9,46.8,77.6,46z M64.3,117.5
  c0.6,0.6,0.6-0.3,0.9,0.5c0.2,0.9,0.7,1.8,0.6,2.5c-0.1,0.5,0,0.7,0.4,0.8c0.4-0.1-2.4,0.4-2.2,1.3c0.2,1,0.8,0.8,1,1.2
  c0.3,0.4,0.6,0.8,0.9,0.3c0.3-0.6,0.4-0.6,1.2-0.5c0,0,0.3,0.3,0.6,0.9c0.4,0.5,6.3,4.7,6.3,5.3c0,0.2,0,0.3,0.1,0.4
  c-3.6-0.6-7-1.3-10.2-2c-0.5-3.9-0.9-7.9-1.1-12.2C63.6,117,63.8,117,64.3,117.5z M74.3,131.2C74.3,131.2,74.3,131.2,74.3,131.2
  c-0.6,0.5-0.7,0.5-1.7,0.8c-0.9,0.2-0.4,0.6-0.9,2.1l0.3,1.9c-0.1,1.1-0.6,1.1-0.1,1.7c0.8,1.1-2.2,2.8-1.9,4.6
  c0.4,1.9,0.9,5.3,3.2,6.8c0.7,0.4,1.2,1,1.5,1.6c-1.9-0.6-3.8-1.2-5.6-1.9c-2.1-5.9-3.8-12.4-4.9-19.6
  C67.4,130,70.7,130.6,74.3,131.2z M108.9,188.2c-3.1-3.5-5.9-7.1-8.4-11c5.6,1.1,11.5,1.9,17.7,2.5c1.3,3.2,2.7,6.2,4.3,9.1
  c1.5,2.7,3,5.1,4.4,7.1c-2.7-0.1-5.6-0.2-8.4-0.4c-0.8-0.1-1.5-0.1-2.2-0.2C113.9,193.4,111.4,191,108.9,188.2z M119.5,179.9
  c5.6,0.5,11.4,0.7,17.4,0.7c0.4,0,0.8,0,1.3,0c0.1,5.8,0.3,11,0.4,15.2c-3.3,0.2-6.7,0.3-10.2,0.2
  C125.6,192.1,122.4,186.9,119.5,179.9z M155.3,129.3c0.8,0.3,0.8,0.3,0.6-0.3c-0.2-0.7,0.9-0.3,1.4,0.3c0.4,0.7,1,0.4,1.4,1.2
  c0.4,0.8,0.7,0.1,1.3,0.5c0.5,0.5,1.2,1.5,2.1,1.8c0.4,0.2,0.9,0.4,1.4,0.7c-1,0.1-2.1,0.2-3.2,0.3c0,0,0-0.1-0.1-0.1
  c-1.3-2-1.3-0.3-1.7-1.3c-0.5-1.1-2.2-1.7-3.1-2.3C155,129.6,154.4,128.9,155.3,129.3z M160.9,177.5c-0.7,0.1-1.4,0.3-2.2,0.4
  c0.4-1.2,0.8-2.4,1.1-3.6c0,0,0,0.1,0,0.1C159.7,175.4,160.4,176.7,160.9,177.5z M161.5,178.5c0.6,0.6,1.8,1.1,2.3,1.5
  c0.5,0.5,2,3.1,2.6,4c0.6,0.9,1.1,0.1,1.3,0.8c0.2,0.4,0.7,0.8,1.2,1.2c-0.3,0.4-0.6,0.7-0.8,1c-1.6,1.9-3.1,3.6-4.7,5.2
  c-3.8,0.9-7.9,1.7-12.3,2.4c1.1-1.8,2.3-3.9,3.4-6.3c1.4-3,2.7-6,3.8-9.2C159.4,178.9,160.4,178.7,161.5,178.5z M168.9,187.7
  c0.3-0.3,0.5-0.7,0.8-1c0.2,0.4,0.1,0.9,0.5,1.2c0.4,0.5,0.1,0.4,0.5,0.3c0.4-0.2,0.5-0.4,0.8-0.4c0.3,0.1,0.4,0,0.5-0.4
  c0.2-0.4,0.3-0.3,0.6-0.4c0.5-0.1,0.4-0.4,0.5-0.6c0.2-0.4,0.2-0.6,0.6-0.8c0.4-0.3,0.3,0,0.6-0.1c0.2-0.1,1-1.2,1.5-2.3
  c0.5-1.2,0.7-2.3,1-4c0.4-1.6,1.9-2.4,1.4-3.6c-0.3-0.7-0.5-1.1-0.4-1.6c0,0,0,0,0,0c8.6-3.1,15.8-7.1,21.9-11.5
  c-5.5,10.3-12.3,18-18.6,23.8c-0.1,0.1-0.3,0.3-0.5,0.4c-4.2,1.7-9.4,3.5-15.5,5C166.5,190.5,167.7,189.2,168.9,187.7z M201.9,161.1
  c6-4.5,10.8-9.3,14.6-13.8c2.6-3.1,4.8-6.2,6.8-9.2c-2.8,9.8-6.8,18.2-11.4,25.4c-4.8,6.1-10.9,12.1-18.5,17.2
  c-0.1,0.1-3.5,2.2-9.6,4.8C190,179.5,196.6,171.5,201.9,161.1z M200.5,30.3c13.3,12,23,26.9,28.4,43.5c-2.7-5.7-6.6-12.6-11.9-19.5
  c-6-12-13.5-21-21-27.8C197.5,27.7,199,29,200.5,30.3z M146.5,5.2c4.1,1.8,10.3,5.5,16.7,13.1c0.1,0.1,0.2,0.3,0.3,0.4
  c-4.7-1.2-9.7-2.1-15-2.7c-3.2-6.4-6.1-9.7-8.2-11.5C142.3,4.7,144.4,4.9,146.5,5.2z M138.2,4.4c1.7,1.1,5.1,4,8.9,11.4
  c-4.2-0.4-8.7-0.6-13.3-0.6c-0.3-5.3-0.4-9.2-0.5-11C134.9,4.3,136.6,4.4,138.2,4.4z M127.4,4.4c0.2,0,0.3,0,0.5,0
  c-1.9,1.7-4.8,5-7.7,11.6c-4.8,0.5-9.4,1.3-13.7,2.2c6.9-8.6,13.6-12.1,17.2-13.6C124.9,4.6,126.1,4.5,127.4,4.4z M81.8,18
  c-0.5,0.3-0.9,0.7-1.4,1c-1.7,1.3-3.4,2.7-4.9,4.2c-0.2-0.1-0.3-0.2-0.4-0.3c-0.3-0.6-1.9,1.8-3.1,3.6c-0.1,0.2-0.2,0.3-0.3,0.4
  c-0.1,0.1-0.2,0.3-0.3,0.4c-0.5,0.4-0.5-0.5-0.3-1.1c0.3-0.7,0-0.5-0.5-0.7C74.1,22.8,77.9,20.3,81.8,18z M68,27.6
  c-0.1,0.5,0,1,0.3,1.5c0.2,0.6,0,0.4-1,0.9c-1,0.5-1.1,0.5-1.4,0.4c-0.3-0.2,0.3-1,0-1C66.6,28.8,67.3,28.2,68,27.6z M58.5,36.6
  C58.5,36.6,58.5,36.6,58.5,36.6c0.1,0.1,0.5-0.1,0.5-0.1s0,0,0.3,0.4c0.1,0.3,0.1,0.4,0.2,0.4c-0.1,0-0.4,0.1-1.1,0.4
  c-1,0.3-1.1,0.6-1.4,0.6C57.5,37.7,58,37.2,58.5,36.6z M56.1,39.3c0.1,0,0.1,0,0.2,0c1.2,0,0.3,0.4,1.7-0.1c1.3-0.5,1.1-0.1,1.5-0.5
  c0.5-0.4,1.2-0.4,2.6-0.9c0.6-0.2,0.9-0.3,1.1-0.3c-0.1,0.1-0.1,0.2-0.2,0.3c-0.1,0.1-0.3,0.1-0.6,0.3c-0.9,0.3-1.2,0.8-2.2,1.3
  c-0.9,0.5-0.4,0.6,0.4,0.4c0.8-0.1-0.2,0.4,0.5,0.4c0.2,0,0.3,0,0.3,0.1c-0.2,0.3-0.4,0.6-0.6,0.9c-4.5,4-8.2,8.1-11.2,12.1
  C42,63,37.4,72.9,34.8,80C38.6,65.1,45.9,51.2,56.1,39.3z M58.5,99.2c-0.3-1.1-0.1-1.7,0.5-2.8c0.6-1.2,0.7-0.9,1-1.8
  c0.3-0.9,0-1.1,1.5-1.5c0.3-0.1,0.6-0.2,0.8-0.3c-0.3,3.1-0.4,6.1-0.5,9c-0.1,0.1-0.2,0.2-0.3,0.3c-1.3,1.6-0.4,0.5-1.7,0.9
  c-1.3,0.5-1-0.8-1.4-1.8C58.1,100.1,58.8,100.1,58.5,99.2z M61.6,43.3c-0.1,1.2-0.8,1.8-1.9,3.2c-1.1,1.4-0.3,1-0.1,1.3
  c0.1,0.2-0.7,1.1-1,2.2c0,0,0,0,0,0c-0.1-0.2-0.2-0.3-0.2-0.3c0,0,0,0,0,0l0,0c0,0.1,0,0.1,0,0.1c0,0,0,0,0,0.1c0,0,0,0,0,0.1
  c0,0,0,0.1,0.1,0.1c0,0,0.1,0.1,0.1,0.1c-0.1,0.3,0,0.5,0.1,0.7c0,0,0,0,0,0l0,0c0,0,0,0,0,0c-0.1,0.3,0,0.3,0.1,0.2
  c0.1,0.2,0.2,0.5,0,1c-0.4,1.1,0.2,0.4-0.3,1.4c-0.6,1.1-1,1.2-1.3,2.3c-1.2,0.9-2.3,1.8-3.4,2.7c2.4-6.4,5.1-11.9,8-16.8
  c0.1-0.1,0.3-0.2,0.4-0.4C61.9,41.9,61.6,42.5,61.6,43.3z M41.3,107.1c-1.1,0.2-2.6,0.5-3.6-0.3c0.2-0.9,1.3-1.5,0.3-2.5
  c-0.9-2.2-0.2-2.9,2.1-2.2c0.7-0.3,1.5-0.9,1.8-1.4l0.5-1.2l1.4,0.3c-1.5-0.3-2.2-3.9,0.4-3.1c0.3-0.8,0.8-1.4,1.8-1.5
  c0.9,0,1.3-0.2,1.7-0.1c0,0.6,0.2,0.8,0.4,1c1.5,2.1-0.1,4.5,0.6,6.8c-0.4,1-1.9,1-2.6,1.4c-1.7,1.1-2.5,2.3-4.3,0.1
  C40.8,105.2,41.9,106.2,41.3,107.1z M33.9,109.3l-2.3,1.2c-0.1-1.6-0.1-3.2-0.1-4.8c1.9-2.7,4-4,4.1-4c0,0,0,0,0.1-0.1
  c0.7,0.8,1.3,1.6,0.7,3C35.1,106.4,37.1,108.2,33.9,109.3z M54,65.8c-0.2,0.8-0.4,0.9-0.6,1.4c-0.3,0.4-0.3-0.1-0.1-0.5
  c0.2-0.5,0-0.1-0.4-0.6c-0.5-0.6-0.1,0.4-1.3,1.9c-1.2,1.6-0.6,0.8-1.4,1.9c0.8-3.2,1.8-6.3,2.8-9.2c1.1-1,2.2-1.9,3.3-2.8
  c-0.6,1.1-1.3,2.3-1.7,3c-0.6,1.3-0.4,1.7-0.5,2.6C54,64.4,54.2,65.1,54,65.8z M52.8,91.6c-0.5,0.2-1.1,0.4-1.6,0.6
  c0.1-0.5,0.4-1,0.2-1.5c-0.2-0.6-0.1-1.4-0.3-2.2c-0.1-0.8-0.3-0.7-0.1-1c0.1-0.4,0-0.6-0.3-0.8c-0.2-0.1,1-0.9,1.3-1.9
  c0.3-0.9-0.4,1.1-0.1,2.5c0.2,1.4,0.4,0.5,0.4,1.3c-0.1,0.6,0,0.7,0.4,1.8C53,91.2,52.7,90.8,52.8,91.6z M49.9,85.3
  c0.2,1.8,0.4,2.3,0.1,2.5c-0.4,0.1-0.3,0.9,0.3,1.8c0.5,0.8,0,0.9,0.3,2.5c0,0.2,0.1,0.3,0.1,0.4c-0.7,0.3-1.4,0.5-2,0.8l-0.2-0.4
  c-0.2,0.1-0.4,0.4-0.4,0.6c-0.1,0-0.1,0-0.2,0.1c-0.2,0.1-0.3,0.2-0.3,0.4c-0.3,0.1-0.8,0.2-1,0.2c-0.9-0.1-0.8-2.3-2.1-1.5
  c-0.4-0.2-1.1-0.4-1-1c1.3-1.9,2.4,1,3.6,0.5c0.4-0.4,0.2-1,0.3-1.5c-0.2-0.2-0.4-0.4-0.7-0.6c0.4-3.7,0.9-7.2,1.5-10.6
  c0.6-0.5,1.2-0.9,1.8-1.4c0,0.4-0.1,0.8,0.1,1.7c0.3,2,0.7-0.3,1,2.6C51.3,83.8,49.6,83.3,49.9,85.3z M49.8,71.4
  c0.1,0.7,0.5,1.4,0.3,1.8c-0.3,0.8-0.7,0.7-0.4,2.1l0.4,0.9c0,0.1,0,0.3,0,0.4c-0.6,0.4-1.2,0.8-1.7,1.3
  C48.8,75.7,49.3,73.5,49.8,71.4z M52.1,60c-2.4,2.2-4.7,4.5-6.9,7c-5.2,6.1-8.6,12.1-10.6,16.9c2.3-7,7-18.6,16-30.1
  c2.4-3.1,5.2-6.3,8.5-9.5C56.2,49.4,53.9,54.7,52.1,60z M33.2,97.1l0.6,2.2c0.2,0.6,0.6,1,1,1.4c-0.5,0.3-1.9,1.3-3.3,3
  c0-2.6,0.2-5.2,0.4-7.7c0.8-4.4,3.7-16.2,14.1-28.4c1.7-2,3.4-3.8,5.3-5.5c-1.9,5.7-3.2,11.4-4.2,16.8c-4.2,3.3-7.8,6.9-10.6,10.8
  C34,91.5,33.5,95.3,33.2,97.1z M46.8,80.4c-0.5,3.1-0.9,6.1-1.2,9c-2.1-1-4.9-1-7.2-0.5C40.8,85.8,43.7,83,46.8,80.4z M41.1,90.9
  h-0.8c0.3-0.2,0.6-1,1-0.4C41.4,90.7,41.2,90.8,41.1,90.9z M49.1,101.1c1.2-4.2-0.4-4.6-0.1-6.9c1.3-0.5,2.7-1.1,4-1.6
  c0,0.1,0.1,0.3,0.1,0.5c0.8,2.9,0.5,3.6,0,4.3c-0.4,0.6,0.1,2.6,1.5,4.5c0.8,1.1,2.3,4.3,3.7,7.1c-1.8,0.1-3.6,0.2-5.3,0.3
  c-0.1,0-0.2,0.1-0.3,0.2c-2.7-1.3-6.5,0-7.5-3.4C46.6,104.3,50.3,105.8,49.1,101.1z M31.2,173.4c-3.3,10.5-4.7,22.4-4.3,34.1
  c-1.3,1.7-2.5-0.7-4-0.5c-2.9-4.4,0.3-9.5,0.4-14.2c2.8-5,0.4-12.1,3.7-16.8l-0.1-0.8H27c0.2-4.4,2.2-6.8,2.3-11.1
  C33.1,165.1,30.9,170.3,31.2,173.4z M58,158.4h-0.4v-0.8H58V158.4z M58,156.4h-0.4v-0.9H58V156.4z M59.1,156.4
  c0,0.1-0.1,0.1-0.2,0.2l0,0c-0.9-0.6-0.7-1.6-0.7-2.5l-0.3-1.1c0,0,0,0,0,0l0,0l0,0c0.3-0.4,1.7-3.9,2.1-2.3c-0.1,0.4-0.2,1-0.2,1.7
  c0.1,0.1,0.2,0.3,0.2,0.5C59.6,154,59.8,155.7,59.1,156.4z M57.3,148.9c-0.9,0.4-1.4-1-2.1-1.3c0-0.4,0.2-0.7-0.1-0.9h-0.4
  c-0.7-3-2.1-5.9-4.6-8.1c-1.4-2.8,0.2-6-0.1-9.3c-0.6-2.9-0.6-6.2-0.9-9.3c-1.4,0.6-1.9,2.6-2.2,4.1c-0.2,0-0.5,0-0.6,0.3
  c2,1.2,2.1,4.1,2.3,6.5c-0.4,3.3-1.5,7.6,1.5,10.3c-0.2,2.6,3.9,2.9,2.6,5.9c1.5,1.4,1.4,3.6,3.5,4.8c-0.4,2.1,0.7,3.4,0.6,5.3h-0.3
  c0.3,1.8-1.2,2.6-2.3,3.6c-1,0.4-2,0.9-3.2,1c-0.6,0.3-1.3,0.5-1.9,0.8c-1.5,0.5-3,0.8-4.6,0.8c-1.6,0.1-3.2,0-4.8-0.3
  c-0.5,0.1-0.8,0.5-1.4,0.3v-0.5c-3.3-0.3-6,0.5-9.3,0c-0.5-0.7-1-1.5-0.5-2.3c0.7-0.8,2.1-0.8,2.6-2.1c-0.3-10.1-1.8-20.2-3.6-30.2
  c-1.9-3.8-2.4-9-1.2-13.4c0.4-0.3,0.8-0.6,1.3-0.9c1.3-0.9,2.6-1.7,4.2-2c0,0,0.1,0,0.1,0c1.7-1,2.5-1.4,4.9-3.1l5,0.6l0.4,0.6
  c1.4-0.5,2.8-0.9,4.4-1c1.3,1,3.9,1.4,5.5,1.3c1.6,0.2-0.8,2.4,1.4,2.2c1.3,2,1.1,4.5,0.3,6.6c0.3,0.4,0.9,0.1,1.4,0.3
  c-0.4,1.6,1.1,2.9,0,4.4c0.1,0.2,0.4,0.1,0.6,0.1c0.1,3.9,3.9,6.4,2.2,10.3c0.5,1.2-1,3.2,0.6,3.2c1.7,2.4,1.2,6,1.3,8.8
  C59.5,147.7,59.3,149,57.3,148.9z M60.1,136l-0.1-6.5c-3.7-6-2.6-13.2-6-19.2c1.6-0.1,3.3-0.2,4.9-0.2c0.9,1.8,1.7,3.1,2,3.1
  c0.7,0,0.5-0.1,0.9,0.8c0.1,4.9,0.5,9.5,1.1,13.9c-1.1-0.3-2.2-0.5-3.2-0.8c-0.3-0.1-0.6,0.1-0.7,0.4c-0.1,0.3,0.1,0.6,0.4,0.7
  c1.2,0.3,2.4,0.6,3.6,0.9c1,7.1,2.7,13.5,4.7,19.4c-2-0.8-4-1.6-5.9-2.5c-0.3-0.1-0.6,0-0.7,0.3c-0.1,0.3,0,0.6,0.3,0.7
  c2.2,1,4.4,1.9,6.8,2.8c1.8,5.1,4,9.7,6.3,13.9c-0.2,0.5-0.3,0.9-0.1,1.6c0.5,1.1,0.4,0.9,0.1,1.3c-0.3,0.6-0.5,1-0.8,1.5
  c-4.4-2-8.6-4.2-12.5-6.8l0.1-3.1c-1.4-1-0.2-2.2-0.3-3.7C59.8,148.3,62.9,141.3,60.1,136z M72.6,172.9c0.4,2.9-0.5,6.1-0.5,6.1
  c0,0.1,0,0.1-0.1,0.2c-3.6-3.8-7.1-8.2-10.3-13.3c-0.1-0.2-0.3-0.3-0.5-0.2l0.1-3.2c3.7,2.4,7.7,4.5,12,6.4
  C72.7,170,72.4,171,72.6,172.9z M72.1,183c-3.8-2.1-7.4-4.4-10.7-6.9c-0.2-0.1-0.4-0.1-0.6-0.1l0.2-9c3.5,5.4,7.4,10.1,11.3,14.2
  c-0.1,0.2-0.3,0.5-0.3,0.9C72.1,182.9,72.2,182.3,72.1,183z M61.8,177.7c3,2.2,6.1,4.2,9.5,6.1c0.2,0.4,0.8,1.2,0.9,1.9
  c0.2,0.9,0.6,1.2,0.8,1.5C69,184.3,65.3,181.1,61.8,177.7z M102.1,201.6c-0.2,0-0.3,0.1-0.5,0.2c-7.8-2.5-15.2-6-22.1-10.2
  c0,0,0.1,0,0.1-0.1c0.4-0.2-1.1-0.6-1.7-1.2c-0.7-0.7-0.8-1.3-1-1.9c0,0-0.9,0.3-1.1,0.7c-0.1-0.1-0.3-0.2-0.4-0.3
  c0.1-0.3,0.3-0.5,0.8-0.7c0.7-0.3,0.6,0,0.4-1.2c0-0.2,0-0.4,0-0.6c1,0.5,2,0.9,3,1.3C87.7,194.6,95.8,198.9,102.1,201.6
  C102.1,201.6,102.1,201.6,102.1,201.6z M109.9,200.6c-0.6,0.4-1.5,0.3-2.2,0.3c-0.3,0-0.6-0.4-0.8-0.3c-0.4,0.8-1.1,1-1.9,1
  c-5.9-2.3-13.8-6.2-22-12.5c6.2,2.3,12.9,4.2,20,5.5c2.9,1.9,5.7,3.6,8.4,5C110.8,199.9,110.4,200.4,109.9,200.6z M112.6,198.8
  c0,0.1-0.1,0.1-0.1,0.2c-2.2-1.1-4.4-2.4-6.8-3.9c2.4,0.4,5,0.7,7.5,1C113.2,197,112.8,197.9,112.6,198.8z M117.1,198.3
  c-0.8-0.6-1.4-1.4-2.1-2c0.3,0,0.6,0.1,0.9,0.1c0.8,0.6,1.6,1.2,2.3,1.8C117.8,198.3,117.4,198.6,117.1,198.3z M128.2,199.7
  c0-0.9-0.1-1.8-0.6-2.6c-0.5,0.5-1.2,0.4-1.8,0.6c-1.7,0.4-3.3,0.7-5,1c-1-0.7-1.9-1.4-2.9-2.2c0.2,0,0.4,0,0.7,0.1
  c3.2,0.3,6.3,0.4,9.3,0.5c0.4,0.6,0.8,1.1,1.2,1.6C128.8,199.1,128.7,199.6,128.2,199.7z M132.1,198.8c-0.5,0-1-0.1-1.5-0.1
  c-0.4-0.5-0.9-1.1-1.3-1.6c3.2,0,6.4-0.1,9.4-0.2c0,0.7,0,1.4,0.1,2.1C136.5,198.9,134.3,198.8,132.1,198.8z M139,168.6
  c0.3,0.1,0.5,0.2,0.9,0.1c0.5-0.2,1.1-0.9,1.3-1.3c0.2-0.4,0.9-1.1,1.4-1.3c0.6-0.2,1.6-0.6,1.9-1.4c0.3-0.7,0.8-1.4,1-1.7
  c0.3-0.1,0.2-0.3,0.4-0.5c0.1-0.3,0.2-0.6,0.8-0.8c0.4-0.2,0.4-0.4,0.4-0.5h-0.1c0,0,0,0,0.1,0c0-0.1,0.1-0.1,0.2,0
  c1.7,0,1.6,1.1,2.5,0.5c0.8-0.6-0.3-1.8,1.2-1.3c1.4,0.4,1.5,1.5,1.9,2.6c0.4,1.2-1,2,1.4,2.6c2.3,0.6,2.9,2.2,4.4,4.5
  c0.3,0.6,0.6,1,0.8,1.4c-0.6,2.3-1.3,4.5-2,6.7c-5.6,0.9-11.7,1.4-18.2,1.4C139.2,176.1,139.1,172.4,139,168.6z M139.3,180.6
  c6.3-0.1,12.3-0.5,17.8-1.4c-1,2.9-2.2,5.7-3.5,8.5c-1.3,2.7-2.6,5-3.9,7.1c-3.2,0.4-6.5,0.8-10,1
  C139.6,191.6,139.4,186.4,139.3,180.6z M143.7,201.5c-0.7-0.6-1.6-1-2.7-1c-0.4-0.1-0.5-1.4-1.2-1.4c0,0,0,0,0,0
  c0-0.7,0-1.4-0.1-2.2c3.2-0.2,6.2-0.5,9.2-0.9c-1.5,2.3-3,4.1-4.3,5.5C144.2,201.5,144,201.5,143.7,201.5z M146,201.5
  c1.3-1.5,2.8-3.4,4.3-5.7c4.1-0.6,8-1.3,11.6-2.1c-3.5,3.3-6.8,5.9-9.7,7.7C150.1,201.4,148,201.4,146,201.5z M155.8,201.4
  c-0.6,0-1.1,0-1.7,0c3-2.1,6.3-4.7,9.8-8.2c5.5-1.3,10.4-2.9,14.5-4.4c-7.1,5.9-14.1,9.9-19.7,12.6
  C157.8,201.4,156.8,201.4,155.8,201.4z M165,201.5c-1.3,0-2.6,0-3.9,0c5.9-3,13.1-7.5,20.3-13.8c8-3.2,12.4-6,12.5-6.1
  c4.5-3.1,8.5-6.5,12-10c-4.9,6.1-10.1,11-15,15c-6.3,5-12.6,8.9-18.2,11.9C170.2,199.6,167.6,200.6,165,201.5z M207.3,84.1
  C207.3,84.1,207.3,84.1,207.3,84.1C207.2,84.3,207.3,84.1,207.3,84.1z M209.6,67.5c0.1-0.2,0.1-0.3,0.2-0.4c0.1,0.6-0.2,1-0.2,1
  S209.5,68.1,209.6,67.5z M95,44.1c0.5-0.8,0.6-0.9,0-1.9c-0.5-1.1,1-0.9,1-0.9c0.1,1.2,1,1.2,1,1.8c0.1,0.6-1.3,1.7,0.8,2.3
  c2.1,0.6,3.4,1.8,1.5,2.6c-1.8,0.9-1.3-0.8-3.4-1.4C93.9,45.9,94.5,44.9,95,44.1z M100.2,42.3C99.8,41.1,100.4,41.7,100.2,42.3
  L100.2,42.3z M93.3,85.4c0.4-0.4,0.4-0.8,0.6-1c0.2-0.3-0.1,0.5,0.5,0c0.6-0.6,2-1.7,2.2-1.5c0.3,0.2-0.2,1.1-0.6,1.3
  c-0.3,0.2-0.4,0.2,0.3,0.5c1.1,0.7,1.1,0.9,1.2,1.3c0.1,0.5-1.3,1.2-0.4,1.2c1,0,0.3,1,0.3,1c-0.3,0.4-0.6,0.4-0.8,0.1
  c-0.3-0.2,0-0.5,0-0.8c0-0.2-0.3-0.4-0.5-0.1c-0.2,0.4-1.1,0.6-0.8,0.1c0.3-0.4,0.6-0.5,0-0.8c-0.6-0.2-1.2-0.8-1.5-0.8
  C93.4,86,92.9,85.8,93.3,85.4z M78,116.7c-1.6-0.4-3.4-1.3-1.9-1.2c1.5,0.2,1,0,0.5-0.5c-0.7-0.9,0-0.9,0.5-0.3
  c0.6,0.6,1.4-0.1,2.1,0.8c0.5,0.7,1.1,1.7,0.3,1.3C77.9,116.2,78,116.7,78,116.7z M81.1,117.5c0.6,0.1,1.5,0.9,0.6,0.6
  C80.1,117.6,81.1,117.5,81.1,117.5z M53.3,64.4c0.2,0.7,0.5,2.1-0.1,1.3c-0.7-0.7-0.1-0.4-0.5-1.3c-0.4-0.8-0.2-1,0.3-1.7
  c0.3-0.6,0.5-0.3,0.5-0.3C53.5,63.3,53.3,63.8,53.3,64.4z M56.6,53.7c0.1,0.6,0.6,0.5,0.1,0.8c-0.5,0.4-1,1.1-1.2,1.7
  c-0.2,0.7-0.6,0.9-0.3,0.1C55.6,55.4,56.6,53.7,56.6,53.7z M58.3,52c-0.2,0.7,0,0.8-0.4,1.2c-0.3,0.3-0.7,0.8-0.4,0
  C57.8,52.3,58.3,52,58.3,52z M57.4,50.3c0-0.1,0-0.2,0.1-0.2c0,0,0.5,0,0.6,0.5c0,0.1,0,0.2,0,0.2C58.2,51.5,57.4,50.9,57.4,50.3z
   M86.1,39.7c-2.5,0.6-3.9,1.2-3.9,1.2c-1.7,0.6-2.7,0.3-1.8-0.4c1-0.7,1.1-2.2,2.8-2.6c1.6-0.5,1.6-1.5,2.5-1.2
  c0.7,0.2,1.3,0.8,0.8,1.5C86.1,39.1,88.5,39.1,86.1,39.7z M58.5,48.6c0.3,0,0.2,0.4-0.3,0.6c-0.4,0.3-0.6,0.7-0.5,0.3
  C57.9,49,58.5,48.6,58.5,48.6z M128.7,123.2c-0.2,0.2-0.1,0.1-0.8,0.6c-0.8,0.6-1,0.8-1.2,1.2c-0.2,0.3-0.2,0.3-0.5,0.4
  c-0.3,0.2-0.4,0.1-0.4,0.4c0,0.4-0.1,0.3-0.3,0.6c-0.2,0.3-0.5,0.9-0.5,0.5c0.1-0.5,0.1-0.8,0.4-1.3c0.2-0.4-0.2-0.2,0.4-0.6
  c0.5-0.3,0.6-0.7,0.3-0.5c-0.3,0.2-0.4,0.4-0.6,0.3c-0.3,0-0.1,0.1-0.4,0.3c-0.3,0.1-0.1,0,0-0.4c0.1-0.3,0.2-0.2,0.4-0.5
  c0.2-1,0.1-0.2,0-0.6c0,0-0.1-0.1-0.3,0c-0.1,0.1-0.1,0.2-0.1,0c0.1-0.3,0.2-0.4,0.4-0.6c0.1-0.2,0.4-0.6,0.4-0.6
  c0-0.2-0.2-0.4-0.4-0.3c-0.3,0-0.1-0.4-0.3-0.5c-0.1-0.2-0.1-0.2,0-0.4c0.1-0.2,0-0.3,0-0.3c0,0,0,0.1-0.1,0.4
  c-0.2,0.2-0.3,0.4-0.4,0.3c-0.1-0.1-0.3,0-0.1-0.3c0-0.2-0.1-0.5-0.3-0.6c-0.2-0.2-0.4,0-0.6-0.1c-0.3-0.1-0.3-0.3-0.4-0.5
  c-0.1-0.3-0.1-1,0-1.4c0.1-0.4,0.2-0.4,0.4-0.6c0.3-0.3,0.5-0.3,0.5-0.3c-0.1,0.4-0.2,0.6-0.3,0.9c0.1,0.3,0,0.7,0.3,0.5
  c0.2-0.2,0.1-0.4,0.4-0.6c0.3-0.3,0.2-0.3,0.5-0.5c0.3-0.1,0.1,0.1,0.1,0.4c0.1,0.2,0.1,0.4,0,0.6c0,0.3-0.4,0.5,0,0.4
  c0.3-0.2,0.3-0.2,0.1,0.1c-0.2,0.2-0.3,0.4-0.1,0.3c0.2-0.1,0.3-0.3,0.4-0.3c0.6,0.5,0.8,0.2,1.3,1c0.6,0.8,0.9,1,0.9,1
  c-0.1,0.4-0.2,0.5,0,0.3c0.3-0.2,0.4-0.5,0.6-0.5c0.2,0.1,0.4,0.1,0.4,0.4c0,0.3-0.3,0.4-0.4,0.8c-0.1,0.3-0.3,0.6-0.3,0.6
  s0.3-0.1,0.5-0.1C128.9,122.8,128.9,122.9,128.7,123.2z M123.8,122.9c0,0.2,0,0.2,0.1,0.5c0.1,0.2,0.1,0,0.3,0.6
  c0.1,0.5,0,0.4,0,0.8c0.1,0.3,0.3,0,0,0.4c-0.3,0.3-0.3,0.1-0.8,0.6c-0.4,0.6-0.4,0.9-0.6,0.9c-0.4,0.1-0.5,0.1-0.6-0.1
  c0-0.2-0.1-0.2,0.1-0.5c0.2-0.3,0.2-0.1,0.1-0.5c-0.1-0.3-0.1-0.3-0.4-0.3c-0.2,0-0.2,0-0.1-0.3c-0.1-0.3-0.2-0.4,0-0.6
  c0.1-0.2,0-0.1,0.3-0.3c0.1-0.2,0.1-0.2,0.3-0.4c0.2-0.3,0.4-0.4,0.4-0.6c0.1-0.1,0.1-0.2,0-0.1c-0.2,0.2-0.5,0.3-0.4,0.1
  c0.1-0.3,0.1-0.4,0.3-0.5c0.2-0.3,0.2-0.4,0.5-0.5c0.3-0.2,0.6-0.4,0.6-0.4c0.2,0.1,0.2-0.1,0.3,0.1c0.1,0.2,0.3,0,0.3,0.4
  c-0.1,0.3-0.1,0.2-0.4,0.4C123.8,122.8,123.8,122.8,123.8,122.9z M204.1,118.8c0.1-0.3-0.1-0.4,0.4-0.6c0.4-0.4,0.4-0.4,0.8-0.5
  c0.3-0.1,0.3,0,0.3-0.3c0-0.4-0.3-0.6-0.1-0.9c0.3-0.2,0.5-0.2,0.8-0.6c0.1-0.3,0.1-0.3,0.3-0.9c0.2-0.6,0.1-0.8,0.5-1
  c0.3-0.4,0.4-0.4,0.3-0.8c0-0.3-0.1-0.3,0-0.6c0.2-0.3,0.3,0.2,0.3-0.6c0.1-0.9,0.1-1.2,0.1-1.2l0.3,0.3l0.1-0.4l0.1,0.4l0.2-0.2
  c0,0.1,0,0.2,0,0.4c0,0.5-0.2,0.8,0.1,0.6c0.2-0.1,0.2-0.2,0.5-0.4c0.3-0.2,0.7-0.4,0.6-0.3c0.1,0.1,0.2,0.3-0.1,0.6
  c-0.3,0.3-0.5,0.4-0.5,0.4l0.4,0.1l-0.5,0.8c0,0.1,0.1,0.2,0.1,0.4c0.4,0.7,0.2,0.8,0.6,1c0.4,0.2,0.8,0.3,0.8,0.3s-0.4,0.2-0.5,0.6
  c-0.2,0.5-0.2,1.1-0.1,1.3c0,0.2-0.1,0.1-0.3,0.6c-0.1,0.5,0,0.4,0,0.9c0.1,0.5,0.1,1.2,0.1,1.2l-0.6,0.9c0,0,0,0-0.4-0.1
  c-0.3-0.3-0.9,0-0.9,0s-0.1,0.3-0.3,0.6c-0.1,0.3,0.1,0.7-0.4,0.5c-0.4,0-0.2-0.3-0.6-0.1c-0.3,0.3-0.4,0.7-0.6,0.4
  c-0.1-0.5,0.1-0.9-0.3-1c-0.3,0-0.5,0.4-0.8,0.1c-0.3-0.4-0.4-0.7-0.3-0.9c0.2-0.3,0.4-0.4,0-0.4C204,119.3,203.9,119.2,204.1,118.8
  z M208.3,110.6l-0.1,0.2C208.3,110.5,208.3,110.6,208.3,110.6z M198.1,121C198.1,121,198.1,121,198.1,121
  C198.1,121,198.1,121,198.1,121z M133,140.6c0-0.3,0-0.7,0-1.3C132.9,139.7,133.5,140.5,133,140.6z M146.1,126.3
  C146.1,126.3,146.1,126.3,146.1,126.3c0,0,0-0.1,0-0.1V126.3z M147.4,161.1h-0.2c0,0,0,0,0,0C147.3,161.1,147.3,161.1,147.4,161.1
  C147.4,161.1,147.4,161.1,147.4,161.1z M221.9,118.8C222,118.3,221.9,119.2,221.9,118.8L221.9,118.8z M214.4,127.1
  C214.2,126.9,214.5,126.7,214.4,127.1L214.4,127.1z"/>


  <defs>  
    <!-- Da gradient -->
    <linearGradient id="gradient" x1="0%" y1="0%" x2="100%" y2="0">
      <stop offset="0%" style="stop-color:#fff;"/>
      <stop offset="25%" style="stop-color:#c4c4c4;"/>
      <stop offset="50%" style="stop-color:#a0a0a0;"/>
      <stop offset="75%" style="stop-color:#c4c4c4;"/>
      <stop offset="100%" style="stop-color:#fff;"/>
    </linearGradient>
    
    <!-- Stitch 2 gradients together for seamless animation  -->
    <pattern id="pattern" x="0" y="0" width="300%" height="100%" patternUnits="userSpaceOnUse">
      <rect x="0" y="0" width="150%" height="100%" fill="url(#gradient)">
        <animate attributeType="XML"
                 attributeName="x"
                 from="0" to="150%"
                 dur="2s"
                 repeatCount="indefinite"/>
      </rect>
      <rect x="-150%" y="0" width="150%" height="100%" fill="url(#gradient)">
        <animate attributeType="XML"
                 attributeName="x"
                 from="-150%" to="0"
                 dur="2s"
                 repeatCount="indefinite"/>
      </rect>
    </pattern>

    <!-- Pull in font -->
    <!-- Copied from: https://static.sonos.com/v1/fonts/logo/sonos-logo-regular-webfont.svg -->
    
  </defs>
</svg>