<!-- Generator: Adobe Illustrator 21.1.0, SVG Export Plug-In  -->
<svg version="1.1"
	 xmlns="http://www.w3.org/2000/svg" xmlns:xlink="http://www.w3.org/1999/xlink" xmlns:a="http://ns.adobe.com/AdobeSVGViewerExtensions/3.0/"
	 x="0px" y="0px" width="591.4px" height="336.7px" viewBox="0 0 591.4 336.7" style="enable-background:new 0 0 591.4 336.7;"
	 xml:space="preserve">
<style type="text/css">
	.white{fill:black;}
</style>
<g>
	<path class="white" d="M26,305.9c-1.1-0.7-2.4-1.2-3.9-1.5c-1.5-0.3-3.2-0.4-5-0.4H0v2.5c2.6,0,3.8,0.7,3.8,2v23c0,1.3-1.3,2-3.8,2v2.5h15.2v-2.5
		c-3.2,0-4.8-0.7-4.8-2v-8.3h6.6c1.8,0,3.5-0.2,5-0.5c1.5-0.3,2.8-0.9,3.9-1.6c1.1-0.8,1.9-1.8,2.5-3c0.6-1.3,0.9-2.8,0.9-4.7
		c0-1.9-0.3-3.4-0.9-4.6C27.9,307.6,27.1,306.7,26,305.9z M21.3,318.1c-1,1.1-2.7,1.6-5,1.6h-5.9v-12.1h5.9c2.3,0,4,0.5,5,1.5
		s1.5,2.4,1.5,4.2C22.8,315.5,22.3,317.1,21.3,318.1z"/>
	<path class="white" d="M54,332.7h-8.1v-12h4.6c1.5,0,2.4,1.8,2.7,5.3h2.6l0.6-13.4h-2.7c-0.3,3.5-1.2,5.2-3,5.2h-4.9v-10.4h9.6
		c3.3,0,5.2,2.2,5.5,6.5l3-0.2v-9.7H35.5v2.5c2.6,0,3.8,0.7,3.8,2v23c0,1.3-1.3,2-3.8,2v2.5h28.6l1-12.3l-3.1-0.3
		C61.5,329.6,58.8,332.7,54,332.7z"/>
	<path class="white" d="M71.7,317.2l2.7,0.1c0.1-1.9,0.3-3.5,0.6-4.8c0.3-1.3,0.7-2.3,1.2-3.1c0.5-0.8,1.1-1.3,1.8-1.6s1.6-0.5,2.5-0.5h3.9v24.1
		c0,1.3-1.3,2-3.8,2v2.5H95v-2.5c-2.6,0-3.9-0.7-3.9-2v-24.1H95c1,0,1.8,0.2,2.6,0.5c0.7,0.3,1.3,0.8,1.8,1.6
		c0.5,0.8,0.9,1.8,1.2,3.1c0.3,1.3,0.5,2.9,0.6,4.8l2.7-0.1v-13.1H71.7V317.2z"/>
	<path class="white" d="M128.6,332.7h-8.1v-12h4.6c1.5,0,2.4,1.8,2.7,5.3h2.6l0.6-13.4h-2.7c-0.3,3.5-1.2,5.2-3,5.2h-4.9v-10.4h9.6
		c3.3,0,5.2,2.2,5.5,6.5l3-0.2v-9.7h-28.6v2.5c2.6,0,3.8,0.7,3.8,2v23c0,1.3-1.3,2-3.8,2v2.5h28.6l1-12.3l-3.1-0.3
		C136.1,329.6,133.4,332.7,128.6,332.7z"/>
	<path class="white" d="M170.5,330.8c-1.7,1.4-4.1,2.1-7.1,2.1c-1.5,0-2.9-0.3-4.2-0.8c-1.2-0.5-2.3-1.3-3.2-2.3c-0.9-1-1.6-2.4-2.1-4
		c-0.5-1.6-0.8-3.5-0.8-5.6c0-2,0.2-3.7,0.6-5.4s1-3,1.9-4.2c0.8-1.2,1.9-2.1,3.3-2.8c1.3-0.7,3-1,4.9-1c2.6,0,4.7,0.7,6.3,2.2
		c1.6,1.5,2.7,3.4,3.3,5.8l3.1-0.3v-10.5h-3.2l-1.1,2.7c-0.8-0.9-2.1-1.7-3.7-2.4c-1.7-0.7-3.6-1-6-1c-2.3,0-4.4,0.3-6.4,1
		c-2,0.7-3.7,1.7-5.2,3.1c-1.5,1.4-2.6,3.2-3.5,5.3c-0.8,2.1-1.3,4.7-1.3,7.6c0,2.8,0.4,5.2,1.3,7.3c0.9,2.1,2,3.8,3.6,5.1
		s3.3,2.4,5.3,3c2,0.7,4.2,1,6.5,1c2.2,0,4.1-0.3,5.7-0.9c1.6-0.6,3-1.4,4.1-2.4c1.1-1,2-2.2,2.7-3.4s1.3-2.6,1.7-4l-2.9-1
		C173.5,327.5,172.2,329.4,170.5,330.8z"/>
	<path class="white" d="M211.4,307.1c-1.4-1.3-3.1-2.2-5.1-2.8c-2-0.6-4.1-0.9-6.4-0.9c-2.9,0-5.4,0.4-7.5,1.2c-2.1,0.8-3.8,2-5.2,3.5
		c-1.3,1.5-2.3,3.3-3,5.5c-0.6,2.1-0.9,4.5-0.9,7.2c0,3,0.4,5.5,1.2,7.5c0.8,2,1.9,3.7,3.4,4.9c1.4,1.3,3.1,2.2,5.1,2.7
		c2,0.5,4.1,0.8,6.3,0.8c2.8,0,5.2-0.4,7.3-1.2s3.8-1.9,5.2-3.4s2.4-3.2,3.1-5.2c0.7-2,1-4.3,1-6.9c0-3.1-0.4-5.7-1.2-7.8
		C213.9,310.1,212.8,308.4,211.4,307.1z M208.8,325.8c-0.3,1.6-0.9,2.9-1.7,4c-0.8,1.1-1.8,1.9-3.1,2.5c-1.3,0.6-2.9,0.8-4.8,0.8
		c-1.4,0-2.7-0.2-3.9-0.6c-1.1-0.4-2.1-1.2-2.9-2.2c-0.8-1.1-1.4-2.5-1.9-4.4c-0.4-1.9-0.6-4.2-0.6-7.1c0-1.9,0.2-3.5,0.6-5
		c0.4-1.5,1-2.7,1.8-3.7c0.8-1,1.9-1.8,3.2-2.3c1.3-0.5,2.8-0.8,4.6-0.8c1.4,0,2.6,0.2,3.8,0.6c1.1,0.4,2.1,1.1,2.9,2.1
		c0.8,1,1.4,2.4,1.9,4.1c0.4,1.7,0.7,3.9,0.7,6.6C209.4,322.4,209.2,324.2,208.8,325.8z"/>
	<path class="white" d="M278.5,306.6h2.1c1.1,0,1.7,0.4,1.7,1.1c0,0.3,0,0.5,0,0.6l-6.3,22.6l-6.8-21.9c-0.2-0.6-0.3-1.1-0.3-1.5
		c0-0.3,0.1-0.5,0.2-0.7c0.1-0.2,0.4-0.2,0.8-0.2h3.1v-2.5h-13.3v2.5c2.1,0,3.1,0.6,3.1,1.8c0,0.1,0,0.2,0,0.3c0,0.1,0,0.2-0.1,0.4
		l-6.5,21.7l-6.4-23.5c0-0.5,0.4-0.8,1.2-0.8h3.1v-2.5h-14v2.5c0.9,0,1.6,0.2,2.2,0.5c0.6,0.3,0.9,0.7,1.1,1.2l7.9,27.7h6.3
		l6.8-20.8l6.7,20.8h6.3l8.3-27.8c0.1-0.5,0.5-0.9,1-1.2c0.5-0.3,1.4-0.4,2.5-0.4v-2.6h-10.5V306.6z"/>
	<path class="white" d="M323.3,307.1c-1.4-1.3-3.1-2.2-5.1-2.8c-2-0.6-4.1-0.9-6.4-0.9c-2.9,0-5.4,0.4-7.5,1.2c-2.1,0.8-3.8,2-5.2,3.5
		c-1.3,1.5-2.3,3.3-3,5.5c-0.6,2.1-0.9,4.5-0.9,7.2c0,3,0.4,5.5,1.2,7.5c0.8,2,1.9,3.7,3.4,4.9c1.4,1.3,3.1,2.2,5.1,2.7
		c2,0.5,4.1,0.8,6.3,0.8c2.8,0,5.2-0.4,7.3-1.2s3.8-1.9,5.2-3.4c1.4-1.4,2.4-3.2,3.1-5.2s1-4.3,1-6.9c0-3.1-0.4-5.7-1.2-7.8
		C325.9,310.1,324.7,308.4,323.3,307.1z M320.8,325.8c-0.3,1.6-0.9,2.9-1.7,4c-0.8,1.1-1.8,1.9-3.1,2.5c-1.3,0.6-2.9,0.8-4.8,0.8
		c-1.4,0-2.7-0.2-3.9-0.6s-2.1-1.2-2.9-2.2c-0.8-1.1-1.4-2.5-1.9-4.4s-0.6-4.2-0.6-7.1c0-1.9,0.2-3.5,0.6-5c0.4-1.5,1-2.7,1.8-3.7
		c0.8-1,1.9-1.8,3.2-2.3c1.3-0.5,2.8-0.8,4.6-0.8c1.4,0,2.6,0.2,3.8,0.6c1.1,0.4,2.1,1.1,2.9,2.1c0.8,1,1.4,2.4,1.9,4.1
		c0.4,1.7,0.7,3.9,0.7,6.6C321.3,322.4,321.1,324.2,320.8,325.8z"/>
	<path class="white" d="M365.3,331.7c0,0.6-0.1,1.1-0.4,1.4c-0.3,0.3-0.6,0.5-1,0.5c-0.4,0-0.7-0.2-1-0.5c-0.3-0.3-0.4-0.8-0.4-1.4v-4
		c0-1.3-0.1-2.4-0.3-3.3c-0.2-0.9-0.5-1.7-0.9-2.3s-0.9-1.2-1.5-1.6c-0.6-0.4-1.3-0.8-2-1c0.8-0.2,1.5-0.4,2.2-0.8
		c0.7-0.4,1.4-0.9,1.9-1.5c0.6-0.6,1-1.3,1.4-2.2s0.5-1.8,0.5-2.9c0-1.7-0.3-3.1-0.9-4.2c-0.6-1-1.5-1.9-2.5-2.4s-2.2-1-3.6-1.1
		c-1.3-0.2-2.7-0.3-4.1-0.3h-18.4v2.5c2.6,0,3.8,0.7,3.8,2v23c0,1.3-1.3,2-3.8,2v2.5h15.2v-2.5c-3.2,0-4.8-0.7-4.8-2v-10.8h6.5
		c1.8,0,3.1,0.6,3.8,1.7c0.7,1.1,1,2.9,1,5.3v3.2c0,1.5,0.5,2.8,1.4,3.9s2.5,1.6,4.8,1.6c2,0,3.4-0.5,4.3-1.4c0.8-1,1.2-2.2,1.2-3.6
		v-1.7h-2.3V331.7z M355.5,316.7c-0.9,0.8-2.2,1.2-4,1.2h-7.1v-10.2h7.1c3.6,0,5.3,1.7,5.3,4.9C356.9,314.5,356.4,315.9,355.5,316.7
		z"/>
	<path class="white" d="M398.8,327.9c-0.4,1.2-0.9,2.1-1.5,2.8c-0.6,0.7-1.4,1.2-2.2,1.5c-0.9,0.3-1.8,0.5-2.9,0.5h-8.4v-24.1c0-1.3,1.6-2,4.8-2
		v-2.5h-15.2v2.5c2.6,0,3.8,0.7,3.8,2v23c0,1.3-1.3,2-3.8,2v2.5h28.2l1-12.3l-2.8-0.3C399.5,325.3,399.2,326.7,398.8,327.9z"/>
	<path class="white" d="M437.3,306.9c-1.3-1.1-3-1.8-5-2.2c-2-0.4-4.3-0.6-6.9-0.6l-16.8,0v2.5c2.6,0,3.8,0.7,3.8,2v23c0,1.3-1.3,2-3.8,2v2.5h16.8
		c2.6,0,4.9-0.3,6.9-0.8c2-0.5,3.6-1.5,5-2.8c1.3-1.3,2.3-3,3-5.2s1-4.8,1-8.1c0-3.2-0.3-5.8-1-7.7S438.6,308,437.3,306.9z
		 M434.1,325c-0.3,1.7-0.7,3.1-1.4,4.2c-0.6,1.1-1.5,2-2.6,2.6c-1.1,0.6-2.4,0.9-4,0.9h-7.1v-25.2h7.1c1.6,0,2.9,0.2,4,0.7
		c1.1,0.4,1.9,1.1,2.6,2.1c0.6,0.9,1.1,2.2,1.4,3.7c0.3,1.5,0.4,3.3,0.4,5.4C434.5,321.5,434.3,323.4,434.1,325z"/>
	<path class="white" d="M484.6,306.6h2.1c1.1,0,1.7,0.4,1.7,1.1c0,0.3,0,0.5,0,0.6l-6.3,22.6l-6.8-21.9c-0.2-0.6-0.3-1.1-0.3-1.5
		c0-0.3,0.1-0.5,0.2-0.7c0.1-0.2,0.4-0.2,0.8-0.2h3.1v-2.5h-13.3v2.5c2.1,0,3.1,0.6,3.1,1.8c0,0.1,0,0.2,0,0.3c0,0.1,0,0.2-0.1,0.4
		l-6.5,21.7l-6.4-23.5c0-0.5,0.4-0.8,1.2-0.8h3.1v-2.5h-14v2.5c0.9,0,1.6,0.2,2.2,0.5c0.6,0.3,0.9,0.7,1.1,1.2l7.9,27.7h6.3
		l6.8-20.8l6.7,20.8h6.3l8.3-27.8c0.1-0.5,0.5-0.9,1-1.2c0.5-0.3,1.4-0.4,2.5-0.4v-2.6h-10.5V306.6z"/>
	<path class="white" d="M501.8,306.6c2.6,0,3.9,0.7,3.9,2v23c0,1.3-1.3,2-3.9,2v2.5H516v-2.5c-2.6,0-3.8-0.7-3.8-2v-23c0-1.3,1.3-2,3.8-2v-2.5
		h-14.3V306.6z"/>
	<path class="white" d="M551.4,306.9c-1.3-1.1-3-1.8-5-2.2c-2-0.4-4.3-0.6-6.9-0.6l-16.8,0v2.5c2.6,0,3.8,0.7,3.8,2v23c0,1.3-1.3,2-3.8,2v2.5h16.8
		c2.6,0,4.9-0.3,6.9-0.8c2-0.5,3.6-1.5,5-2.8c1.3-1.3,2.3-3,3-5.2s1-4.8,1-8.1c0-3.2-0.3-5.8-1-7.7S552.7,308,551.4,306.9z
		 M548.2,325c-0.3,1.7-0.7,3.1-1.4,4.2c-0.6,1.1-1.5,2-2.6,2.6c-1.1,0.6-2.4,0.9-4,0.9h-7.1v-25.2h7.1c1.6,0,2.9,0.2,4,0.7
		c1.1,0.4,1.9,1.1,2.6,2.1c0.6,0.9,1.1,2.2,1.4,3.7c0.3,1.5,0.4,3.3,0.4,5.4C548.5,321.5,548.4,323.4,548.2,325z"/>
	<path class="white" d="M588.3,323.5c-0.5,6.1-3.2,9.2-8,9.2h-8.1v-12h4.6c1.5,0,2.4,1.8,2.7,5.3h2.6l0.6-13.4H580c-0.3,3.5-1.2,5.2-3,5.2h-4.9
		v-10.4h9.6c3.3,0,5.2,2.2,5.5,6.5l3-0.2v-9.7h-28.6v2.5c2.6,0,3.8,0.7,3.8,2v23c0,1.3-1.3,2-3.8,2v2.5h28.6l1-12.3L588.3,323.5z"/>
</g>
<g>
	<path class="white" d="M342.3,243.3c7.1-3.2,13.9-7,20.3-11.5c36.5-25.3,56.8-66.9,54.5-111.2c-1.7-33.9-16.6-65.1-41.9-87.9
		C350,9.9,317.4-1.6,283.4,0.2c-29.8,1.5-58.3,13.6-80.2,34C175.7,60,161.1,96.3,163,133.9c0,0,0,0,0,0c0,0.6,0.1,1.2,0.1,1.8
		c-1.7,1-3.4,2.9-5.5,3.4c-1.1-1.9-4.6-4.7-2.5-6.8c2.2-0.4,3.2-1.1,3.7-1.9c0.8-1.6-1-3.5-1.1-5.1c0.6-0.7,0.8-0.5,1.4-1.1
		c-0.5-0.9-0.6-1.7-1.2-3.3l-0.5-0.5c-1.5-3.2,1.7-3.9,0-5.9c-3.7-0.4-6-0.2-8.6-3.1c-3.5-0.9-5.4,1.3-7.6,3.1
		c-4.8,2.7-0.2,7.9-2,12.1c2.4-1.7,4.1-3.4,5.8-5.8c-0.2,2.8-2.2,5.1-5,6.2c0.4,0.9,1.4,0.3,2.2,0.5c2,0.7,1.6,3,2.8,4.5
		c-2.5,2-4.8,5.2-5.6,8.6c-2.9,7.3-0.2,17.2-3.9,24.3c0.3,3.3-1.6,6.5-1.2,9.6c-0.1,1.6-2.3,1.6-2.3,2.5l2.3-0.6c1.3,1,3.7,1,3.7,3
		c-1.2,0.8-2.4,1.5-4,1.2c-0.8-0.1-1-1.7-2-1.2c-0.6,0.4-2.2,0.1-1.9,1.2c-0.5,1.6,1.4,1,2.2,1.4c6.1,0.8,1.9,7.3,7.2,9.3
		c1.5,10.2-1.4,21.7-2.2,32.7c-1.7,4.2,1.4,8.7-0.8,12.8l1.1,0.6c-1,4.4-0.7,8.8,0.6,12.9c1.6,1.4,2.9-0.7,4.8,0
		c2,0.7,0.7,2.9,1.4,4.2c2.3,1,3.1-0.8,5,0.3l12.4-0.3c1.6,0.9,0.7,2.7,1.2,4c0.8,1.5-0.5,2.9,0.8,4.2c3.2,0.6,5.6-0.8,7.5-3.3
		c2.9-2.4-1.3-5.5,0.8-8.4c0.5-12.5,5.5-23.7,7.5-35.8c2.8-4.8,1.5-11.3,4.7-15.9c3.6,1.2,2.6,5.4,3.7,8.1c2.1,10,3.4,20.3,2.5,30.5
		c0.9,9.4,2.4,17.4,2.5,27.1c0.9,2.2,3.7,1.6,5.6,1.4c1.6-4,6.5-1.3,9.6-2c0.8-0.7,1.4-1,2.5-1.2c3-6.4-6.6-1.4-7.5-6.5
		c2.9-2.9-1.3-5.2-0.3-8.7c2-5-0.6-10.9,0.3-15.9c-0.1-1.2,0.6-3.6-1.2-4.2c1.2-2.3-1.2-6,1-8c12.7,11.9,27.9,21.3,44.6,27.2
		c-9.9,1.6-15.8,3.6-15.8,5.8c0,5.6,38.6,10.1,86.2,10.1c47.6,0,86.1-4.5,86.2-10.1C404.1,248.4,378,244.5,342.3,243.3z
		 M150.7,120.4c1-1.6,2.7-3.8,5.3-2.8l0.4,1.3c-0.4,0.1-0.9,0.4-1,1.2c0,0.8-4.1,1.3-4.9,1.4C150.5,121.2,150.4,120.8,150.7,120.4z
		 M146.9,164.9c0.3,1.7-1.9,2.5-2.2,3.7c-0.2,2.1-0.2,4.7-2,5.9h-0.9c0.2-3.5,2.5-6.9,3.7-10.3c-1.2-1.2,0.1-2.7,0.8-3.4
		C148.3,161.9,145.2,163.6,146.9,164.9z M148.2,156.8l-0.6,1.4c-2.4-0.8,0.2-2.5-0.3-3.9l0.8-0.9
		C148.9,154.1,148.6,155.8,148.2,156.8z M149.4,151.2V149c1-0.7,0.1-3.2,1.9-3.1C150.5,147.9,150.8,150.2,149.4,151.2z M151.9,143.3
		c-0.2,0.3-0.5,0.6-0.9,0.5c-0.5-0.3-0.8-0.9-0.3-1.2C151.3,142.4,152.2,142.6,151.9,143.3z M153.8,134.6L153,135
		c-2.7-1.2-5.6-2.3-7.8-4.2c0.7-1.5,0.7-3.3,2.3-4.5c1.1-0.1,2.7,0.3,3.4-0.3c-2.9-0.2-1.3-2.6-0.9-4c0.1,0,0.1,0,0.1-0.1l5.5-0.7
		c0,0,0.2,1.2,0.8,1.2c0.4,0,0.1-2.3,0-3.2l1.4,4.3c-0.5,0.8-1.3,1.1-1.1,1.9c0.3,1.2,1.5,2.9,1.1,4.5c-0.5,0.4-1.4,0.7-2,1.1
		C154.1,131.4,153.5,132.7,153.8,134.6z M359.7,227.5c-1.3,0.9-2.6,1.8-4,2.6c1.8-1.3,3.6-2.6,5.3-4.1c8.5-6.9,17.7-16.1,25.5-28.3
		c9-11.3,14.5-22.8,17.7-30.9c0,0,0,0,0,0c0.4,0.1,0.7,0.5,1.2,0.2c0,0,0-0.1,0.1-0.1C397.4,191.1,381.5,212.3,359.7,227.5z
		 M306.7,160.4c0.5,1.6-0.4,1.5-1.1,1.7c-0.1,0-0.1,0-0.2,0.1c-1.9,0-3.9,0.1-5.9,0.1c0-0.1,0-0.3,0-0.4c0-1-0.4-1-1.1-1.6
		c-0.5-0.6-0.6-0.5-1.2,0.3c-0.2,0.3-0.4,0.5-0.6,0.7c-0.1-2.4-0.1-4.8-0.2-7.2c0.1,0.1,0.2,0.2,0.3,0.3c0.5,0.3,1,0.6,1.2,0.5
		c0.1-0.1,0.4-0.4,0.6-0.2c0.3,0.2,0.4,0.4,0.8,0.3c0.3-0.3,0.9-0.3,1.4-0.3c0.6,0.1,0.4,0.6,0.3,1.2c-0.1,0.7,0.2,0.5,0.2,0.5
		l0.3,0.2c0,0,0.1-0.4,0.3-0.9c0.2-0.5,0-0.7-0.2-1.1c-0.3-0.3-0.3-0.3-0.3-0.6c0.1-0.4,0.4-0.9,0.9-0.9c0.5,0.1,0.3,0.4,0.2,0.4
		l0.4-0.4c0,0-0.7-0.5-0.9-0.5c-0.6,0.2-2.3,0.1-3.1-0.2c-0.7-0.1-0.8-0.6-0.8-0.6c-1.2-0.6-1.2-0.6-1.4-0.9
		c-0.2-0.3-0.2-0.4,0.5-0.9c0.8-0.6,0.9-0.7,0.9-0.3c0,0.3-0.1,0.5,1.1,0.9c1,0.5,0.8,0.4,1.9,0.2c1.2-0.2,1.1-0.2,1.4,0.5
		c0.4,0.7,0.1,0.8,1.1,1.2c1,0.3,1.2,0.7,1.6,1.1c0.4,0.5,0.3,0.9,0.8,1.1c0.4,0.2,0.8-0.2,0.8-0.2s0-0.2-0.3-0.5
		c-0.3-0.2-0.3-0.5-0.3-0.5s0.2,0.2,0.6-0.2c0.5-0.2,0.8-0.8,0.8-0.8s-0.2,0.1-0.8,0.2c-0.9,0.1-0.5,0.4-0.5-0.3
		c0-0.1-0.5-0.8,0.2-2.8c0.6-1.9,1.5-1.2,2.2,0.6c0,0.3-0.3,0.8,0.2,0.9c0.3,0.1,0.5-0.7,0.9,0c0.6,0.8,1.3,0.4,1.7-0.2
		c0.3-0.4,0.2-0.4,1.1-0.8c1-0.3,1.7-1.1,2.6-2c1.1-0.9,0.9-0.6,0.9-0.6s-0.4,0,0,0.8c0.9,1.9,0.1-0.4,0.2,3
		c0.1,1.7,0.7,0.4,0.8,1.4c0,0,0.1,0.4-0.3,1.2c-0.5,0.9-1.4,0.2-2.5,1.4c-0.4,0.4-0.1,0.8-0.6,0.9c0,0-0.9,0.8-3.4,1.6
		C307.5,158.3,306.3,159,306.7,160.4z M254.8,233.5c-2.8-1.9-5.7-4.1-8.6-6.5c-5.3-4.4-11-10-16.3-16.8c1.3,0.2,1.4-0.3,2.1-0.9
		c0.2-0.1,0.4-0.2,0.5-0.2c5.4,1.7,11.1,3.2,17,4.4c3.6,5.8,7.3,10.6,10.9,14.5c2.5,2.8,5.1,5.3,7.6,7.4
		C263.5,234.9,259.1,234.3,254.8,233.5z M224.1,219.5c-0.8-0.9-0.8-1.8,0.2-2.2c1-0.5,1.2-0.7,2-1.9c0.7-1.2,0.1-1.2-0.3-2.3
		c-0.3-1.2,0.4-0.9,1.2-0.6c0.9,0.3,0.8,0,1.1-1.2c0-0.4,0.1-0.7,0.1-0.9c5.5,7.2,11.3,13,16.9,17.6c2.1,1.7,4.2,3.4,6.3,4.9
		c-9-1.8-17.3-4.4-25-7.6c-1-0.9-2-1.7-3.1-2.7c0.3-0.4,0.7-0.7,0.9-1C225.6,220.8,224.9,220.5,224.1,219.5z M221.5,148.7
		c-0.8-0.9-0.8-1.2-0.8-1.2s-0.8,0.9-1.7,0.9c-1,0.1-0.4-0.7-0.2-0.9c0.3-0.4,0.6-1.2-1.2,0.2c-2,1.2-1.7-0.9-3,0.5l-1.7,1.9
		c0,0-0.2-0.5-0.6-0.9c-0.5-0.8-1.5-1.5-1.9-1.2c-0.5,0.2-0.6,0.5-1.2,0.3c-0.5-0.3,2.4-1.9,2.3-3.3c-0.1-1.3,0.5-1.5,0.8-3.1
		c0.2-1.6,0.7-1.7-0.9-2.2c-3.3-0.9-1.9-1.7-1.7-2.5c0.1-0.3-0.3-2.3-0.8-4.7c2.6-0.1,5.3-0.3,8-0.4c1,2.2,1.9,4.1,1.9,4.6
		c0.2,1.3,0.2,0.4,2,0.8c0.9,0.2-0.5-2.5-2.2-5.5c3.7-0.2,7.3-0.3,11-0.5c0,0.1,0,0.2,0,0.2c0,7.8,0.3,15.1,1,21.9
		c-1.5-0.2-2.7-0.5-2.8-0.6c-0.6-0.4-0.9-1.7-1.1-2c-0.2-0.3-0.9-0.6-1.4-0.5c-0.6,0.2-0.9,0.5-1.7,0c-0.6-0.3-0.9-0.3-1.6-0.6
		C221.5,149.6,222.3,149.5,221.5,148.7z M220.7,191.2c-0.3,1.9-0.5,2.5-0.6,3.4c0,0.1,0,0.2,0,0.2c-2.2-4.2-4.3-8.8-6.2-13.7
		c2.2,0.8,4.6,1.6,6.9,2.3c0.4,1.1,0.5,2,0.5,2l-0.2-0.5c-0.1,1.5,0.6,1.1,0.5,2.8C221.6,189.4,221,189.3,220.7,191.2z M207.8,112.5
		c1.4,0.8,1.5,1,1.9,0.8c0.3-0.3,0.4-0.4,1.9,0.2c1.5,0.5,1-0.6,1.2,0.3c0.2,1,0.7,0.8,1.6,1.4c1.2,1-0.2,2.7,0,4.8
		c0.1,0.2-1.1,3.6,1.2,0.8c0.7-0.9,0.7-0.9,0.6-3.1c0-2.1,0.5-2.7,1.1-3.3c0.7-0.5,0-0.4,1.1-0.9c1-0.6,1.7-0.5,3-0.9
		c1.2-0.4,0.4-0.2,1.1-1.1c0.7-1,0.6-0.5,0.8-1.2c0.2-0.6-0.4-1.4,0.5-1.2c0.9,0.3,0.8,0.2,1.6-1.1c0.2-0.5,0.6,0.7,1.4-0.8
		c0.7-1.2,1.8-0.8,2.8-0.3c1,0.4,0.4-0.5,0.9-1.4c0.3-0.5,0.4-0.8,0.5-0.9c-0.8,9-1.1,17.7-1.2,25.7c-3.9,0.2-7.9,0.4-11.8,0.5
		c-1.6-2.7-3.3-5.4-3.9-6.2c-1.3-1.9-2.2-1.7-3-1.4c0,0-2.1,0.7,0.9,0.9c1.2,0.2-0.1,0.8,0.9,1.1c0.5,0.2,2,2.9,3.4,5.6
		c-2.6,0.1-5.2,0.2-7.7,0.4c-0.7-3.3-1.3-6.7-1-7.1c0.6-0.5,0.4-0.7-0.5-0.9c-0.4-0.1-0.8-0.4-1.2-0.6c0.1-3.5,0.3-7,0.6-10.7
		C207,111.9,207.3,112.2,207.8,112.5z M261,8.7c-5.7,2.8-12.9,7.2-20.2,14.1c-2.3,2.2-4.5,4.6-6.6,7c-3.3,1.5-6.5,3-9.5,4.7
		c-0.2-0.1-0.4-0.3-0.1-0.7c0.6-0.8,0.6-2.1,0.9-2.8c0.2-0.8,1-1.8-0.3-2.2c-1.3-0.2-0.8-1.2-1.7-0.9c-0.2,0.1-0.4,0.1-0.6,0.2
		c1.6-1.4,3.2-2.7,4.7-3.9c4.9-3.8,9.7-6.7,14.2-9C248.1,12.4,254.5,10.3,261,8.7z M274.9,6.1c-4.9,2.6-11.7,7.4-18.6,16.4
		c-7,1.6-13.4,3.7-19.4,6.2c1.5-1.7,3.1-3.3,4.7-4.9c9.6-9.2,19.3-14,26.1-16.6C270.1,6.8,272.5,6.4,274.9,6.1z M286.6,5.2
		c1,0,1.9,0,2.9-0.1c0.1,2.1,0.3,6.8,0.6,13.3c-4.7,0.1-9.2,0.3-13.5,0.7C280.8,10,284.8,6.5,286.6,5.2z M290.2,19.8
		c0.3,5.4,0.6,12,0.9,19.1c0,0-0.1,0-0.1,0c-6.8,0.4-14.1,1-21.6,2.1c2.1-8.7,4.4-15.3,6.6-20.4C280.5,20.1,285.3,19.8,290.2,19.8z
		 M326.5,10.7c5,2.5,10.6,6,16.2,10.8c4.2,3.6,8,7.5,11.5,11.7c-7.3-4-15.6-7.4-24.9-10c-0.5-0.6-1-1.3-1.5-1.9
		c-6.1-7.3-12-11.7-16.8-14.3C316.3,7.8,321.4,9.1,326.5,10.7z M358.4,26.9c9.7,7.5,20.4,18.2,29,33.2c-7.4-8.6-17.3-17.8-30.2-25.3
		c-4-5.2-8.5-10-13.6-14.4c-3.5-2.9-6.9-5.4-10.2-7.4c4.6,1.8,9.1,3.8,13.5,6.1C350.7,21.4,354.5,24,358.4,26.9z M408.9,144.6
		c-0.3-0.2-0.7-0.6-1.2-1c-0.3-0.2-0.4-0.3-0.6-0.3c2.5-4.2,4-7.6,4.8-9.6c0,0.8-0.1,1.6-0.1,2.4c-0.2,0.1-0.4,0.2-0.4,0.4
		C411.4,136.7,410.7,139.7,408.9,144.6z M344.9,190.4c-0.4-0.8-0.3-1-0.9-1.2c-0.4-0.1-0.8-0.9-1.1-1.7c3.7-1,7.1-2,10.4-3.1
		c-0.7,2.6-1.5,5.2-2.3,7.6c0,0,0,0,0-0.1c-0.2-0.6-0.3-0.7-0.2-1.1c0.2-0.3-0.1-0.7-0.3-1.1c-0.1-0.4-0.3-0.5,0-0.9
		c0.2-0.4-0.1-0.6-0.3-1.1c-0.2-0.6-0.6-0.8-1.1-1.1c-0.4-0.4-0.8-0.3-0.8-0.3s0.2,0.6,0.3,0.9c-0.1,0.5-0.2,1.5-0.3,1.9
		c0,0.2-0.8,2.4-1.2,3c-0.4,0.4-0.7,1.4-0.8,2c-0.1,0.6,0.3,0.6,1.1,2.3c0.4,0.9,0.7,2,0.8,3c-0.9,2.1-1.8,4.2-2.7,6.1
		c0-0.1-0.1-0.2-0.1-0.3c-0.5-1.5-1-1.2-1.4-1.4c-0.3-0.1-0.2-0.4,0-0.8c0.4-0.5,0.8-1.7,0.9-2.5c0.2-0.7,0-2.5,0.5-3.1
		c0.4-0.5,0.5-0.9,0.6-1.9c0.2-1,0.3-1.7,0.3-1.7C346.2,193.2,345.2,191.4,344.9,190.4z M335.1,166.1c-0.2-0.4-0.2-0.5-0.8-0.8
		c0,0-0.9,0.1-1.7,0c-0.3,0-1.3-0.3-2.6-0.7c0-0.5,0.1-1.1,0.1-1.6c1.5,0.4,3.9,0.3,4.5,1.2c0.8,1.2,1,2.4,2.2,0
		c0.4-0.8,0.2-1.3-0.2-1.7c0.2,0.1,0.4,0.1,0.6,0.2c0.6,1.4,1.2,2.2,1.7,2.7c0,0.1-0.1,0.1-0.1,0.2c-0.7,1-1.1,1.5-1.7,1.7
		c-0.8,0.3-0.6-0.1-1.6-0.2C334.5,166.9,335.2,166.5,335.1,166.1z M327.6,149.8c-1.6,0.1,0.5-2.5-0.5-2.2c0.7-0.3,1.3-0.2,2,0.1
		c0,0.6,0,1.2,0,1.9C328.4,149.7,327.9,149.8,327.6,149.8z M328.8,162.3c0,0.6-0.1,1.3-0.1,1.9c-1.4-0.5-2.8-1.1-3.9-1.8
		c1.3-0.1,2.5-0.2,3.8-0.3C328.7,162.2,328.7,162.3,328.8,162.3z M322.8,88.5c-1.3-0.3-1.7-1-3.3,1.2c-1.4,2.2-1.6,3.2-0.3,4.6
		c-4.1-0.1-8.1-0.2-12-0.2c-4.3,0-8.4,0.1-12.3,0.2c-0.4-8.6-0.8-18.3-1.2-28.1c10.2-0.5,19.4-0.3,28,0.5c0.2,0.9,0.3,1.9,0.5,2.8
		c-0.7,0.2-1.3-0.1-1.3-0.1s-0.2,0.8,1.4,2c0.1,0.1,0.2,0.1,0.3,0.2c0.3,1.6,0.5,3.2,0.8,4.8c-0.6,1.5-0.7,2.6,0.2,3.2
		c0.1,0.1,0.2,0.1,0.3,0.2c0.1,0.7,0.2,1.5,0.3,2.2c-0.1,0.3-0.2,0.7-0.3,1.2C323.1,86,324,88.7,322.8,88.5z M317.5,100
		c1.1,0.2,1,0.7-0.2,1.2c-1.3,0.6-4.1,2.2-5.1,4c-0.9,1.9-1.6,4.9-2.3,3.3c-0.7-1.6-2.9-0.4-1.9,0.2c1.1,0.6,1.4,2.8,1.4,2.8
		s-0.4-0.6-0.9,0.2c-1.2,2,0.1,3-1.1,3.4c-1.2,0.4-2,0.8-1.2,1.2c0.8,0.5,0.9,0.8,0.9,0.8s-0.9,1.3-2,0.2c-1.1-1.1-1.9-1.6-1.9-1.6
		s-0.6,0,1.2-1.1c1.9-1.1,4.7-3.6,1.4-3.6c-3.4-0.1-6.2,1.7-6.2,1.7l-0.2-0.6c-0.3-0.6-2.2-0.5-2.2-0.5c-0.5,0.3-0.8,0.4-1.1,0.2
		c-0.3-0.3-0.4,0.3-0.3,0.8c0,0.6,0,0.7-0.2,0.6c-0.1-0.1,0-0.4-0.1-0.4c-0.2-4.7-0.4-10.5-0.7-17.2c9.2-0.3,17.8-0.3,25.7,0
		c0.5,0.4,0.8,0.5,0.8,0.6c-0.2-0.1-1.6-0.7-2.9,1c-1.6,1.8-3.1,2.2-3.1,2.2S316.4,99.9,317.5,100z M298.2,132.4
		c-0.6,1.3,0.3,2.5,0.2,3.7c-0.1,1.2-0.7,0.9-1.4,1.1c-0.5,0.1-0.7,0.5-0.8,0.9c-0.1-3.6-0.1-6.7-0.2-9.2c1,0,2.1-0.1,3.2-0.1
		c-0.2,0.4-0.2,0.9-0.1,1.4c0.4,0.9,0.2,0.7-0.5,0.3C298,130.3,298.7,131.3,298.2,132.4z M296.7,216.5c-0.5,0-1,0-1.5,0
		c-7.5,0-14.7-0.4-21.6-1c-2.7-6.6-5.2-14.5-7.2-23.9c6.5,0.6,13.2,0.9,20.2,1.1c0.1,0.2,0.2,0.5,0.3,0.7c0.7,1.5,0.9,2.9,0.9,3.9
		c0.2,0.9,0.6,2.4,1.4,2.8c0.7,0.5,2.1,0.6,3.1,0.9c0.9,0.2,0.7,0.2,1.1,0.8c0.2,0.5,1.7,0.8,2.8,1
		C296.5,207.6,296.6,212.2,296.7,216.5z M233.8,208c-0.1-0.4-0.5-0.9-1.1-1.6c-1-1.3,0.7-0.6,2.8-0.3c2,0.3,1.4,0,1.9-1.2
		c0.5-1.4,1.2-1.4,2-2.2c0.7-0.8-0.2-0.7,1.1-1.9c0,0,0.9-0.7,1.3-2.4c2.2,5,4.5,9.5,6.9,13.5C243.5,210.8,238.5,209.5,233.8,208z
		 M231,131.6c0-0.1,0-0.2,0-0.3c10.1-0.5,20-0.9,28.6-1.3c0,0.5,0,1,0,1.6c-0.1,9,0.2,19.1,1.1,29.6c-5.4-0.3-10.6-0.7-15.6-1.1
		c-0.1-0.2-0.2-0.4-0.5-0.6c-0.7-0.5-0.7,0.1-1.1-0.3c-0.3-0.5-1.4-0.5-2-0.3c-0.6,0.1-0.8,0-0.6-0.5c0.1-0.3,0-0.3-0.5-0.6
		c-0.3-0.4-0.5-1.1-0.6-1.9c-0.2-0.8-0.6-0.6-1.2-0.9c-0.3-0.3-3.7-0.7-6.5-1.2C231.2,145.9,231,138.4,231,131.6z M225,83.8
		c-0.4-1.4-0.3-2.7-1.4-3.7c-0.8-0.8-0.6-0.6-0.7-1.9c4-1.3,8-2.5,12.1-3.5c-0.4,2.2-0.9,4.4-1.2,6.6c-0.5,0.7-0.9,1.4-1.1,2.4
		c-0.1,0.6,0.2,1,0.5,1.4c-0.1,0.4-0.1,0.9-0.2,1.3c-1.3,0.4-1.3,0.3-2,3.2c-1.5,5.4-3.5-1.6-1.9-3C230.6,85.1,225.4,85.2,225,83.8z
		 M233.3,69.7c-1.2-2.8,1,1.8,2.3-0.9c0.2-0.6,0.4-0.3,0.7,0.1c-0.3,1.4-0.7,2.9-1,4.3c-4.3,1.1-8.5,2.3-12.4,3.6
		c0-2.7,5.8-4.9,7.6-5.9C232.4,70,234,71.2,233.3,69.7z M241,56.6c0.4,0.1,0.9,0.3,1.7,0.1c1.4-0.6,1.5-2.2,0.6-2
		c-0.6,0.1-1.2,0.1-1.7,0.3c0.8-2.5,1.7-5,2.7-7.5c1.9-0.5,3.8-1,5.7-1.5c0.2,0.1,0.3,0.3,0.5,0.4c1,0.7-0.9,0.6-1.2,1.9
		c-0.3,1.3,0.9,1.5,3,0.6c0,0,3,1.1,1.8-3.8c0.4-0.1,0.9-0.2,1.3-0.3c0.3,0.8,1,1.7,1.6,2.2c1.2,1.2,0.7,2.2-0.3,1.4
		c-0.9-0.9-1.1-1.2-1.4,0.2c-0.2,1.4,1,3-0.3,1.7c-1.2-1.2-2.9-0.5-2.5,1.1c0.3,1.5-0.5,2.1-1.4-0.3c0,0,0,0,0,0
		c-0.1,0.3-0.5,0.6-1.4,0.5c-2.8-0.3-0.3,1.6,2.3,3.3c0,0,2.2,1.6,2.2,0.5c-0.1-1.1,3.2-1.6,4.2-1.9c1-0.2-0.3-2.1,1.4-1.6
		c1.4,0.6,3.7,0.2,6.1-0.2c-0.1,0.5-0.2,1.1-0.3,1.7c-0.8,0.1-1.7,0-2.6,0.1c-1.4,0.1-0.9,1,0.2,0.8c1.1-0.1,1.3,0.2,0.2,0.8
		c-1.1,0.5-0.8,0.3-2.5-0.2c-1.7-0.4-2.2,1.4-0.3,2.5c1.8,0.9,0.9,1-0.9,0.5c-1.8-0.6-1.7-0.2-0.9,0.8c0.8,0.9,0.3,1.4,1.1,1.7
		c0.8,0.3,2.2,0.3,3,2.8c0.5,1.6,0,3.4-0.8,5c-4,0.6-7.9,1.2-11.7,1.9c0.2-0.4,0.4-1,0.5-1.8c0.8-3.9-1.4-2-1.1-3.3
		c0.4-1.3,0.6-2.7-1.1-2.3c-1.7,0.5-1.8-0.7-0.6-2.3c1.2-1.6-2.2-2.1-3.6-0.2c-1.5,1.9-2.7,2.3-0.9,0.2c1.7-2.2,1.6-2.5,0.6-2.5
		c-1,0-3,1.8-2.8,3.1c0.3,1.2-1.1,0.1-0.9,1.2c0.2,1.2,2.1,2.5,4,3.6c2,1,1.3,1.4,1.1,3.7c0,0.6-0.1,1.1-0.2,1.5
		c-2.9,0.6-5.7,1.2-8.4,1.9c0.2-1.1,0.5-2.2,0.7-3.2c0.4,0.1,1,0,1.8-0.3c1.6-0.7,0.2-1,1.4-1.9c1.1-0.8,2.1-1.4,1.1-2.5
		c-1.1-1-1.3,0.1-3.3,1.2c-0.1,0-0.1,0.1-0.2,0.1C239.1,62.9,240,59.7,241,56.6z M241.1,46.9c0-0.1,0.1-0.3,0.3-0.5
		c1.1-1.4,0.4-1.5-0.9-0.3c-1.5,1.1-1.2,0.1-0.9-1.4c0,0,0.4-1.1-1.9-0.5c1.3-0.4,0.5,2.4-0.5,1.9c0.6,0.3-0.1,0.8,0.2,1.9
		c0,0,0,0,0,0c-1.5,0.5-3,1-4.5,1.5c0,0,0,0,0-0.1c0-0.4,1.4-0.5,1.2-1.1c0,0,0-0.1-0.1-0.1c-0.1-0.1-0.2-0.1-0.3-0.1
		c-0.5,0-1.6,0.3-2.6,0.7c-1.1,0.5-2.1,1.1-2.1,1.4c0,0,0,0.1,0,0.1c0.1,0.1,0.2,0.3,0.3,0.4c-1.9,0.7-3.8,1.5-5.7,2.3
		c1.1-2.2,0.9-2,0.4-2.3c-0.7-0.4,0.8-1.4,0.8-1.4s-0.9-0.2,0-1.4c0.7-0.9,1-1.2,1.1-1.2c0,0-0.2,0.2-1.1,0.6
		c-0.4,0.3-0.7,0.2-0.8,0c3.2-5.8,6.9-11.4,11.1-16.5c6.1-2.6,12.8-4.9,20.1-6.7c-4.8,6.6-8.7,14.1-11.9,22.2
		C242.5,46.5,241.8,46.7,241.1,46.9z M237.9,47.9c-0.1,0-0.3,0.1-0.4,0.1C237.5,47.9,237.6,47.7,237.9,47.9z M227.9,53.6
		c-0.2,0.2-0.9,0.2-1.7,0.1c-0.1,0-0.3,0-0.4,0.1c0.7-0.3,1.3-0.6,2-0.8c0.1,0.1,0.2,0.3,0.3,0.4C228,53.4,228,53.5,227.9,53.6z
		 M277.2,84.6c-1.2-0.6-1.6-0.7-1.7-0.8c0.3,0,2.6,0,3.5,0.5c1,0.5,1.5,0.2,0.2-1.7c-1.4-1.9-0.1-1.3,0.6-1.1
		c0.8,0.3-0.5-1.5,0.8-1.2c1.3,0.3-0.1-0.8,0.8-0.9c0.8-0.3,1.4-0.4,0.5-1.6c-0.9-1.1,0.9-0.6,0.9-1.6c0-1-0.9-1,0.2-1.9
		c1.1-0.7,0.4-1.2-0.3-1.9c-0.7-0.6,1.1-1.7,2.5-2.3c1.6-0.8,1.8-1.7,3.1-2.2c1.4-0.3,1.8,0,1.7-1.2c0-0.1-0.1-0.2-0.1-0.3
		c0.8-0.1,1.7-0.1,2.5-0.1c0,0,0,0,0,0c0.4,9.8,0.9,19.5,1.2,28.1c-5.3,0.2-10.5,0.5-15.5,0.8c0.2-0.1,0.4-0.3,0.5-0.5
		c0.8-0.6-0.3-1.8-0.8-3c-0.5-1.2-1.1-0.1-1.6,0.5c-0.6,0.7-0.9,1-1.1,0.3c-0.2-0.6-0.6-1.7-0.9-1.1c-0.4,0.6-1.1,1.6-0.9,0.6
		c0-1.1-0.7-1.1-2-0.8c-1.4,0.4-0.8,1.9,0.5,1.6c1.2-0.4-0.6,0.5-0.5,2.2c0,0.3,0.1,0.4,0.1,0.6c-3.2,0.2-6.4,0.5-9.4,0.8
		c0.1-2.4,0.3-4.7,0.5-7c0.1-0.2,0.4-0.4,0.8-0.7c0,0,1.2,0.2,1.4-1.4c0.4-1.6,0.1-1.7,2.2-1.2c1.9,0.5,1.1,0.9,2.8,0
		c1.6-0.8,2.7-1.7,4.5-0.9c1.8,0.7,1.8,1.1,4,0.8C280.3,85.6,279.2,85.7,277.2,84.6z M290.4,169.6
		C290.4,169.6,290.4,169.6,290.4,169.6c-0.7,0.1-0.4,0.2-0.9,0.6c-0.5,0.3-0.5,0-0.9,0.2c-0.4,0.3-0.6,0-0.8,0.6
		c-0.1,0.6-0.3,0.5-0.2,1.1c0.3,0.5,0.7-0.4,0.2,1.1c-0.6,1.3-1,1.2-0.9,2.6c0,1.6-0.1,1.5,0.3,2.8c0.4,1.2,0.6,0.5,0,1.9
		c0,0-0.6,1.2-1.1,2c-0.5,0.8-0.5,1-0.3,1.6c0.2,0.5,0,0.8-0.2,1.6c0,0.6,0,1.2,0.2,1.7c0.1,0.5,0.2,0.4-0.2,1.2
		c-0.3,1-0.8,1.3-0.3,2c0.1,0.3,0.3,0.6,0.5,0.9c-6.8-0.2-13.4-0.6-19.7-1.1c-1.7-8.1-3.1-17.3-4.1-27.8c6.5,0.4,13.2,0.6,20.2,0.8
		c-0.1,0.2-0.2,0.4-0.1,0.6c0.3,0.8,0.9,0.6,1.2,2.5c0,0-0.2,0.8,0.6,1.7c0.8,0.8,0.4,3,1.2,2.8c0.9-0.3,0.1-0.2,0.9-0.8
		c0.9-0.6,0.5-0.5,1.1,0c0.5,0.5,0.5-0.3,0.8-0.6c0.4-0.7,1-2.3,1.6-2.8c0,0-0.1,0.4,0.3-1.2c0.3-1.1,0.4-1.5,0.2-2
		c1.3,0,2.6,0,3.9,0c-0.4,0.2-0.8,0.5-1.5,1.1c-0.9,1-1.1,1.1-1.4,1.7C292.2,164.4,290.6,171.9,290.4,169.6z M252.1,186.5
		c0.3-0.5,0.5-0.7,0.2-1.1c-0.4-0.5-0.1-1.3,0.6-1.2c0.8,0,1.1-1.1,1.6-2.2c0.5-1,1.1-1.2,1.9-2l0.3-0.8c0.3-1.6,1,0.3,0.2-2.6
		c-0.5-2.2-0.9-0.6-1.7-1.6c-2.4-2.8-3.3-3.1-4.4-3.3c-1.1-0.3-1.4-0.6-2.2-0.9c-0.9-0.5-0.1-1.1-1.1-1.2c-0.9-0.3-1.6-1.3-2.5-1.2
		c-2,0,3-2,0.6-2.3l0.8-0.6c0.8-0.2-0.1-2.1-0.3-3c-0.1-0.6,0.1-0.7-0.1-0.9c4.7,0.4,9.7,0.8,14.8,1.1c0.8,9.1,2.1,18.5,4,27.7
		c-4.4-0.4-8.6-0.9-12.7-1.5c0.1-0.2,0.2-0.5,0.3-0.7C252.6,187.3,251.9,186.9,252.1,186.5z M232.2,104.2c0.7-0.1,1.7-0.2,2.2-0.1
		c0.8,0.2,1.1-0.1,2,0.2c1,0.2,1.1-0.3,1.1-0.3l0.2,0.5c0,0-1.4,0.1-1.9,0.8c-0.6,0.5,0.4,1,1.1,0.5c0.8-0.6,0.6,0,1.2,0
		c2.3-0.1,1.3-0.9,2.8-0.5c0.3,0.1,0.5,0.1,0.5,0.2c-0.1-0.1-0.5-0.5-0.2-1.4c0.4-1.2-0.1,0.3-1.4,0.5c-1.3,0.1-1.3-0.4-1.7-1.2
		c-0.3-0.9,0.2-1.6,0-2.2c0-0.1,0-0.1,0-0.2c7.1-1.1,14.6-2.1,22.5-2.9c-0.5,9.3-0.9,19.6-1,30.9c-8.6,0.4-18.5,0.8-28.6,1.3
		C231.1,121.9,231.4,113.2,232.2,104.2z M239.3,99.3c-0.3-0.5-1.6-0.9-3.5-0.3c-0.6,0.2-1.9,0.5-3.2,0.8c0,0,0-0.1,0-0.1
		c1.6-0.5,3.1-1.1,4.1-1.8c0.4-0.4,1,0.1,1.6-0.3c0.6-0.4,2.4,0.6,3.9,1.3C241.2,99,240.2,99.1,239.3,99.3z M247.5,98.1
		c0-0.2,0.1-0.3,0.1-0.4c0.2-0.5,0.6-0.7,0-1.1c-0.5-0.5-0.3-0.8-0.6-2c-0.5-1.3-1.1-1.9-1.4-2.6c-0.4-0.6,0.2-1.7,0.2-4.4
		c-0.1-2.8-2.3-3.1-2.3-3.1s0.6,1.4-0.9,2.2c-1.5,0.7-0.3-0.4-0.8-0.9c-0.5-0.6-2.9-0.9-2-2.3c0.9-1.3,0.7-1.2,0.2-2.2
		c-0.6-0.9,0-1.5-1.9-2.8l-1.7-1.1c-0.2,0.6-0.4,1.1-0.7,1.6c0.3-1.5,0.6-3.1,0.9-4.6c2.3-0.6,4.6-1.1,6.9-1.6c-0.1,0-0.1,0-0.2,0.1
		c-1.8,0.7-1.5,1-3.7,1.1c-2.3,0,1.6,0.4,1.7,3.4c0,1.8,0.7,2.9,2.2,4.2c0,0,0.5,0.3,0.2-1.6c-0.3-1.8,0.5-1.4,0.6-0.5
		c0.1,1.1,2.4,2.5,2-0.6c-0.5-3,0.2-4.7,1.1-2.6c0.8,1.9-0.7,3.7,1.6,1.6c2.1-2.2,1-1,0-4.5c-0.2-0.8-0.2-1.3-0.2-1.6
		c4.1-0.8,8.2-1.5,12.3-2.1c-0.2,0.3-0.4,0.6-0.6,0.8c-1.5,1.8-1.4,1.8-0.2,1.6c1.1-0.4,0.3,1,0.3,3.1c0.1,2.1-0.7,1.6-2,2.2
		c-1.4,0.6-1.4,0.1-2,1.4c-0.7,1.3-1.5,1.4-1.1,3.1c0.3,1.7,1.8,2.2,1.9,4.5c0,2.5,0.9,3.6,1.4,4.2c0.6,0.6,0.8,0.3,0.9,1.4
		c0.1,0.8,0.8,0.3,1.5-0.3c-0.1,1.7-0.2,3.4-0.3,5.2C256.1,97,251.7,97.5,247.5,98.1z M237,66c-0.1,0.3-0.2,0.7-0.2,1
		C236.4,67,236.4,66.8,237,66z M286,135.5c0.2,0.1,0.4-0.1,0.5,0.2c0.1,0.4,0.3,0.7,0.6,0.9c0.3,0.1,0.4-0.4,0.6,0.5
		c0.1,0.8,0.2,0.8,0.8,1.1c0.5,0.2,0.5,0.1,0.8,0c0.2-0.1,0.5-0.2,0.6-0.9c0-0.5,0-0.5,0.2-0.9c0.3-0.4,0.4-0.5,0.5-1.2
		c0-0.8,0.2-0.8,0.2-0.8s0.2,0.2,0.3,0.9c0.2,0.8,0.1,1,0.8,1.2c0.8,0.3,0.8-0.2,0.9,0.3c0.2,0.5,0.2,0.7,0.6,1.2
		c0.4,0.4,0.6,0.3,0.6,0.3s0.2-0.3,0.5-0.8c0.1-0.3,0.3-0.8,0.4-1.2c0,1.2,0.1,2.5,0.1,3.8c-0.2,0.1-0.3,0.1-0.4,0.1
		c-0.5-0.1-0.9,0-1.2,0.6c-0.4,0.5-0.4,0.5-0.9,0.3c-0.6-0.1-0.7-0.5-0.6-1.2c-0.1-0.7,0.1-1.1-0.3-1.4c-0.3-0.3-0.5-0.2-0.9,0
		c-0.4,1-0.6,0.7-0.3,1.4c0.2,0.8,0,0.7,0.6,1.4c0.7,0.8,1.3,1.2,0.5,1.9c-1,0.6-1.4,0.8-1.7,1.7c-0.2,1-0.3,1.1-0.3,1.1V145
		l-0.3,0.8c0,0,0.1,0.1,0,0.9c-0.2,0.7-0.3,2.3-1.1,3c-0.7,0.6-0.1,2.4-1.4,2.6c-0.5,0.1-0.9,0.8,0,1.1c0,0-0.1,0.7-0.9,0.8
		c-3.2,0.2-2.1,1.9-1.5,2c-0.3,0.3-0.5,0.6,0.5,0.4c1.5-0.2,2.4-0.1,2.5,2.2c0.1,2.2-0.2,1.6-3,3.3c-7.7-0.1-15-0.4-22-0.8
		c-0.8-9-1.2-18.9-1.1-29.7c0-0.5,0-1.1,0-1.6c12.7-0.5,22.3-0.9,25.3-0.9c0.6,0,1.4,0,2.5,0c-0.1,0.4-0.2,0.8-0.3,1.3
		c-0.1,0.7-0.6,1.3-0.9,1.6c-0.3,0.3-1,1.9-1.1,2.3C286.3,134.8,285.9,135.4,286,135.5z M294.4,130.5c-0.5-0.2-0.5-0.7-0.6-1.5
		c0.3,0,0.5,0,0.8,0c0,0.5,0,1,0,1.6C294.6,130.5,294.5,130.5,294.4,130.5z M294.7,132.7c0,0.4,0,0.8,0,1.3
		c-0.1-0.2-0.2-0.4-0.1-0.7C294.6,133.1,294.7,132.9,294.7,132.7z M293.8,127.7c0-0.8,0.2-1,0.5-1.5c0.1-0.2,0.2-0.4,0.3-0.6
		c0,0.6,0,1.3,0,2.1C294.3,127.7,294.1,127.7,293.8,127.7z M289.6,162.2c0.1-0.5,0.5-1,0.8-1.6c0.4-1.2,0.8-1.9,0.3-2.6
		c-0.3-0.8-0.1-0.7,0.6-1.1c0.8-0.5,1-0.4,1.4-1.1c0.4-0.7,1.4-1.6,1.6-1.6l0.3-0.6c0.1-0.3,0.3-0.6,0.6-0.7c0.1,3,0.1,6.1,0.2,9.4
		c0,0-0.1,0-0.1,0C293.3,162.2,291.5,162.2,289.6,162.2z M294.3,113.7c0-0.1,0-0.2,0-0.3c0,0.1,0,0.3,0,0.4
		C294.3,113.8,294.3,113.8,294.3,113.7z M294.1,113.2c-0.3,0.3-0.6,1.4-1.2,2c-0.5,0.7-0.5,1.5-0.6,1.9c-0.2,0.4-1,0.7-0.9,1.2
		c-0.1,0.6-0.7,1.4-1.1,2.8c-0.5,1.5,0.1,1.1-0.3,1.9c0,0-0.4,1-0.6,3.1c0,0.7-0.1,1.2-0.2,1.6c-1.3,0-2.2,0-2.9,0
		c-3,0-12.7,0.3-25.3,0.9c0.1-11.3,0.5-21.6,1-30.9c4-0.4,8.1-0.7,12.3-1c0.5,0.4,1.9,1.1,2.3,0.2c0.1-0.1,0.1-0.2,0.2-0.3
		c5.5-0.4,11.2-0.7,17-0.9c0.3,6.7,0.5,12.7,0.7,17.4C294.3,113.1,294.2,113.1,294.1,113.2z M293.6,64.9c-0.4-8.5-0.8-17-1.1-24.8
		c8.3-0.4,16-0.1,23.2,0.6c2,6.8,3.9,14.9,5.7,24.7c-5.9-0.5-11.7-0.7-17.2-0.7C300.5,64.7,296.9,64.8,293.6,64.9z M258.7,44.1
		c3-0.6,5.9-1.1,8.8-1.5c-0.4,1.9-0.9,3.9-1.3,6c-0.5-0.4-1-0.8-1.4-1.2c-2-1.9-0.6-1.4-1.9-2.6C262,43.6,260.9,44.3,258.7,44.1z
		 M237.5,63.9c-0.6,0.3-1.3,0.8-1.3,0.8s0.8-2.4,1.7-4c0.4-0.7,0.6-1.1,0.8-1.4C238.3,60.8,237.9,62.3,237.5,63.9z M231.3,100
		C231.3,100,231.3,100,231.3,100c-0.2,0.1-0.4,0.1-0.7,0.2C230.8,100.1,231.1,100.1,231.3,100z M242.3,196.4c1-1.7,4.3-2.2,6.4-2.1
		c1.3,0.2,0.9-0.5,1.1-1.4l0.3-0.6c0.7-0.6,0.8-0.5,1.2-1.7c0.1-0.2,0.1-0.4,0.2-0.6c4.4,0.6,8.9,1.1,13.5,1.6
		c1.8,8.2,4.1,16.3,7.1,23.9c-7.6-0.7-14.9-1.8-21.8-3.1C247.2,207.2,244.5,201.8,242.3,196.4z M296.5,123.5c0,0.4-0.2,1.1-0.5,1.9
		c0,0.1-0.1,0.2-0.1,0.2c0-1.3,0-2.2,0-2.9c0-0.5,0-1.2,0-2c0.3-0.1,0.5-0.2,0.8-0.2c0.8,0,0.7,1,0.5,1.6
		C296.8,122.8,296.3,123.3,296.5,123.5z M296,127.6C296,127.6,295.9,127.6,296,127.6c-0.1-0.2-0.1-0.5-0.1-0.7
		c0,0.1,0.1,0.2,0.1,0.3C296,127.4,296,127.5,296,127.6z M298.5,127.6c0.1-0.1,0.2-0.2,0.3-0.3c0.8-0.6,1.2-0.8,1.6-0.9l-0.2,1.1
		c0,0-0.1,0.1-0.1,0.1C299.5,127.5,299,127.5,298.5,127.6z M323,66.8c0.1,0,0.3,0,0.4,0c0,0.1,0,0.1,0,0.2c0,0.4-0.1,0.8-0.2,1.1
		C323.1,67.7,323,67.2,323,66.8z M323.9,72.4c0.5,0.3,0.7,0.7,0.3,1.7C324.1,73.6,324,73,323.9,72.4z M323.7,65.6
		c-0.3,0-0.7-0.1-1-0.1c-1.7-9.6-3.7-17.8-5.6-24.7c5.8,0.7,11.2,1.7,16.4,3c0.6,0.8,1.3,1.6,0.8,1.9c-1.1,0.8-1.8,1.8-0.9,3.3
		c0.9,1.6,0,1.5,2,2.2c2.1,0.6,2.2,3.2,1.4,3.9c-0.8,0.6-0.5,3.8-3.7,3.3c-3.2-0.5-4.7-0.7-3.6,1.7c1,2.6,2.1,2.9,0.5,3.4
		c-0.6,0.2-0.7,1.4-0.6,2.8c-1.1-0.1-2.2-0.3-3.3-0.4C325,64.9,324.2,64.6,323.7,65.6z M333.2,28.3c-0.1,0-0.1,0-0.2-0.1
		c-0.8-1.1-1.5-2.3-2.4-3.3c9.7,2.8,18.2,6.6,25.7,10.9c1.9,2.5,3.7,5.1,5.4,7.7c-1.5,0.2-4.9-0.3-6.6-1.3c-3.6-2-2.5-3.1-2.5-3.1
		s-3.7-1.6-5.4-2.8c-1.9-1.2-2.3-2.3-2.3-2.3s-1.3-0.1-3,0c-1.5,0-6.9-1.4-5.1-2.5c1.8-1,1.8-2-0.8-2c-0.6,0-0.8,0-0.9,0
		C335.3,29.5,336.2,29.3,333.2,28.3z M411.6,116c0.1,0.7,0.1,1.4,0.2,2.1c-1.2-2.6-3.6-7.3-7.9-12.8c-0.5-3.4-1.1-6.6-1.8-9.8
		c6.5,11.3,9,20,9,20.1C411.2,115.8,411.4,116,411.6,116z M397.3,141.7c-0.5,0.2-0.7,0.6-1.4,0.9c-0.2,0.1-0.4,0.2-0.5,0.2
		c2.4-1.5,4.4-2.9,6.2-4.3c0,0.2,0,0.4,0,0.6c-0.2,0.8-0.1,0.4-0.3,1.1c0,0.6,0.1,0.7,0.3,1.2c0.2,0.4,0.3,0.6,0.6,1.2
		c0.2,0.7-0.1,0.8-0.2,1.4c-0.1,0.7-0.3,0.9-0.8,1.2c-0.3,0.2-0.6,0.1-1.9-0.3c-1.2-0.4-2.2,0.8-1.9-1.7
		C397.5,142.6,398.3,141.2,397.3,141.7z M393.2,146.1c0.2,0.5,0.1,0.4-0.2,0.9c-0.3,0.4,0.1,0.6,0,1.1c0,0.6-0.5,0.3-0.9,0.5
		c-0.4,0-0.3-0.2-0.6-0.3c-0.4-0.1-0.4,0.1-0.9,0.3c-0.4,0.4-0.2,0.6-0.5,1.1c-0.3,0.5,0.1,0.2-0.2,0.8c-0.4,0.7-0.3,0.6-0.2,0.9
		c0.1,0.4,0.2,0.2,0,0.5c-0.1,0.4-0.2,0.4-0.5,1.1c-0.1,0.7,0,0.4-0.3,0.6c-0.4,0-0.3-0.2-0.5-0.3c0,0,0,1.1-0.2,2.5
		c0,1.5-1.4,2.4-2.5,4.2c-0.3,0.6-0.6,0.3-1.1,0.8c-0.4,0.6-0.3,0.7-0.5,1.2c-0.1,0.2-0.2,0.3-0.3,0.4c0.8-4.6,1.5-9.4,1.8-14.4
		c1.7-0.8,3.3-1.6,4.9-2.5c1.3-0.7,2.5-1.4,3.7-2.1c0,0.1,0,0.1,0.1,0.2c0.1,0.3-0.2,0.4-0.6,0.9c-0.5,0.6-0.3,0.5-0.6,0.9
		C393,145.8,393,145.7,393.2,146.1z M374,143.9c-1.1-1.1-1.6-2.1-2.8-2.2c-2.5,0-0.9-1.7-2-2.8c-1.1-0.9-1.1-3.3-1.1-3.3
		s0.5,0.6,1.9,0.6c1.4-0.2,3.1,1.6,3.1,1.6s0.6-1.8,1.2-3.3c0.7-1.4,0.5-4.4-1.6-5c-2-0.7-3.3-1.2-2.6-3.1c0,0,0,0,0,0
		c5.1-0.2,10.1-0.4,14.7-0.5c0,0.5,0.1,1,0.1,1.5c0.4,6.9,0.3,13.4-0.1,19.6c-2.7,1.2-5.6,2.5-8.7,3.6c-0.2-0.3-0.5-0.8-0.6-1.3
		c-0.3-0.7-0.2-0.3-0.9-0.6c-0.6-0.3-0.4-0.1-0.6-0.5c-0.1-0.4,0-0.5-0.5-0.3c-0.4,0.2-0.4,0.3-0.5,0c-0.1-0.2,0.1-0.7-0.3-0.9
		c-0.5-0.2-0.6-0.2-0.6-0.2v-0.5c0,0-0.7,0-1.7,0c-0.9,0.1-0.4,0.2-0.9-0.2c-0.4-0.2-0.4-0.3-0.4-0.3c-0.2,0-0.7,0.1-1.2,0
		c-0.7-0.2-0.5-0.5-0.5-0.5s-0.2,0.1-1.1,0.6c-0.9,0.3-0.8,0-0.8,0s-0.2,0.2-0.2,0.6c0,0.4,0.5,0.1,1.4,0.5c0.8,0.4,0.7,0.2,0.8,0.5
		c0.1,0.2,0.1,0.4,0.8,0.6c0.5,0.1,1.1,0.6,1.6,1.2c0.3,0.6,1.9,1.5,2.6,2c0.2,0.1,0.3,0.2,0.5,0.3c-4.1,1.4-8.6,2.7-13.6,4
		c0.6-8.1,0.7-15.8,0.4-22.9c1.1,0.2,2.2,0.7,2.6,1.9c0.5,1.7,0.9,2.8,2,0.8c1-2,0.6-0.7,1.7,0.3c1,1.2,1.2,2.8,1.9,4.7
		c0.6,1.7,1.6,1.6,2.5,1.9c1,0.2,0.3,2.9,2.3,2.8c1.7,0,2.2-0.3,2.3-0.4C374.9,144.7,374.7,144.6,374,143.9z M379.2,101
		c-1.1-2.9-3.9-2.3-3.4-3.4c0.4-1,0.7-1.4,0.3-2.5c-0.4-1.2-2.2-10.4-1.1-11.5c0.2-0.2,0.5-0.5,0.8-0.8c0.9,0.5,1.8,1.1,2.7,1.6
		c1.2,4.9,2.2,9.7,3.1,14.5c-0.5,0.4-0.8,0.7-1.2,1.9c-0.2,0.5-0.3,0.7-0.3,0.8c0,0,0.1,0.1,0.5,0c0.3-0.3,0.5-0.6,0.5-0.6
		s-0.6-0.2,0-0.6c0.4-0.2,0.6-0.3,0.8-0.6c0.3,1.9,0.6,3.9,0.9,5.8c-3.8-1.4-7.8-2.7-11.8-3.8c0.3-1.7,0.6-2.4,1.1-0.6
		c0.7,2.1,1.8-3.4,2.5-1.9c0.8,1.4,0.3,2,1.6,1.1c1.1-0.8,1.1,0.9,1.7,2.3C378.3,103.8,379.5,101.8,379.2,101z M376.7,81.7
		c0.3-0.3,0.6-0.7,0.8-1c0.2,0.6,0.3,1.2,0.5,1.8C377.6,82.2,377.1,82,376.7,81.7z M412,121c0,0.7,0.1,1.4,0.1,2
		c-1-1.1-3.2-3.3-6.9-6c-0.2-3.1-0.5-6.2-0.9-9.1c5.2,7.3,7.2,12.6,7.2,12.7C411.5,120.9,411.8,121,412,121z M405.3,118.8
		c2.8,2.1,4.6,3.8,5.6,4.9c-1.1,0-3,0.1-5.3,0.2C405.4,122.2,405.4,120.5,405.3,118.8z M404.3,127.4c0,0.9,0,1.7,0,2.5
		c0-0.1,0-0.2-0.1-0.4c-0.2-0.4-0.3-0.1-0.8,0c-0.5,0-0.8,0-1.6,0.3c-0.6,0.2-0.5-0.1-1.1,0c-0.6,0.1-0.6,0.5-0.6,0.5s0,0.1-0.6,0.2
		c-0.7,0.1-0.4-0.1-0.9,0.2c-0.7,0.4-0.5,0.2-0.6,0.8c-0.2,0.6-0.2,0.4-0.6,0.6c-0.5,0.3-0.3,0.2-0.3,0.6c-0.1,0.5,0.1,0.4-0.3,0.9
		c-0.4,0.6-0.3,0.3-0.5,0.2c-0.2-0.2,0-0.4-0.5-0.2c-0.5,0.2-0.2,0.1-0.3-0.3c-0.2-0.3-0.3-0.4-0.6-0.8c0,0-0.1-0.2-0.5-0.3
		c-0.5-0.1-0.4,0.1-0.9,0.5c-0.4,0.3-0.2,0.4-0.5,0.9c-0.4,0.4-0.2,0.3,0,0.8c0,0.3,0.3,0.1,0.8,0c0.4-0.2,0.5-0.5,0.8-0.2
		c0.3,0.2,0,0.3-0.5,0.8c-0.6,0.5-0.1,0.2,0.2,0.3c0.3,0.2,0.4,0,0.5,0.6c0.2,0.6,0.4,0,0.6-0.5c0.2-0.4,0.3-0.6,0.3-0.6
		s1.2-0.2,2-0.2c0.8,0.1,0.8,0.1,1.2,0.2c0.4,0.1,0.9,0.7,0.9,1.1c-0.1,0.4,0,0.6,0,0.6l-0.3,0.6c0,0,0.5-0.1,0.8-0.6
		c0.4-0.4,0.6-0.2,1.1-0.5c0.6-0.2,0.4,0,0.6,0.2c0.1,0.1,0.1,0.1,0.2,0.1c-3.8,3.1-9,6.6-16,10c0.4-6,0.4-12.3,0-19
		c0-0.5-0.1-1-0.1-1.5c7.3-0.3,13.6-0.5,18.2-0.7C404.2,126,404.3,126.7,404.3,127.4z M385.9,124.6c-0.4-5.5-0.9-11.2-1.7-17.1
		c8.9,3.5,15.3,7.3,19.7,10.3c0.1,2,0.2,4,0.3,6.1C399.6,124.1,393.3,124.3,385.9,124.6z M388.4,107.7c-1.5-0.6-2.9-1.2-4.4-1.8
		c-0.3-2-0.6-4-0.9-6c0,0,0,0,0.1,0.1c0.2,0.4,0-0.1,0.2-0.8c0.1-0.6,0.1-0.4,0.3-0.8c0.1-0.3-0.3-0.3-0.3-0.5
		c0-0.3,0.4-0.2,0.6-0.3c0.3,0,0.7-0.4,0.6-0.8c0-0.4,0.2-0.2,0.3-0.2c0.1,0.2,0.1,0.2,0.5-0.2c0.4-0.3,0.1-0.4-0.2-1.4
		c-0.3-0.9,0-0.6-0.2-1.1c-0.2-0.5-0.3-0.5-0.6-1.1c-0.2-0.3-0.7-3-1.2-5.6c1.9,1.4,3.8,2.7,5.4,4.1c6,4.9,10.6,9.9,14,14.3
		c0.5,3.3,0.9,6.8,1.1,10.3C400.1,113.5,395,110.6,388.4,107.7z M383.3,94.7c0,1.3-0.1,1.3-0.5,1.6c-0.3,0.4-0.1,0.5-0.4,0
		c0-0.1,0-0.1,0-0.2c0-0.3,0-0.6,0-0.6s0,0-0.1,0c-0.6-3.4-1.4-6.8-2.2-10.2c0.5,0.3,0.9,0.6,1.4,0.9
		C382.3,89.7,383.3,94,383.3,94.7z M372.4,103.5c-1.2,0.9-2.2,1.9-1.8-0.2c0-0.1,0-0.2,0.1-0.3C371.2,103.1,371.8,103.3,372.4,103.5
		z M372.2,124.4c1.2,1.2,0.6-1.1,1.6-2.6c1.1-1.7,2.3-2.5,3.1-5.4c0.7-2.8-0.6-0.7,0.2-2.8c0.8-2,0.3-4.9-0.6-3.6
		c-0.9,1.4,0,0.3-0.2-1.4c-0.2-1.5-1.8-0.8-2.6-1.9c-0.7-1-0.5-2.1-0.2-2.9c3.4,1,6.5,2.1,9.4,3.2c0.8,6.1,1.4,12,1.8,17.7
		c-4.4,0.2-9.2,0.3-14.1,0.5C371,124,371.5,123.6,372.2,124.4z M359.2,157.1c5.7-1.4,11.3-3,16.7-5l-0.1,0.1c0,0,1.1,0.6,1.7,0.5
		c0.5-0.2,1.1-0.9,1.6-1.2c0.4-0.2,0.7,0.1,1.1,0c0.4-0.1,1.2-0.7,2.5-1.4c1.2-0.8,0.5-0.3,0.6-0.8c0-0.1,0-0.1,0-0.2
		c0.4-0.2,0.9-0.4,1.3-0.6c-0.6,7.2-1.7,13.8-3.1,20c-8.3,5.9-17.2,10.3-26.4,13.7C357.2,173.8,358.5,165.3,359.2,157.1z
		 M383.6,165.2c0.1,0,0.1,0.1,0.2,0.5c0.1,0.3,0.3,0.4,0.6,0.8c-0.4,0.3-0.8,0.6-1.2,1C383.3,166.7,383.4,166,383.6,165.2z
		 M404.1,136.5c-0.1,1.1-0.1,2.2-0.2,3.2c-0.1-0.1-0.2-0.1-0.4-0.1c-0.5-0.1-0.7-1.4-0.9-1.9c0,0,0,0,0,0
		C403.1,137.4,403.6,137,404.1,136.5z M403.6,135.2c0-0.1-0.1-0.2-0.1-0.2l-0.3-0.2c0,0,0.4-0.1,0.5-0.5c0-0.5,0.1-0.6,0.5-1
		c0,0.4,0,0.8,0,1.3C404,134.8,403.8,135,403.6,135.2z M405.5,133.2C405.5,133.2,405.5,133.2,405.5,133.2c0.1,0,0.2,0,0.2,0
		c-0.1,0.1-0.2,0.2-0.2,0.2C405.5,133.3,405.5,133.2,405.5,133.2z M406.9,131.8c-0.4-0.1-0.3,0-0.5-0.6c-0.1-0.5-0.1-0.5-0.5-0.9
		c-0.2-0.1-0.3-0.1-0.4,0c0-0.9,0-1.8,0-2.8c0-0.7,0-1.5,0-2.2c3.7-0.1,6.1-0.2,6.6-0.2c0,0.3,0,0.6,0,0.9c-0.3,0-0.5,0.1-0.6,0.4
		c0,0.1-1.2,2.3-4.4,5.7C407.1,131.8,407,131.8,406.9,131.8z M402.3,103.2c-3.3-4-7.5-8.4-12.8-12.7c-2.1-1.7-4.3-3.4-6.6-4.9
		c-0.3-1.9-0.5-3.4-0.5-3.6c-0.2-0.6-0.3-0.7-0.9-1.1c-0.7-0.5-0.5-0.3-0.5-0.3l-0.3,0.2l-0.3,0.6c0,0,0.3,1.3,0.7,3
		c-0.5-0.3-1-0.6-1.4-0.9c-0.4-1.5-0.8-2.9-1.2-4.4c0.1-0.4,0.1-0.7-0.1-1c-0.5-0.9-0.2-1-0.2-1.5c0.8,0.5,2.3,1.4,3.7,2.2
		c-0.8,0.4-2.4,1.2-2.5,1.6c0,0.6,0.4,0.3,0.6,0.2c0.4-0.2,0.3-0.4,0.2-0.6c-0.1-0.1,1.1-0.5,2-0.8c0.7,0.6,0.9,1.2,1,1.8
		c0.2-0.3,0.3-0.1,0.3-0.1s1.5-0.5-0.5-1.6c-0.2-0.1-0.3-0.2-0.4-0.2c0.3-0.2,0.6-0.3,0.6-0.4c0-0.5,0.1-0.6,0.5-0.8
		c0.4-0.1,0.8,0.2,0.8,0.2s-0.1-0.1-0.5-0.6c-0.5-0.7-0.3-0.7-0.2-1.4c0.1-0.8,0-0.8,0-0.8l-0.8-0.5c0,0,0,0.4-0.3,0.9
		c-0.3,0.4-0.9,0.1-1.6,0.3c-0.7,0.1-0.6-0.2-0.6-0.2l-0.2,0.2c0,0,0.9,1,1.4,1.4c-1.1-0.5-2.8-1.4-4.2-2c-0.1-0.1-0.1-0.2-0.2-0.4
		c-0.1-0.3-0.2-0.6-0.3-0.8c-0.1-0.9,0.5-1.2-0.7-2.2c-1.1-3.3-2.3-6.5-3.6-9.8c6,4.5,11.1,9.2,15.2,13.7c5,5.4,9,11,12.2,16.1
		C400.9,95.5,401.6,99.3,402.3,103.2z M381.8,78.2c0,0,0-0.1,0.1-0.1c0,0,0,0,0,0C381.9,78.1,381.8,78.2,381.8,78.2z M382,78.7
		c0,0,0.1-0.1,0.2-0.1C382.3,78.5,382.2,78.6,382,78.7C382.1,78.7,382,78.7,382,78.7z M374.4,70.6c-2-1.1-4-1.7-3.9-1.3
		c0.4,1.7,0.3,2-0.9,1.4c-1.4-0.7-0.2,2.5-1.9-0.9c-1.5-3.6-12-12.6-11.7-15.2c0-0.6,0.5-1.3,1-2c4.9,2.5,9.5,5.2,13.5,8.1
		C372,63.9,373.3,67.3,374.4,70.6z M357.9,51.5c1.6-1.8,3.4-3.4,1.4-4.1c-3.4-1.1-8.5-3.1-6.2-3.1c2.4-0.2-3.3-2.6-3.3-2.6
		s-2.2-1.3,2.6,0.6c3.9,1.6,7.8,3.6,11.3,4.7c2.1,3.7,4.1,7.5,5.8,11.4C366,56,362.1,53.7,357.9,51.5z M363.4,43.9
		c-1.3-2.2-2.7-4.3-4.2-6.4c5,3.1,9.6,6.5,13.7,9.9c-0.6-0.2-1.3-0.5-2.3-1c-5.8-2.4-3-0.9-5.3-1.7
		C364.3,44.4,363.8,44.1,363.4,43.9z M327.7,67.7c-0.1-0.1-0.2-0.2-0.3-0.3c0.7,0.1,1.3,0.2,2,0.3c0.2,1.9,0.7,3.8,0.8,4.3
		C330.1,71.5,329.6,69.9,327.7,67.7z M334.9,161.4c0.5-0.1,1-0.1,1.5-0.2c-0.1,0.2-0.3,0.5-0.4,0.8
		C335.6,161.8,335.2,161.6,334.9,161.4z M337.3,159.8c-1,0.1-2.1,0.3-3.1,0.4c0.1-1.3,1.9-1.6,2-3.7c0.3-2.3,1.9-2.9,1.9-4.7
		c-0.1-1.7,0.4-1.7,0-3.3c-0.5-1.4-2.7,0.7-3.6,0.2c-0.9-0.5-0.9-2.6-1.6-0.2c-0.8,2.3-0.8,2.2-1.4,1.2c-0.2-0.3-0.6-0.4-1.1-0.4
		c0-0.4,0-0.8,0-1.2c1.8,0.3,2.2-1.8,3.3-1.6c1.4,0.3,2.5-0.2,3-0.9c0.5-0.8,1.9-0.3,2.6-2c0.7-1.6,0.9-0.8,2.2-0.6
		c1.1,0.3,2.1,0.5,2.2,1.4c0,0.8,1.8,0.6,2-0.5c0.1-1,0.1-1.1,0.9,1.1c0.9,2,1,2.6,2,3c1.1,0.3,0.6-0.4,1.2,1.1
		c0.7,1.5,1.2,1.6,2,2.2c0.8,0.7,1.8,3.2,2.6,0.3c0.3-1,0-0.4,0.2-3.9c0-1.2-2-0.4-0.5-4.7c1.5-4.4-0.5-0.6,0.8-3.1
		c1.3-2.5,0.5-3.5,1.1-4.5c0.6-0.9,1.3-2.3,2.3-2.6c0.3,8.3,0.2,16.1-0.4,23.3c-5.2,1.2-10.8,2.3-16.9,3.2
		C340.5,157.7,339.3,157.2,337.3,159.8z M341,181.7c-0.2-0.8,0-0.7,0.3-1.6c0.4-0.8,0.3-1.1,0.3-1.1l0.2-0.3
		c0.1-2.4-0.1-4.8,0.3-6.1c0.3-1.2,0.8-3.2,0.3-5c-0.6-1.9-0.2-2.8-0.2-3.4c0-0.1-0.4-0.4-0.9-0.6c0.2-1,0.2-2.1,0.1-3.1
		c5.5-0.8,11.1-1.8,16.5-3.1c-0.8,9.4-2.3,17.8-4.2,25.4c-3.8,1.3-7.7,2.5-11.6,3.5c-0.3-0.1-0.5-0.3-0.8-0.5
		c-0.5-0.5-0.5-1-0.3-1.6C341.1,183.7,341.1,182.6,341,181.7z M348.7,201.6c0.2,0.4,0.5,0.7,0.9,1c0.6,0.4,1.1,0.3,1.1,0.3
		s0.9-1.1,1.1-1.6c0.1-0.3,0.3-1,0.2-2c-0.1-1-0.6-3.7-0.6-4.3c1.3-3.7,2.5-7.4,3.5-11.2c10.7-3.8,19.3-8.5,26.3-13.3
		c-2.2,8.5-5.1,16.2-8.5,22.9c-7.4,5.5-16.3,10.7-26.9,14.7C346.7,206,347.7,203.8,348.7,201.6z M382.6,169.4c0.5-0.3,1-0.7,1.4-1
		c0,0,0,0,0,0c0.3,0.5,0.2,0.2,0.3,0.6c0,0,2,4.2,1.9,6.5c0,0.3,0.6,0.1,0.9,0.3c0.4,0.1,0.7-0.4,0.9-0.5c0.4-0.2,0.5-0.8,1.4-2
		c0.8-1.3,0.6-0.8,1.6-1.4c0.9-0.7,1-0.5,1.4-1.7c0,0,0.1-2.5,4.8-5c0.8-0.5,1.3-0.7,1.7-0.7c-2.5,4-5.4,8.1-8.9,12.3
		c-4.1,4.9-9.1,10-15.3,14.9C378,185,380.6,177.6,382.6,169.4z M400.9,165.5c0,0,0.1,0.1,0.1,0.2c0.3,0.3,0.4-0.5,0.6-1.4
		c0.2-0.9,0.1-0.8,0.5-0.9c0.4-0.1-0.1,0.8,0,1.7c0,0.9,0,0.5,0.3,0c0.4-0.4,0.5-0.5,0.5-0.5l0.2,0.8c0,0,0.2-0.2,0.4-0.1
		c-2.1,5.7-5.5,13.3-10.7,21.5C396,180.4,398.8,173.3,400.9,165.5z M405.5,135.4c0.6-0.6,1.2-1.1,1.7-1.6c0.3,0,0.4-0.1,0.7-0.3
		c0.5-0.4,0.5-0.2,0.8,0c0.2,0.2,0.4-0.2,0.2-0.6c-0.2-0.2-0.1-0.2-0.6-0.2c2.1-2.3,3.4-4,4-5c0,1.1,0,2.2-0.1,3.3
		c-0.3,0-0.5,0.2-0.6,0.5c0,0.1-1.4,4.7-5.4,11.3c-0.1-0.1-0.1-0.1-0.2-0.2c-0.3-0.4-0.6-0.8-0.8-1.1
		C405.2,139.4,405.4,137.4,405.5,135.4z M411.3,141.5c-0.2,1.6-0.4,3.2-0.7,4.9c0,0,0,0,0,0c-0.6,0.3-0.1,0.3-0.5-0.3
		c-0.1-0.2-0.2-0.5-0.2-0.7C410.5,143.9,411,142.6,411.3,141.5z M411.1,111.5c-1.6-4.2-4.7-11.6-10-20.1c-1.8-7.2-4-13.7-6.6-19.7
		c7,10.2,11.5,19.9,14.1,26.5C409.7,102.6,410.6,107,411.1,111.5z M398.9,87.9c-2.8-4.2-6.2-8.6-10.1-12.9
		c-4.6-5-10.3-10.3-17.2-15.2c-1.8-4.2-3.8-8.3-6.1-12.3c0.2,0,0.3,0.1,0.5,0.1c2.7,0.5,6,0.5,7.6,0.5c5.7,4.9,10.6,10.1,14.6,15
		c0.9,1.1,1.7,2.1,2.5,3.2C393.9,72.7,396.7,79.9,398.9,87.9z M328.5,24.3c1.1,1.5,2.2,3,3.3,4.6c-0.1,0.3,0.1,0.7,0.7,1
		c0.1,0.2,0.2,0.4,0.4,0.6c-0.2,0-0.3,0-0.5,0c-2.1,0-0.9,1.4-1.4,1.9c-0.7,0.5-2.3,0.7-1.4,2.2c1,1.4,1,2.3,2,2.6
		c1,0.3,2,1.4,1.1,1.4c-0.8-0.1,1.9,1.4,0.9,1.7c-0.9,0.2,3.7,2,0.5,2c-0.4,0-0.7,0-0.9,0.1c-5.2-1.3-10.7-2.3-16.5-2.9
		c-2.3-7.8-4.7-14-7-18.8C316.4,21.5,322.7,22.7,328.5,24.3z M315.2,39.3c-4.8-0.5-9.8-0.7-15.1-0.7c-2.5,0-5.1,0.1-7.8,0.2
		c-0.3-7.1-0.6-13.6-0.9-19c5.8,0,11.4,0.2,16.7,0.8c0.4,0.9,0.8,1.8,1.3,2.7C311.3,27.4,313.3,32.6,315.2,39.3z M292.3,65
		C292.3,65,292.2,65,292.3,65c-2.9,0.2-5.7,0.4-8.5,0.6c0.1-0.1,0.2-0.2,0.4-0.2c1.2-0.7,0.9-1.2-0.6-1.2c-1.5,0-1.6-0.3-1.6-0.3
		s1-0.3-0.8-1.1c-1.1-0.6-1.7-0.5-2-0.4c0.5-0.3,2.3-0.8,5.6,1c2.1,1.2,0.4-1.3-2.2-2.8c-0.6-0.4-1.1-0.6-1.6-0.8
		c2.5,0.4,1.7-0.1,0.8-0.8c-0.7-0.7-2.9-1.4-4.4-1.2c-1.4,0.2,1.2-2,0.3-2.5c-1-0.6-0.8,0.3-0.8,1.7c0,1.3-0.7,0.5-1.1-0.8
		c-0.2-1.4-1.8-2.3-1.9-1.6c-0.1,0.7-1,1.6-0.9,1.1c0.2-0.5,0.2-1.7-0.5-1.1c-0.5,0.7-1.4,1.3-0.9,0.3c0.6-1.1,0.1-1.2-1.4-1.9
		c-1.5-0.7-1.7-1-3-0.3c-0.2,0.1-0.3,0.2-0.5,0.2c0.1-0.6,0.2-1.1,0.3-1.7c1.5-0.3,1.2-0.9,0.3-1.7c0.5-2.6,1-5,1.6-7.3
		c7.7-1.1,15.1-1.8,22-2.2c0,0,0.1,0,0.1,0C291.5,48,291.9,56.5,292.3,65z M267.9,41.2c-4.7,0.7-9.5,1.6-14.3,2.6
		c-0.6-2-2-0.5-3.4,0.4c-0.3,0.2-0.5,0.4-0.7,0.6c-1.6,0.4-3.2,0.8-4.8,1.2c3.3-8.1,7.3-15.6,12.2-22.1c0,0,0.1-0.1,0.1-0.1
		c5.4-1.3,11.1-2.2,17.2-2.9C272.1,25.9,269.9,32.6,267.9,41.2z M223.8,39.8c0.5-1.6,0.1-0.9,0.2-1.7c0-0.5,0.4-1.3,0.7-2.1
		c2.5-1.4,5.1-2.7,7.8-4c-3.3,4.2-6.3,8.7-8.9,13.4c0.1-0.4,0.2-0.8,0-0.8c-0.4-0.1-1.4,0.2-1.1-0.9
		C222.6,42.6,223.3,41.6,223.8,39.8z M223.6,55.5c0.8-0.7-1.2,0.9-0.8-0.6c1-0.4,1.9-0.8,2.9-1.2c-0.6,0.2-0.9,1-0.9,1.8
		c-0.1,1.1,0.3,2.2,0.9,2.4c0,0,0,0,0,0c0,0,0,0,0,0c1,0.2,1.9-0.3,2.1-0.1c0,0,0,0,0,0.1c0,0,0,0.1,0,0.1c0,0,0,0.1,0,0.2
		c0,0.1,0,0.1,0,0.2l0,0c-0.6,1.2,1,1.9,1.7,0.9c0.8-1,0.5-2.3,1.1-0.8c0.6,1.5-0.3-1.1,4.5-5c0,0,1.6-1.1,2.5-1.6
		c0.8-0.4-0.2-0.8-1.7-0.3c-1.6,0.5-3.6,2.3-3,1.6c0.7-0.7,1.8-1.4,1.1-1.4c-0.4-0.1-0.8-0.1-1-0.2l0.5-0.7c0.1-0.1,0.2-0.1,0.3-0.2
		c3-1,5.9-2,8.9-2.8c-0.7,1.9-1.4,3.9-2.1,5.9c-0.1,0-0.2,0-0.4,0c-1,0.3,0.6-1.8-0.8-0.6c-2.6,2.3-1.8,0.2-2.8,0.9
		c-1,0.7-0.5,1.4-0.5,1.4c-1.4,1.8,0.7,1.5,1.6,1.6c0.8,0.2,0.5,0,1.7-1.6c0.4-0.5,0.7-0.8,0.9-1.1c-0.2,0.6-0.4,1.3-0.6,1.9
		c-0.1,0.1-0.1,0.1-0.2,0.2c-1.1,1.7-2.7,1.5-4.2,2.3c-1.6,0.9-0.2,1-0.2,1.9c0.2,1,0.9,0.6,0.3,0.9c-0.7,0.4-0.9,1.8-1.7,2
		c-0.8,0.2-0.9,0-1.2,0.3c-0.5,0.2-1.9,1.3-0.5-0.3c1.4-1.6-0.3-1.3-1.2-1.1c-0.9,0.1-2.4-1.7-2.8-2.3c-0.3-0.7-1-1.6-1.9-1.4
		c-0.8,0.1-0.1,0.7-0.9,1.6c-0.7,1-0.6,0.6-0.6,0.6s0,0.2,0.2-0.9c0.2-1.3-2.5-1.4-3-1.9c-0.4-0.5-0.3-1.3,0.3-1.6
		C222.7,56.4,222.8,56.4,223.6,55.5z M207.6,141.7c0.7,0.7,0.8-0.4,1.1,0.6c0.2,1.1,0.9,2.2,0.8,3c-0.1,0.7,0,0.9,0.5,0.9
		c0.5-0.1-2.9,0.4-2.6,1.6c0.2,1.2,0.9,0.9,1.2,1.4c0.3,0.5,0.7,0.9,1.1,0.3c0.3-0.8,0.5-0.7,1.4-0.6c0,0,0.4,0.4,0.8,1.1
		c0.4,0.7,7.6,5.7,7.6,6.4c0,0.2,0.1,0.4,0.1,0.5c-4.3-0.7-8.4-1.5-12.3-2.4c-0.7-4.7-1.1-9.6-1.3-14.7
		C206.8,141.1,207,141,207.6,141.7z M219.6,158.2C219.6,158.2,219.6,158.2,219.6,158.2c-0.7,0.6-0.9,0.6-2,0.9
		c-1,0.2-0.5,0.7-1.1,2.5l0.3,2.3c-0.2,1.3-0.7,1.3-0.2,2c1,1.3-2.7,3.4-2.3,5.6c0.5,2.3,1.1,6.3,3.9,8.2c0.8,0.5,1.4,1.2,1.9,2
		c-2.3-0.7-4.6-1.5-6.7-2.3c-2.5-7.1-4.5-15-5.9-23.7C211.3,156.7,215.3,157.5,219.6,158.2z M261.4,227c-3.8-4.2-7.1-8.6-10.1-13.2
		c6.8,1.3,13.9,2.3,21.4,3c1.6,3.8,3.3,7.5,5.2,11c1.8,3.3,3.6,6.1,5.3,8.5c-3.3-0.1-6.7-0.3-10.2-0.5c-0.9-0.1-1.8-0.2-2.7-0.2
		C267.4,233.2,264.4,230.3,261.4,227z M274.2,216.9c6.7,0.6,13.7,0.9,21,0.9c0.5,0,1,0,1.5,0c0.2,7,0.3,13.2,0.5,18.3
		c-3.9,0.2-8,0.3-12.3,0.3C281.5,231.7,277.7,225.4,274.2,216.9z M317.3,155.9c1,0.4,1,0.4,0.8-0.3c-0.3-0.8,1.1-0.4,1.7,0.3
		c0.5,0.8,1.3,0.5,1.7,1.4c0.5,1,0.8,0.1,1.6,0.6c0.6,0.6,1.4,1.9,2.5,2.2c0.5,0.2,1.1,0.5,1.7,0.9c-1.3,0.1-2.5,0.2-3.8,0.3
		c0,0-0.1-0.1-0.1-0.1c-1.5-2.4-1.6-0.4-2-1.6c-0.6-1.3-2.6-2.1-3.7-2.8C317,156.3,316.2,155.5,317.3,155.9z M324,214.1
		c-0.9,0.2-1.7,0.3-2.6,0.5c0.5-1.4,0.9-2.9,1.4-4.3c0,0,0,0.1,0,0.1C322.7,211.5,323.4,213,324,214.1z M324.8,215.3
		c0.7,0.7,2.1,1.4,2.8,1.8c0.6,0.6,2.5,3.8,3.1,4.8c0.7,1.1,1.4,0.2,1.6,0.9c0.2,0.5,0.9,1,1.5,1.5c-0.3,0.4-0.7,0.8-1,1.3
		c-1.9,2.3-3.8,4.4-5.7,6.3c-4.6,1.1-9.5,2.1-14.9,2.8c1.4-2.2,2.8-4.7,4.1-7.6c1.7-3.6,3.3-7.3,4.6-11.1
		C322.2,215.7,323.5,215.5,324.8,215.3z M333.7,226.4c0.3-0.4,0.6-0.8,1-1.2c0.2,0.5,0.2,1,0.5,1.5c0.4,0.6,0.2,0.5,0.6,0.3
		c0.5-0.2,0.6-0.5,0.9-0.5c0.4,0.1,0.5,0,0.6-0.5c0.3-0.5,0.3-0.4,0.8-0.5c0.6-0.2,0.5-0.5,0.6-0.8c0.2-0.5,0.2-0.7,0.8-0.9
		c0.5-0.4,0.4,0,0.8-0.2c0.3-0.1,1.2-1.4,1.9-2.8c0.6-1.4,0.8-2.8,1.2-4.8c0.5-1.9,2.3-2.9,1.7-4.4c-0.3-0.9-0.6-1.3-0.5-1.9
		c0,0,0,0,0,0c10.3-3.8,19.1-8.6,26.4-13.8c-6.7,12.4-14.8,21.8-22.5,28.7c-0.2,0.2-0.4,0.3-0.5,0.5c-5.1,2-11.3,4.2-18.7,6
		C330.9,229.7,332.3,228.1,333.7,226.4z M373.5,194.3c7.2-5.4,13-11.2,17.6-16.7c3.1-3.7,5.8-7.5,8.2-11.1
		c-3.4,11.8-8.2,22-13.8,30.6c-5.8,7.3-13.2,14.5-22.3,20.8c-0.1,0.1-4.2,2.6-11.6,5.8C359.2,216.5,367.1,206.8,373.5,194.3z
		 M371.8,36.6C387.9,51,399.5,69,406.1,89c-3.3-6.9-8-15.2-14.3-23.5c-7.2-14.4-16.3-25.4-25.3-33.5C368.3,33.5,370.1,35,371.8,36.6
		z M306.7,6.3c5,2.2,12.4,6.6,20.1,15.8c0.1,0.2,0.3,0.3,0.4,0.5c-5.7-1.4-11.7-2.6-18.1-3.3c-3.9-7.7-7.4-11.8-9.9-13.8
		C301.7,5.7,304.2,6,306.7,6.3z M296.7,5.4c2,1.3,6.1,4.8,10.7,13.8c-5.1-0.5-10.4-0.8-16-0.7c-0.3-6.4-0.5-11.2-0.6-13.3
		C292.8,5.2,294.8,5.3,296.7,5.4z M283.7,5.4c0.2,0,0.4,0,0.6,0c-2.3,2-5.8,6.1-9.3,14c-5.8,0.6-11.3,1.5-16.6,2.7
		c8.3-10.3,16.4-14.6,20.8-16.4C280.6,5.6,282.2,5.4,283.7,5.4z M228.7,21.7c-0.6,0.4-1.1,0.8-1.7,1.3c-2.1,1.6-4.1,3.3-5.9,5
		c-0.2-0.1-0.4-0.2-0.5-0.4c-0.4-0.7-2.3,2.1-3.7,4.4c-0.1,0.2-0.2,0.4-0.4,0.5c-0.1,0.2-0.3,0.3-0.4,0.5c-0.6,0.5-0.6-0.6-0.3-1.3
		c0.3-0.8,0-0.6-0.6-0.9C219.4,27.5,224,24.5,228.7,21.7z M212.1,33.3c-0.2,0.6,0.1,1.1,0.4,1.9c0.3,0.8,0,0.5-1.2,1.1
		c-1.1,0.6-1.4,0.6-1.7,0.5c-0.4-0.2,0.3-1.2,0-1.2C210.4,34.7,211.2,34,212.1,33.3z M200.6,44.2C200.6,44.2,200.6,44.2,200.6,44.2
		c0.2,0.1,0.6-0.2,0.6-0.2s0,0,0.3,0.5c0.1,0.3,0.2,0.4,0.2,0.5c-0.1,0-0.4,0.1-1.3,0.5c-1.2,0.3-1.3,0.7-1.6,0.7
		C199.4,45.5,200,44.8,200.6,44.2z M197.7,47.4c0.1,0,0.2,0,0.3,0c1.5,0,0.4,0.5,2-0.2c1.6-0.5,1.3-0.1,1.9-0.6
		c0.6-0.4,1.5-0.5,3.1-1.1c0.8-0.3,1.1-0.4,1.3-0.3c-0.1,0.1-0.2,0.2-0.2,0.3c-0.2,0.1-0.4,0.2-0.7,0.3c-1.1,0.4-1.4,1-2.6,1.6
		c-1.1,0.6-0.5,0.7,0.5,0.5c1-0.2-0.2,0.5,0.6,0.5c0.2,0,0.3,0.1,0.4,0.1c-0.2,0.4-0.5,0.7-0.7,1.1c-5.4,4.8-9.9,9.8-13.5,14.6
		C180.7,76,175.1,87.9,172,96.5C176.6,78.5,185.4,61.7,197.7,47.4z M200.6,119.6c-0.3-1.3-0.1-2.1,0.6-3.4c0.7-1.4,0.8-1.1,1.2-2.2
		c0.3-1.1,0-1.3,1.9-1.9c0.4-0.2,0.7-0.3,1-0.3c-0.3,3.7-0.5,7.4-0.6,10.9c-0.1,0.1-0.2,0.2-0.3,0.3c-1.6,1.9-0.5,0.6-2,1.1
		c-1.5,0.6-1.2-0.9-1.7-2.2C200.1,120.7,201,120.8,200.6,119.6z M204.4,52.3c-0.1,1.4-0.9,2.2-2.3,3.9c-1.3,1.7-0.4,1.2-0.2,1.6
		c0.2,0.3-0.8,1.4-1.2,2.6c0,0,0,0,0,0.1c-0.1-0.2-0.3-0.4-0.3-0.4c0,0,0,0,0,0l0,0c0,0.1,0,0.1,0,0.2c0,0,0,0,0,0.1c0,0,0,0,0,0.1
		c0,0,0,0.1,0.1,0.1c0,0,0.1,0.1,0.2,0.1c-0.1,0.4,0,0.6,0.1,0.8c0,0,0,0,0,0l0,0c0,0,0,0,0,0c-0.2,0.4-0.1,0.4,0.1,0.2
		c0.1,0.3,0.3,0.6,0,1.2c-0.4,1.4,0.3,0.5-0.3,1.7c-0.7,1.3-1.2,1.5-1.5,2.8c-1.4,1.1-2.8,2.1-4.1,3.3c2.8-7.7,6.1-14.4,9.7-20.2
		c0.2-0.2,0.4-0.3,0.5-0.5C204.7,50.5,204.4,51.3,204.4,52.3z M179.9,129.1c-1.3,0.2-3.2,0.6-4.4-0.3c0.3-1.1,1.6-1.8,0.3-3
		c-1.1-2.7-0.3-3.5,2.5-2.6c0.8-0.4,1.8-1,2.2-1.7l0.6-1.4l1.7,0.3c-1.8-0.4-2.6-4.7,0.5-3.7c0.3-1,0.9-1.7,2.2-1.9
		c1.1-0.1,1.5-0.2,2-0.2c0.1,0.7,0.3,0.9,0.5,1.2c1.8,2.6-0.1,5.4,0.8,8.2c-0.5,1.2-2.2,1.2-3.1,1.7c-2,1.3-3,2.7-5.1,0.2
		C179.3,126.9,180.6,128.1,179.9,129.1z M170.9,131.8l-2.7,1.4c-0.1-1.9-0.1-3.9-0.1-5.8c2.3-3.3,4.9-4.8,4.9-4.8
		c0,0,0.1-0.1,0.1-0.1c0.9,0.9,1.6,1.9,0.8,3.6C172.4,128.3,174.8,130.5,170.9,131.8z M195.2,79.3c-0.3,0.9-0.5,1.1-0.8,1.7
		c-0.4,0.5-0.4-0.2-0.2-0.6c0.2-0.6,0-0.2-0.5-0.8c-0.5-0.7-0.1,0.5-1.6,2.3c-1.5,1.9-0.7,1-1.6,2.2c1-3.9,2.1-7.6,3.3-11.1
		c1.3-1.2,2.6-2.3,4-3.3c-0.7,1.4-1.6,2.8-2.1,3.7c-0.7,1.5-0.5,2.1-0.6,3.1C195.2,77.7,195.4,78.5,195.2,79.3z M193.7,110.5
		c-0.6,0.2-1.3,0.5-1.9,0.7c0.1-0.6,0.5-1.2,0.3-1.8c-0.2-0.7-0.2-1.7-0.3-2.6c-0.2-0.9-0.3-0.8-0.2-1.2c0.1-0.5,0-0.8-0.3-0.9
		c-0.3-0.1,1.1-1.1,1.6-2.3c0.4-1.1-0.5,1.3-0.2,3c0.2,1.7,0.5,0.6,0.5,1.6c-0.1,0.8,0,0.9,0.5,2.2
		C194,109.9,193.6,109.5,193.7,110.5z M190.2,102.8c0.2,2.2,0.5,2.8,0.2,3c-0.4,0.1-0.3,1,0.3,2.2c0.6,1,0,1.1,0.3,3
		c0,0.2,0.1,0.4,0.1,0.5c-0.8,0.3-1.6,0.7-2.4,1l-0.2-0.4c-0.2,0.1-0.4,0.5-0.5,0.7c-0.1,0-0.1,0-0.2,0.1c-0.2,0.1-0.3,0.3-0.4,0.5
		c-0.4,0.2-0.9,0.2-1.2,0.3c-1.1-0.1-1-2.8-2.5-1.9c-0.5-0.3-1.3-0.5-1.2-1.2c1.5-2.3,2.9,1.2,4.4,0.6c0.5-0.5,0.3-1.2,0.3-1.9
		c-0.2-0.2-0.5-0.5-0.8-0.7c0.5-4.4,1.1-8.7,1.8-12.8c0.7-0.6,1.5-1.1,2.2-1.6c-0.1,0.4-0.1,1,0.1,2c0.3,2.4,0.8-0.4,1.2,3.1
		C191.9,101,189.9,100.5,190.2,102.8z M190.1,86.2c0.2,0.9,0.6,1.6,0.4,2.2c-0.4,0.9-0.8,0.8-0.5,2.5l0.5,1.1c0,0.2,0,0.3,0,0.5
		c-0.7,0.5-1.4,1-2.1,1.5C188.9,91.2,189.5,88.7,190.1,86.2z M192.8,72.3c-2.9,2.6-5.7,5.4-8.3,8.5c-6.3,7.4-10.3,14.6-12.8,20.4
		c2.7-8.4,8.4-22.4,19.3-36.3c2.9-3.7,6.3-7.6,10.2-11.4C197.8,59.6,195.1,66,192.8,72.3z M170.1,117.1l0.8,2.6
		c0.3,0.7,0.7,1.2,1.2,1.7c-0.6,0.4-2.3,1.5-4,3.6c0.1-3.1,0.2-6.2,0.5-9.3c0.9-5.3,4.4-19.6,17-34.3c2-2.4,4.2-4.6,6.4-6.7
		c-2.3,6.9-3.9,13.7-5.1,20.2c-5.1,4-9.4,8.4-12.7,13C171.1,110.3,170.4,114.9,170.1,117.1z M186.5,97c-0.6,3.7-1.1,7.4-1.5,10.8
		c-2.5-1.2-5.9-1.2-8.7-0.5C179.3,103.5,182.7,100.1,186.5,97z M179.6,109.7h-0.9c0.4-0.2,0.7-1.3,1.2-0.5
		C180,109.3,179.8,109.5,179.6,109.7z M189.3,122c1.4-5-0.4-5.5-0.2-8.3c1.6-0.7,3.2-1.3,4.9-1.9c0,0.2,0.1,0.4,0.1,0.6
		c1,3.4,0.6,4.3,0,5.1c-0.4,0.7,0.1,3.2,1.9,5.4c0.9,1.3,2.8,5.2,4.5,8.5c-2.2,0.1-4.3,0.2-6.4,0.3c-0.2,0-0.3,0.1-0.4,0.2
		c-3.3-1.5-7.8,0-9.1-4C186.2,125.7,190.7,127.5,189.3,122z M167.6,209.1c-3.9,12.7-5.7,27-5.1,41.1c-1.6,2-3-0.8-4.8-0.6
		c-3.5-5.4,0.3-11.5,0.5-17.1c3.4-6,0.5-14.6,4.5-20.2l-0.2-0.9h0.2c0.2-5.3,2.6-8.3,2.8-13.4C169.9,199.1,167.3,205.4,167.6,209.1z
		 M200,191h-0.5v-0.9h0.5V191z M200,188.6h-0.5v-1.1h0.5V188.6z M201.3,188.7c-0.1,0.1-0.1,0.2-0.2,0.2l0,0c-1-0.7-0.8-1.9-0.9-3
		l-0.4-1.3c0,0,0,0,0,0l0,0l0,0c0.4-0.5,2-4.7,2.5-2.8c-0.1,0.4-0.2,1.2-0.3,2c0.1,0.1,0.2,0.3,0.3,0.6
		C201.9,185.7,202.1,187.7,201.3,188.7z M199.2,179.5c-1.1,0.5-1.7-1.2-2.5-1.6c0-0.5,0.3-0.9-0.2-1.1h-0.5
		c-0.9-3.6-2.5-7.2-5.6-9.8c-1.7-3.4,0.3-7.2-0.2-11.2c-0.7-3.5-0.7-7.4-1.1-11.2c-1.7,0.8-2.3,3.2-2.6,5c-0.3,0-0.6,0-0.8,0.3
		c2.5,1.5,2.6,4.9,2.8,7.8c-0.5,4-1.8,9.2,1.9,12.4c-0.2,3.2,4.7,3.5,3.1,7.2c1.8,1.7,1.7,4.3,4.2,5.8c-0.5,2.5,0.8,4.1,0.8,6.4
		h-0.3c0.4,2.2-1.4,3.2-2.8,4.4c-1.2,0.5-2.4,1.1-3.9,1.2c-0.7,0.4-1.5,0.7-2.3,0.9c-1.8,0.6-3.6,0.9-5.6,1c-1.9,0.1-3.9,0-5.8-0.4
		c-0.6,0.1-1,0.6-1.7,0.3v-0.6c-4-0.4-7.2,0.7-11.2,0c-0.6-0.8-1.2-1.8-0.6-2.8c0.8-1,2.6-1,3.1-2.5c-0.4-12.2-2.1-24.3-4.4-36.4
		c-2.3-4.5-2.8-10.9-1.4-16.2c0.5-0.3,1-0.7,1.5-1c1.6-1,3.2-2,5-2.4c0,0,0.1,0,0.1,0c2-1.2,3-1.7,5.9-3.7l6.1,0.8l0.5,0.8
		c1.7-0.6,3.4-1.1,5.3-1.2c1.6,1.2,4.7,1.7,6.7,1.6c2,0.2-1,2.9,1.7,2.6c1.6,2.4,1.3,5.5,0.3,7.9c0.4,0.5,1.1,0.1,1.7,0.3
		c-0.5,1.9,1.4,3.5,0,5.3c0.1,0.2,0.4,0.1,0.8,0.2c0.1,4.7,4.7,7.8,2.6,12.4c0.6,1.4-1.2,3.8,0.8,3.9c2,2.9,1.4,7.2,1.6,10.6
		C201.8,178.1,201.6,179.7,199.2,179.5z M202.5,164l-0.2-7.8c-4.5-7.2-3.2-15.9-7.2-23.2c1.9-0.1,3.9-0.2,6-0.3
		c1.1,2.1,2,3.8,2.4,3.7c0.8,0.1,0.6-0.2,1.1,0.9c0.2,5.9,0.6,11.5,1.3,16.8c-1.3-0.3-2.6-0.6-3.9-0.9c-0.3-0.1-0.7,0.1-0.8,0.5
		c-0.1,0.3,0.1,0.7,0.5,0.8c1.4,0.4,2.9,0.7,4.4,1.1c1.3,8.5,3.2,16.3,5.6,23.4c-2.5-0.9-4.8-1.9-7.1-3c-0.3-0.1-0.7,0-0.9,0.3
		c-0.1,0.3,0,0.7,0.3,0.9c2.6,1.2,5.4,2.3,8.2,3.4c2.2,6.1,4.8,11.7,7.6,16.7c-0.2,0.6-0.4,1.1-0.1,1.9c0.6,1.3,0.5,1.1,0.2,1.6
		c-0.3,0.7-0.7,1.2-1,1.8c-5.4-2.4-10.4-5.1-15-8.1l0.1-3.8c-1.6-1.3-0.2-2.7-0.3-4.5C202.2,178.8,205.9,170.4,202.5,164z
		 M217.6,208.5c0.5,3.5-0.6,7.3-0.6,7.3c0,0.1,0,0.2-0.1,0.2c-4.3-4.6-8.6-9.9-12.5-16c-0.1-0.2-0.4-0.3-0.6-0.3l0.1-3.9
		c4.5,2.9,9.3,5.5,14.5,7.8C217.7,205,217.4,206.3,217.6,208.5z M217,220.7c-4.6-2.5-8.9-5.3-12.8-8.3c-0.2-0.2-0.5-0.2-0.7-0.1
		l0.3-10.9c4.3,6.5,8.9,12.2,13.6,17.1c-0.2,0.3-0.4,0.7-0.4,1.1C217,220.5,217.1,219.9,217,220.7z M204.6,214.3
		c3.6,2.7,7.4,5.1,11.4,7.3c0.2,0.4,1,1.4,1.1,2.3c0.2,1.1,0.7,1.5,0.9,1.8C213.3,222.2,208.8,218.4,204.6,214.3z M253.2,243.2
		c-0.2,0-0.4,0.1-0.6,0.3c-9.4-3-18.3-7.2-26.6-12.3c0,0,0.1,0,0.1-0.1c0.5-0.2-1.3-0.7-2-1.4c-0.9-0.9-1-1.6-1.2-2.3
		c0,0-1,0.4-1.4,0.9c-0.2-0.1-0.3-0.2-0.5-0.3c0.1-0.3,0.3-0.6,0.9-0.8c0.8-0.4,0.7,0,0.5-1.4c0-0.2,0-0.5,0-0.7
		c1.2,0.5,2.4,1.1,3.6,1.6C235.9,234.6,245.6,239.9,253.2,243.2C253.2,243.2,253.2,243.2,253.2,243.2z M262.5,241.9
		c-0.8,0.4-1.8,0.4-2.6,0.3c-0.4,0-0.8-0.5-0.9-0.3c-0.5,0.9-1.3,1.2-2.3,1.3c-7.1-2.8-16.7-7.5-26.5-15.1c7.4,2.8,15.5,5,24.2,6.6
		c3.5,2.3,6.9,4.3,10.1,6.1C263.7,241.1,263.2,241.7,262.5,241.9z M265.8,239.7c0,0.1-0.1,0.2-0.1,0.3c-2.6-1.4-5.4-2.9-8.2-4.7
		c2.9,0.5,6,0.9,9.1,1.2C266.5,237.6,266,238.6,265.8,239.7z M271.3,239.1c-0.9-0.8-1.7-1.6-2.5-2.4c0.4,0,0.7,0.1,1.1,0.1
		c0.9,0.8,1.9,1.5,2.8,2.2C272.2,239.1,271.7,239.5,271.3,239.1z M284.6,240.8c0-1.1-0.1-2.2-0.8-3.1c-0.6,0.6-1.4,0.5-2.2,0.8
		c-2.1,0.5-4,0.8-6,1.2c-1.1-0.8-2.3-1.7-3.5-2.6c0.3,0,0.5,0,0.8,0.1c3.8,0.3,7.6,0.5,11.2,0.6c0.5,0.7,1,1.3,1.5,1.9
		C285.4,240.1,285.3,240.7,284.6,240.8z M289.3,239.7c-0.6,0.1-1.2-0.1-1.8-0.1c-0.5-0.6-1.1-1.3-1.6-2c3.9,0,7.7-0.1,11.3-0.3
		c0,0.9,0,1.7,0.1,2.6C294.6,239.9,292,239.8,289.3,239.7z M297.7,203.3c0.4,0.2,0.6,0.2,1.1,0.1c0.6-0.3,1.3-1.1,1.6-1.6
		c0.3-0.5,1.1-1.3,1.7-1.6c0.7-0.2,1.9-0.7,2.3-1.7c0.4-0.8,1-1.7,1.2-2c0.4-0.2,0.2-0.4,0.5-0.6c0.1-0.4,0.2-0.7,0.9-0.9
		c0.5-0.2,0.5-0.5,0.5-0.6h-0.1c0,0,0,0,0.1,0c0-0.1,0.1-0.1,0.2,0c2.1,0,2,1.3,3,0.6c0.9-0.8-0.3-2.2,1.4-1.6
		c1.6,0.5,1.8,1.8,2.3,3.1c0.4,1.4-1.2,2.5,1.7,3.1c2.8,0.7,3.5,2.7,5.3,5.4c0.4,0.7,0.7,1.2,0.9,1.7c-0.7,2.7-1.6,5.4-2.5,8
		c-6.8,1.1-14.1,1.7-22,1.7C297.9,212.3,297.8,207.9,297.7,203.3z M298,217.8c7.6-0.1,14.8-0.7,21.5-1.7c-1.3,3.5-2.7,6.9-4.3,10.2
		c-1.6,3.3-3.2,6.1-4.7,8.5c-3.8,0.5-7.8,0.9-12,1.2C298.4,231,298.2,224.8,298,217.8z M303.3,243c-0.8-0.8-2-1.1-3.3-1.2
		c-0.4-0.1-0.6-1.7-1.4-1.7c0,0,0,0-0.1,0c0-0.9,0-1.7-0.1-2.7c3.8-0.2,7.5-0.6,11-1.1c-1.9,2.7-3.6,4.9-5.2,6.7
		C304,243,303.7,243,303.3,243z M306.1,243c1.6-1.8,3.3-4.1,5.1-6.9c5-0.7,9.7-1.6,14-2.5c-4.2,4-8.3,7.1-11.7,9.3
		C311.1,242.9,308.6,242.9,306.1,243z M317.9,242.9c-0.7,0-1.4,0-2,0c3.6-2.5,7.6-5.7,11.8-9.9c6.7-1.6,12.5-3.5,17.5-5.3
		c-8.5,7.1-17,12-23.7,15.2C320.3,242.9,319.1,242.9,317.9,242.9z M329,243c-1.5,0-3.1,0-4.7-0.1c7.1-3.6,15.9-9,24.4-16.6
		c9.6-3.9,14.9-7.2,15.1-7.3c5.5-3.7,10.3-7.8,14.5-12c-5.9,7.3-12.2,13.3-18.1,18.1c-7.6,6.1-15.2,10.8-21.9,14.3
		C335.3,240.7,332.2,241.9,329,243z"/>
	<path class="white" d="M380,101.5C380,101.4,380,101.4,380,101.5C380,101.4,380,101.6,380,101.5z"/>
	<path class="white" d="M382.8,82.1c0,0,0.3-0.5,0.2-1.3c-0.1,0.1-0.1,0.3-0.2,0.5C382.7,82.1,382.8,82.1,382.8,82.1z"/>
	<path class="white" d="M245.9,56.1c2.5,0.8,1.9,2.8,4,1.7c2.2-0.9,0.7-2.4-1.9-3.1c-2.5-0.8-0.8-2.1-0.9-2.8c-0.1-0.7-1.1-0.7-1.2-2.2
		c0,0-1.8-0.3-1.2,1.1c0.7,1.3,0.6,1.4,0,2.3C244.1,54.1,243.3,55.4,245.9,56.1z"/>
	<path class="white" d="M250.9,51C251.1,50.3,250.4,49.6,250.9,51L250.9,51z"/>
	<path class="white" d="M243.1,103.6c0.5,0,1.2,0.6,1.9,0.9c0.7,0.4,0.3,0.5,0,0.9c-0.4,0.5,0.6,0.3,0.9-0.2c0.2-0.3,0.7-0.1,0.6,0.2
		c0,0.4-0.3,0.7,0,0.9c0.2,0.3,0.6,0.3,0.9-0.2c0,0,0.8-1.2-0.3-1.2c-1.1,0.1,0.6-0.8,0.5-1.4c-0.1-0.4-0.1-0.8-1.4-1.6
		c-0.8-0.4-0.7-0.4-0.3-0.6c0.5-0.3,1.1-1.3,0.8-1.6c-0.3-0.2-1.9,1.2-2.6,1.9c-0.8,0.6-0.4-0.3-0.6,0c-0.3,0.3-0.2,0.8-0.8,1.2
		C242,103.5,242.7,103.7,243.1,103.6z"/>
	<path class="white" d="M225.8,140.9c1,0.5,0.3-0.8-0.3-1.6c-0.8-1-1.8-0.2-2.5-0.9c-0.6-0.7-1.4-0.8-0.6,0.3c0.5,0.6,1.2,0.9-0.6,0.6
		c-1.8-0.2,0.4,0.9,2.3,1.4C224.1,140.8,224,140.1,225.8,140.9z"/>
	<path class="white" d="M228.6,142.5c1.1,0.3,0-0.6-0.8-0.8C227.8,141.7,226.7,141.8,228.6,142.5z"/>
	<path class="white" d="M194.5,75.3c0,0-0.2-0.4-0.6,0.3c-0.5,0.8-0.8,1.1-0.3,2c0.4,1.1-0.2,0.7,0.6,1.6c0.8,0.9,0.4-0.8,0.2-1.6
		C194.3,76.9,194.6,76.4,194.5,75.3z"/>
	<path class="white" d="M196.7,67.8c-0.4,0.9,0.1,0.7,0.3-0.2c0.2-0.7,0.8-1.5,1.4-2c0.6-0.4,0-0.2-0.2-0.9C198.3,64.7,197.1,66.8,196.7,67.8z"/>
	<path class="white" d="M199.4,64.1c-0.3,0.9,0.1,0.4,0.5,0c0.5-0.5,0.3-0.6,0.5-1.4C200.3,62.7,199.7,63,199.4,64.1z"/>
	<path class="white" d="M200.2,61.3c0-0.1,0-0.2,0-0.3c-0.1-0.6-0.8-0.6-0.8-0.6c0,0.1-0.1,0.2-0.1,0.3C199.3,61.3,200.2,62.1,200.2,61.3z"/>
	<path class="white" d="M234.4,46.2c0.6-0.9,0-1.6-0.9-1.9c-1-0.4-1,0.8-3,1.4c-2,0.5-2.2,2.2-3.4,3.1c-1.1,0.8,0.1,1.2,2.2,0.5
		c0,0,1.7-0.7,4.7-1.4C236.8,47.1,233.9,47.1,234.4,46.2z"/>
	<path class="white" d="M199.7,59.7c-0.1,0.5,0.2,0.1,0.6-0.3c0.5-0.3,0.7-0.8,0.3-0.8C200.6,58.6,199.8,59.1,199.7,59.7z"/>
	<path class="white" d="M285.3,148.1c-0.3,0.1-0.6,0.2-0.6,0.2s0.2-0.4,0.3-0.8c0.1-0.4,0.4-0.6,0.5-0.9c0-0.3-0.3-0.4-0.5-0.5
		c-0.3,0-0.4,0.4-0.8,0.6c-0.2,0.3-0.2,0.1,0-0.3c0,0-0.4-0.3-1.1-1.2c-0.6-0.9-0.8-0.7-1.6-1.2c-0.1-0.1-0.2,0.2-0.5,0.3
		c-0.2,0.2-0.1,0,0.2-0.3c0.2-0.4,0.2-0.4-0.2-0.2c-0.4,0.2-0.1-0.2,0-0.5c0.1-0.2,0.1-0.6,0-0.8c0-0.3,0.2-0.6-0.2-0.5
		c-0.3,0.2-0.2,0.2-0.6,0.6c-0.3,0.3-0.3,0.5-0.5,0.8c-0.3,0.2-0.2-0.3-0.3-0.6c0-0.4,0.2-0.7,0.3-1.1c0,0-0.3,0-0.6,0.3
		c-0.2,0.2-0.3,0.3-0.5,0.8c-0.1,0.5-0.1,1.4,0,1.7c0.1,0.3,0.1,0.5,0.5,0.6c0.3,0.1,0.5,0,0.8,0.2c0.2,0.2,0.4,0.5,0.3,0.8
		c-0.2,0.3,0,0.2,0.2,0.3c0.1,0.2,0.2,0,0.5-0.3c0.1-0.3,0.2-0.5,0.2-0.5c0,0,0.1,0,0,0.3c-0.1,0.2-0.1,0.2,0,0.5
		c0.2,0.2,0,0.6,0.3,0.6c0.2-0.2,0.5,0.1,0.5,0.3c0,0.1-0.3,0.6-0.5,0.8c-0.2,0.3-0.4,0.5-0.5,0.8c0,0.2,0,0.2,0.2,0
		c0.1-0.1,0.3,0,0.3,0c0.2,0.5,0.2-0.4,0,0.8c-0.2,0.4-0.4,0.3-0.5,0.6c-0.1,0.4-0.3,0.6,0,0.5c0.4-0.2,0.1-0.3,0.5-0.3
		c0.3,0.1,0.4-0.1,0.8-0.3c0.4-0.2,0.3,0.2-0.3,0.6c-0.7,0.5-0.3,0.3-0.5,0.8c-0.3,0.6-0.3,1-0.5,1.6c0,0.4,0.4-0.3,0.6-0.6
		c0.1-0.4,0.3-0.3,0.3-0.8c0-0.4,0.1-0.2,0.5-0.5c0.4-0.1,0.4-0.1,0.6-0.5c0.2-0.4,0.5-0.6,1.4-1.4c0.9-0.6,0.8-0.6,0.9-0.8
		C285.5,148.2,285.5,148.1,285.3,148.1z"/>
	<path class="white" d="M279.5,147.9c0.3-0.2,0.3-0.2,0.5-0.5c0.1-0.4-0.1-0.2-0.3-0.5c-0.1-0.2-0.1-0.1-0.3-0.2c0,0-0.4,0.2-0.8,0.5
		c-0.4,0.2-0.3,0.3-0.6,0.6c-0.2,0.2-0.2,0.3-0.3,0.6c-0.1,0.2,0.2,0,0.5-0.2c0.2-0.1,0.1,0,0,0.2c0,0.3-0.2,0.4-0.5,0.8
		c-0.2,0.3-0.1,0.3-0.3,0.5c-0.3,0.2-0.2,0.1-0.3,0.3c-0.2,0.3-0.1,0.4,0,0.8c0,0.3-0.1,0.3,0.2,0.3c0.3,0,0.3,0,0.5,0.3
		c0.1,0.5,0.1,0.3-0.2,0.6c-0.3,0.4-0.2,0.4-0.2,0.6c0.2,0.2,0.3,0.3,0.8,0.2c0.3-0.1,0.3-0.3,0.8-1.1c0.6-0.7,0.6-0.4,0.9-0.8
		c0.3-0.4,0.1-0.1,0-0.5c0-0.5,0.1-0.3,0-0.9c-0.1-0.8-0.1-0.5-0.3-0.8c-0.1-0.4-0.1-0.3-0.2-0.6
		C279.3,148.1,279.3,148.1,279.5,147.9z"/>
	<path class="white" d="M376.4,143.9c0.5,0,0.2,0.2,0,0.5c-0.2,0.3-0.1,0.6,0.3,1.1c0.4,0.4,0.6-0.2,0.9-0.2c0.5,0.2,0.2,0.7,0.3,1.2
		c0.3,0.4,0.4-0.1,0.8-0.5c0.5-0.2,0.3,0.1,0.8,0.2c0.6,0.2,0.4-0.2,0.5-0.6c0.2-0.5,0.3-0.8,0.3-0.8s0.7-0.3,1.1,0
		c0.4,0.2,0.5,0.2,0.5,0.2l0.8-1.1c0,0,0-0.8-0.2-1.4c-0.1-0.6-0.1-0.5,0-1.1c0.3-0.6,0.3-0.5,0.3-0.8c-0.1-0.3,0-0.9,0.2-1.6
		c0.2-0.6,0.6-0.8,0.6-0.8s-0.4-0.1-0.9-0.3c-0.6-0.3-0.3-0.4-0.8-1.2c-0.1-0.3-0.1-0.4-0.2-0.5l0.6-0.9l-0.5-0.2
		c0,0,0.2-0.1,0.6-0.5c0.4-0.4,0.3-0.6,0.2-0.8c0-0.2-0.4,0.1-0.8,0.3c-0.3,0.3-0.4,0.4-0.6,0.5c-0.3,0.2-0.2-0.1-0.2-0.8
		c0-0.2,0-0.3,0-0.4l-0.2,0.3l-0.2-0.5l-0.2,0.5l-0.3-0.3c0,0-0.1,0.3-0.2,1.4c0,1-0.1,0.4-0.3,0.8c-0.1,0.4,0,0.4,0,0.8
		c0.2,0.4,0.1,0.5-0.3,0.9c-0.5,0.3-0.4,0.5-0.6,1.2c-0.2,0.7-0.2,0.7-0.3,1.1c-0.3,0.5-0.6,0.5-0.9,0.8c-0.2,0.4,0.1,0.7,0.2,1.1
		c0,0.3,0,0.2-0.3,0.3c-0.4,0.1-0.5,0.2-0.9,0.6c-0.6,0.3-0.4,0.4-0.5,0.8C375.9,143.7,376.1,143.8,376.4,143.9z"/>
	<path class="white" d="M381.1,133.5l0.1-0.2C381.3,133.3,381.2,133.2,381.1,133.5z"/>
	<path class="white" d="M368.9,145.9C368.9,145.9,369,145.9,368.9,145.9C369,145.9,368.9,145.9,368.9,145.9z"/>
	<path class="white" d="M290.4,168c0,0.7,0,1.2,0,1.6C291.1,169.5,290.3,168.4,290.4,168z"/>
	<path class="white" d="M306.3,152.1c0,0.1,0,0.1,0,0.1c0,0,0,0,0,0V152.1z"/>
	<path class="white" d="M307.8,194.3c-0.1,0-0.2,0-0.2,0c0,0,0,0,0,0L307.8,194.3C307.8,194.3,307.8,194.3,307.8,194.3z"/>
	<path class="white" d="M397.6,143.3C397.7,143.8,397.8,142.6,397.6,143.3L397.6,143.3z"/>
	<path class="white" d="M388.6,153.2C388.7,152.8,388.4,153,388.6,153.2L388.6,153.2z"/>
</g>
</svg>
